{"glyphs":{"0":{"ha":875,"x_min":74,"x_max":803,"o":"m 74 247 l 74 761 q 142 950 74 885 q 329 1017 211 1017 l 557 1017 q 790 864 746 1017 q 803 769 803 821 l 803 247 q 739 64 803 126 q 556 0 674 0 l 328 0 q 142 63 208 0 q 74 247 74 125 m 268 279 q 372 179 268 179 l 507 179 q 583 201 558 179 q 608 278 608 224 l 608 739 q 514 838 608 838 l 368 838 q 289 808 311 838 q 268 739 268 778 l 268 279 z "},"1":{"ha":515,"x_min":42,"x_max":432,"o":"m 432 1017 l 432 0 l 238 0 l 238 824 l 42 775 l 42 901 l 239 1017 l 432 1017 z "},"2":{"ha":817,"x_min":42,"x_max":767,"o":"m 42 850 l 42 994 q 464 1031 246 1031 q 693 938 618 1031 q 765 715 765 849 q 382 179 765 483 l 765 179 l 765 0 l 53 0 l 53 171 q 264 332 164 246 q 425 479 365 418 q 528 606 486 540 q 569 715 569 669 q 553 792 569 761 q 403 850 519 850 l 42 850 z "},"3":{"ha":810,"x_min":32,"x_max":733,"o":"m 471 -10 l 390 -10 l 364 -10 q 317 -8 356 -10 q 265 -8 279 -8 q 219 -6 251 -7 q 169 0 188 -3 q 126 7 153 3 q 40 29 85 14 l 42 171 l 394 171 q 506 188 474 171 q 536 265 536 204 l 536 310 q 503 389 536 368 q 403 414 471 411 l 126 425 l 126 581 l 403 594 q 508 619 476 599 q 539 694 539 642 l 539 744 q 519 804 539 782 q 471 833 499 826 q 403 840 443 840 l 32 840 l 32 981 q 392 1021 146 1021 q 481 1019 438 1021 q 664 951 596 1017 q 732 775 732 886 l 732 703 q 626 506 732 544 q 732 297 732 461 l 732 239 q 665 54 732 118 q 471 -10 599 -10 z "},"4":{"ha":861,"x_min":21,"x_max":842,"o":"m 544 406 l 544 638 l 589 744 l 739 744 l 739 406 l 842 406 l 842 256 l 739 222 l 739 3 l 544 3 l 544 222 l 68 222 l 21 311 l 383 1017 l 597 1017 l 293 406 l 544 406 z "},"5":{"ha":828,"x_min":81,"x_max":768,"o":"m 289 608 q 438 644 333 644 q 544 642 475 644 q 668 604 615 639 q 768 389 768 540 l 768 246 q 650 28 768 92 q 510 -6 588 -6 q 289 0 368 -6 q 81 28 211 6 l 81 181 l 472 181 q 553 208 532 181 q 574 279 574 238 l 574 372 q 531 463 574 444 q 481 471 511 471 l 350 471 q 289 450 311 471 q 265 389 265 431 l 82 389 l 113 1017 l 731 1017 l 731 838 l 300 838 l 289 608 z "},"6":{"ha":844,"x_min":69,"x_max":783,"o":"m 69 533 q 83 725 69 640 q 118 861 96 808 q 172 950 140 915 q 308 1021 228 1014 q 418 1026 361 1026 q 750 993 569 1026 l 750 846 l 403 846 q 310 803 340 846 q 274 714 279 758 q 264 589 264 649 q 544 617 378 617 q 738 547 688 617 q 783 381 783 486 l 783 228 q 538 -1 783 -1 l 339 -1 q 143 103 201 -1 q 69 533 69 232 m 264 446 q 297 232 264 289 q 396 178 331 178 l 501 178 q 569 194 549 178 q 590 264 590 213 l 590 357 q 543 442 590 429 q 506 446 528 446 l 264 446 z "},"7":{"ha":769,"x_min":32,"x_max":739,"o":"m 32 838 l 32 1017 l 686 1017 l 739 928 l 399 0 l 186 0 l 499 838 l 32 838 z "},"8":{"ha":867,"x_min":78,"x_max":792,"o":"m 79 233 l 79 335 q 108 439 79 397 q 189 492 138 479 q 97 579 119 521 q 79 693 79 626 l 79 783 q 156 975 79 922 q 339 1024 225 1024 l 549 1024 q 731 967 671 1024 q 789 782 789 910 l 789 708 q 776 632 790 671 q 685 547 751 558 q 738 519 715 542 q 771 468 760 497 q 789 357 790 411 l 789 238 q 682 25 789 74 q 547 0 628 0 l 339 0 q 86 154 119 0 q 79 233 79 190 m 274 254 q 315 181 274 197 q 374 172 338 172 l 503 172 q 594 254 594 172 l 594 351 q 572 415 594 393 q 507 438 550 438 l 367 438 q 274 351 274 438 l 274 254 m 274 686 q 367 600 274 600 l 506 600 q 581 626 563 600 q 594 686 594 649 l 594 751 q 572 831 594 810 q 504 853 550 853 l 374 853 q 297 833 319 853 q 274 751 274 815 l 274 686 z "},"9":{"ha":844,"x_min":64,"x_max":779,"o":"m 425 -6 q 97 26 250 -6 l 97 174 l 444 174 q 536 217 507 174 q 574 306 567 261 q 583 432 583 371 q 303 403 469 403 q 108 472 160 403 q 64 640 64 535 l 64 792 q 310 1021 64 1021 l 508 1021 q 599 1008 560 1021 q 672 958 638 994 q 731 864 708 922 q 778 486 778 736 q 675 69 778 186 q 539 -1 618 6 q 425 -6 483 -6 m 257 663 q 276 592 257 611 q 342 574 296 574 l 583 574 q 549 789 583 731 q 451 842 517 842 l 344 842 q 278 825 299 842 q 257 756 257 807 l 257 663 z "},"অ":{"ha":1333,"x_min":-19,"x_max":1349,"o":"m 988 346 l 1092 307 l 1092 736 l -19 736 l -19 883 l 1349 883 l 1349 736 l 1258 736 l 1258 0 l 1092 0 l 1092 167 l 928 217 q 896 178 928 217 q 646 67 789 68 q 365 213 503 68 q 263 338 319 261 q 172 468 206 415 l 138 521 l 217 581 l 447 336 q 636 222 557 226 q 819 325 754 222 q 857 451 857 386 q 726 524 857 518 q 674 525 706 525 l 468 525 l 450 647 q 646 669 450 647 q 747 674 707 674 q 986 547 929 674 q 1006 453 1006 504 q 1001 403 1006 429 q 992 361 997 376 l 988 346 z "},"আ":{"ha":1590,"x_min":-19,"x_max":1610,"o":"m 1269 883 l 1369 872 l 1364 975 l 1485 975 l 1517 883 l 1610 883 l 1610 736 l 1532 736 l 1532 0 l 1365 0 l 1365 736 l 1258 736 l 1258 0 l 1092 0 l 1092 167 l 928 217 q 896 178 928 217 q 646 67 789 68 q 365 213 503 68 q 263 338 319 261 q 172 468 206 415 l 138 521 l 217 581 l 447 336 q 636 222 557 226 q 819 325 754 222 q 857 451 857 386 q 731 524 857 517 q 674 525 707 525 l 468 525 l 450 647 q 646 669 450 647 q 747 674 707 674 q 986 547 929 674 q 1006 453 1006 504 q 1001 403 1006 429 q 992 361 997 376 l 988 346 l 1092 307 l 1092 736 l -19 736 l -19 883 l 1269 883 z "},"ত":{"ha":1063,"x_min":-19,"x_max":1083,"o":"m 567 13 q 319 122 438 13 q 286 156 303 139 q 185 281 239 204 q 100 411 131 358 l 69 463 l 160 529 l 351 329 q 447 231 438 239 q 558 179 506 179 q 743 276 646 179 q 826 422 822 363 q 763 513 826 494 q 649 524 724 524 l 428 524 l 408 650 q 640 674 408 650 q 726 678 694 678 q 981 526 939 678 q 989 458 989 494 q 868 172 989 310 q 621 18 757 44 q 567 13 593 13 m 1083 883 l 1083 736 l -19 736 l -19 883 l 1083 883 z "},"ই":{"ha":813,"x_min":-19,"x_max":828,"o":"m 428 525 l 147 525 l 128 650 q 297 672 128 650 q 432 679 375 679 q 682 561 629 679 q 707 400 707 503 q 672 314 707 354 q 585 248 636 274 q 484 203 535 222 q 397 175 433 183 l 363 167 l 699 -25 l 636 -142 q 403 -36 636 -142 q 96 128 208 58 l 111 275 q 263 301 111 275 q 549 442 547 364 q 508 515 549 500 q 428 525 481 525 m 535 883 q 506 943 535 933 q 446 947 488 947 l 99 947 l 93 1063 q 525 1082 104 1063 q 703 883 699 1071 l 828 883 l 828 736 l -19 736 l -19 883 l 535 883 z "},"e":{"ha":729,"x_min":51,"x_max":688,"o":"m 53 372 q 128 678 53 603 q 350 743 189 740 q 375 743 363 743 q 601 707 542 743 q 688 490 685 657 q 688 475 688 482 q 522 292 688 308 q 482 289 503 290 l 247 289 q 299 161 247 185 q 403 149 329 149 q 674 164 575 149 l 674 32 q 296 -7 564 -7 q 94 99 146 -7 q 53 372 53 185 m 247 429 l 432 429 q 493 485 492 432 q 469 579 493 561 q 386 594 447 594 q 279 574 303 594 q 247 429 246 542 z "},"হ":{"ha":813,"x_min":-19,"x_max":828,"o":"m 428 525 l 147 525 l 128 650 q 297 672 128 650 q 432 679 375 679 q 682 561 629 679 q 707 400 707 503 q 672 314 707 354 q 585 248 636 274 q 484 203 535 222 q 397 175 433 183 l 363 167 l 699 -25 l 636 -142 q 403 -36 636 -142 q 96 128 208 58 l 111 275 q 263 301 111 275 q 549 442 547 364 q 508 515 549 500 q 428 525 481 525 m 828 883 l 828 736 l -19 736 l -19 883 l 828 883 z "},"উ":{"ha":1056,"x_min":-19,"x_max":1081,"o":"m 436 736 l -19 736 l -19 883 l 743 883 q 714 943 743 933 q 654 947 696 947 l 140 947 l 135 1063 q 428 1078 135 1063 q 692 1082 565 1082 q 897 996 861 1082 q 911 883 911 960 l 1081 883 l 1081 736 l 603 736 l 603 617 q 776 629 608 617 q 950 549 894 629 q 978 453 978 507 q 901 217 978 346 q 647 6 799 46 q 569 -4 608 -4 q 344 93 449 -6 q 297 146 318 118 q 167 344 222 243 q 94 497 113 446 l 78 550 l 181 593 q 344 353 181 593 q 417 254 388 293 q 574 153 497 153 q 744 263 656 153 q 822 424 818 358 q 735 482 819 481 l 436 468 l 436 736 z "},"ড":{"ha":1069,"x_min":-19,"x_max":1089,"o":"m 447 736 l -19 736 l -19 883 l 1089 883 l 1089 736 l 614 736 l 614 621 q 789 633 619 621 q 963 553 907 633 q 990 457 990 511 q 914 221 990 350 q 660 10 811 50 q 582 0 621 0 q 357 97 461 -1 q 310 150 331 122 q 180 349 235 247 q 108 503 125 450 l 90 554 l 196 594 q 356 358 196 594 q 429 258 399 297 q 586 157 510 157 q 754 269 669 157 q 826 428 822 363 q 739 486 824 485 l 447 472 l 447 736 z "},"ড়":{"ha":1090,"x_min":-19,"x_max":1108,"o":"m 447 736 l -19 736 l -19 883 l 1108 883 l 1108 736 l 614 736 l 614 621 q 789 633 619 621 q 963 553 907 633 q 990 457 990 511 q 914 221 990 350 q 660 10 811 50 q 582 0 621 0 q 357 97 461 -1 q 310 150 331 122 q 180 349 235 247 q 108 503 125 450 l 90 554 l 196 594 q 356 358 196 594 q 429 258 399 297 q 586 157 510 157 q 754 269 669 157 q 826 428 822 363 q 739 486 824 485 l 447 472 l 447 736 m 419 -232 l 419 -107 q 453 -72 422 -74 l 575 -72 q 607 -107 606 -75 l 607 -232 q 575 -264 604 -262 l 453 -264 q 419 -232 422 -260 z "},"ঊ":{"ha":1181,"x_min":-25,"x_max":1200,"o":"m 701 -6 q 997 165 868 -6 q 1108 415 1089 289 q 1111 453 1111 435 q 1018 606 1111 557 q 910 629 971 629 q 844 626 888 629 q 768 619 800 624 l 736 617 l 736 736 l 1200 736 l 1200 883 l 1044 883 q 1013 1025 1044 986 q 825 1082 964 1082 l 268 1063 l 274 947 l 788 947 q 865 931 853 947 q 876 883 876 915 l -25 883 l -25 736 l 569 736 l 569 468 q 868 482 576 468 q 956 424 954 481 q 885 271 956 364 q 707 153 790 158 q 550 254 629 154 q 486 340 521 292 q 422 431 451 388 q 368 511 393 474 q 328 571 343 549 q 314 593 314 593 l 211 550 q 256 433 211 550 q 336 283 296 342 l 156 493 l 69 435 q 121 350 69 435 q 258 181 186 253 q 550 15 378 61 q 701 -6 628 -6 z "},"ক":{"ha":1194,"x_min":-19,"x_max":1211,"o":"m 99 363 l 99 483 l 588 704 l 588 736 l -19 736 l -19 883 l 1211 883 l 1211 736 l 754 736 l 756 697 l 986 621 q 1143 454 1142 563 q 1117 356 1142 406 q 1069 272 1097 317 q 1022 203 1040 228 l 1003 179 l 883 260 l 933 350 q 961 421 960 400 q 929 475 961 458 q 878 497 914 483 l 754 538 l 754 0 l 588 0 l 99 363 m 306 407 l 588 194 l 588 540 l 306 407 z "},"ঋ":{"ha":1139,"x_min":58,"x_max":1163,"o":"m 864 201 l 783 232 l 783 0 l 603 0 l 85 322 l 85 458 l 436 611 l 415 661 q 311 613 415 661 q 246 592 269 596 q 115 624 171 578 q 111 628 113 626 q 58 747 60 679 q 115 868 58 828 q 128 876 122 874 q 269 914 161 893 l 289 824 q 215 788 286 822 q 196 753 193 776 q 228 733 201 735 q 322 763 256 733 q 440 819 388 792 l 493 849 l 578 674 l 603 685 l 603 883 l 783 883 l 783 401 l 864 367 l 864 883 l 858 975 l 979 975 l 1011 883 l 1163 883 l 1163 736 l 1031 736 l 1031 54 l 864 54 l 864 201 m 603 199 l 603 515 l 307 381 l 603 199 z "},"ঝ":{"ha":1139,"x_min":-19,"x_max":1154,"o":"m 307 407 l 589 194 l 589 540 l 307 407 m 589 0 l 100 363 l 100 483 l 589 704 l 589 736 l -19 736 l -19 883 l 756 883 l 756 401 l 836 367 l 836 883 l 831 975 l 951 975 l 983 883 l 1154 883 l 1154 736 l 1003 736 l 1003 54 l 836 54 l 836 201 l 756 232 l 756 0 l 589 0 z "},"ধ":{"ha":847,"x_min":78,"x_max":857,"o":"m 299 407 l 581 194 l 581 540 l 299 407 m 436 639 l 581 704 l 581 883 l 575 975 l 696 975 l 728 883 l 857 883 l 857 736 l 747 736 l 747 0 l 581 0 l 92 363 l 92 483 l 268 563 q 203 594 268 563 q 78 742 79 665 q 125 871 78 804 q 210 928 167 928 q 294 917 243 928 q 378 893 344 906 l 411 882 l 386 781 q 264 793 385 781 q 232 756 236 786 q 283 708 232 738 q 385 658 335 679 l 436 639 z "},"ব":{"ha":806,"x_min":-19,"x_max":825,"o":"m 268 406 l 550 200 l 550 538 l 268 406 m 825 736 l 717 736 l 717 0 l 550 0 l 54 358 l 54 479 l 550 704 l 550 736 l -19 736 l -19 883 l 825 883 l 825 736 z "},"র":{"ha":803,"x_min":-19,"x_max":825,"o":"m 268 406 l 550 200 l 550 538 l 268 406 m 825 736 l 717 736 l 717 0 l 550 0 l 54 358 l 54 479 l 550 704 l 550 736 l -19 736 l -19 883 l 825 883 l 825 736 m 131 -76 l 131 49 q 164 83 133 82 l 286 83 q 318 49 317 81 l 318 -76 q 286 -108 315 -107 l 164 -108 q 131 -76 133 -104 z "},"এ":{"ha":1007,"x_min":79,"x_max":914,"o":"m 747 288 l 747 601 q 672 711 747 690 q 635 717 653 717 q 510 679 593 717 q 364 603 426 642 l 301 565 l 226 661 q 633 883 461 882 q 894 747 839 883 q 914 643 914 701 l 914 0 l 747 0 l 747 97 q 665 53 747 97 q 476 0 553 0 q 185 126 272 1 q 79 354 118 225 l 175 401 l 258 263 q 450 157 329 157 q 733 278 564 157 q 747 288 747 288 z "},"ঐ":{"ha":1215,"x_min":79,"x_max":1151,"o":"m 914 372 q 1151 539 1150 375 l 1132 1032 l 1001 1026 l 1001 615 q 914 526 989 532 l 914 643 q 726 875 914 835 q 633 883 682 883 q 226 661 460 882 l 301 565 q 428 638 301 565 q 635 717 575 717 q 739 651 713 717 q 747 601 747 629 l 747 288 q 669 236 747 288 q 450 157 538 157 q 261 258 324 157 q 258 263 260 261 l 175 401 l 79 354 q 185 126 118 224 q 476 0 272 0 q 596 24 528 0 q 706 72 664 49 l 747 97 l 747 0 l 914 0 l 914 372 z "},"ঞ":{"ha":1340,"x_min":75,"x_max":1265,"o":"m 886 731 q 889 732 886 731 q 1074 761 1026 761 q 1217 732 1178 761 q 1265 603 1265 693 l 1265 550 q 1203 431 1264 442 q 1264 310 1264 418 l 1264 264 q 1125 106 1264 121 q 1074 103 1103 103 q 1008 108 1047 103 q 942 117 968 113 l 914 122 l 914 0 l 747 0 l 747 97 q 681 58 747 97 q 481 0 569 0 q 181 126 268 1 q 75 351 113 226 l 167 407 l 258 263 q 450 157 329 157 q 733 278 564 157 q 747 288 747 288 l 747 601 q 672 711 747 690 q 635 717 653 717 q 322 543 550 717 q 306 531 306 531 l 232 629 q 585 878 422 844 q 633 883 611 883 q 868 763 789 883 q 886 731 886 731 m 914 243 q 1074 233 918 243 q 1124 294 1122 236 q 1104 351 1124 343 q 1064 357 1092 357 l 990 357 l 990 497 l 1050 497 q 1115 514 1104 497 q 1124 557 1124 529 q 1063 615 1121 614 l 914 604 l 914 243 z "},"ট":{"ha":903,"x_min":-19,"x_max":922,"o":"m 267 736 l 267 310 q 293 200 267 225 q 350 182 314 182 q 588 299 486 183 q 631 406 631 349 q 519 467 631 460 q 463 468 496 468 l 388 468 l 374 601 q 574 613 386 601 q 776 517 718 613 q 803 424 803 474 q 765 281 801 357 q 547 65 701 151 q 331 0 429 0 q 157 68 224 0 q 100 221 100 126 l 100 736 l -19 736 l -19 883 l 579 883 q 515 974 579 964 q 490 975 504 975 l -10 975 l -15 1090 q 376 1107 -15 1090 q 528 1110 464 1110 q 738 992 704 1110 q 747 883 747 953 l 922 883 l 922 736 l 267 736 z "},"ঢ":{"ha":903,"x_min":-19,"x_max":922,"o":"m 922 883 l 922 736 l 267 736 l 267 310 q 293 200 267 225 q 350 182 314 182 q 588 299 486 183 q 631 406 631 349 q 519 467 631 460 q 463 468 496 468 l 388 468 l 374 601 q 574 613 386 601 q 776 517 718 613 q 803 424 803 474 q 765 281 801 357 q 547 65 701 151 q 331 0 429 0 q 157 68 224 0 q 100 221 100 126 l 100 736 l -19 736 l -19 883 l 922 883 z "},"ঢ়":{"ha":903,"x_min":-19,"x_max":922,"o":"m 922 883 l 922 736 l 267 736 l 267 310 q 293 200 267 225 q 350 182 314 182 q 588 299 486 183 q 631 406 631 349 q 519 467 631 460 q 463 468 496 468 l 388 468 l 374 601 q 574 613 386 601 q 776 517 718 613 q 803 424 803 474 q 765 281 801 357 q 547 65 701 151 q 331 0 429 0 q 157 68 224 0 q 100 221 100 126 l 100 736 l -19 736 l -19 883 l 922 883 m 228 -232 l 228 -107 q 261 -72 231 -74 l 383 -72 q 415 -107 414 -75 l 415 -232 q 383 -264 413 -262 l 261 -264 q 228 -232 231 -260 z "},"য":{"ha":903,"x_min":-14,"x_max":918,"o":"m 113 736 l -14 736 l -14 883 l 918 883 l 918 736 l 803 736 l 803 0 l 615 0 l 125 257 l 125 396 q 232 443 125 396 q 336 524 335 494 q 275 585 336 542 q 153 661 214 628 l 93 694 l 113 736 m 332 331 l 636 171 l 636 736 l 238 736 q 326 694 238 736 q 379 664 356 679 q 482 576 460 613 q 497 525 497 550 q 376 361 497 447 q 332 331 357 346 z "},"য়":{"ha":903,"x_min":-14,"x_max":918,"o":"m 113 736 l -14 736 l -14 883 l 918 883 l 918 736 l 803 736 l 803 0 l 615 0 l 125 257 l 125 374 q 232 432 125 374 q 336 524 335 494 q 274 581 336 542 q 149 651 211 621 l 86 682 l 113 736 m 332 331 l 636 167 l 636 736 l 238 736 q 326 694 238 736 q 379 664 356 679 q 483 569 463 610 q 494 525 494 547 q 374 358 494 446 q 332 331 354 344 m 226 -117 l 226 8 q 260 43 229 42 l 382 43 q 414 8 413 40 l 414 -117 q 382 -149 411 -147 l 260 -149 q 226 -117 229 -144 z "},"ষ":{"ha":903,"x_min":-14,"x_max":918,"o":"m 126 736 l -14 736 l -14 883 l 918 883 l 918 736 l 817 736 l 817 0 l 629 0 l 139 257 l 139 396 q 246 443 139 396 q 350 524 349 494 q 289 585 350 542 q 167 661 228 628 l 107 694 l 126 736 m 650 557 l 650 736 l 254 736 q 415 653 254 736 q 419 650 418 650 q 650 557 586 563 m 650 413 q 580 423 618 413 q 519 443 542 433 l 497 453 q 464 414 497 453 q 453 404 457 407 l 346 331 l 650 171 l 650 413 z "},"ফ":{"ha":1250,"x_min":-14,"x_max":1265,"o":"m 963 531 l 831 531 l 831 0 l 643 0 l 153 261 l 153 394 q 251 438 153 394 q 349 515 349 485 q 292 574 349 535 q 178 643 235 614 l 121 672 l 150 736 l -14 736 l -14 883 l 1265 883 l 1265 736 l 264 736 q 374 682 264 736 q 407 663 392 672 q 515 515 514 597 q 400 365 515 444 q 378 350 393 360 q 360 338 365 342 l 664 174 l 664 669 l 976 669 q 1193 508 1192 668 q 1164 408 1192 465 q 1113 336 1150 381 q 1046 261 1076 292 l 1015 231 l 922 292 q 1008 418 922 292 q 1011 422 1010 421 q 1039 494 1039 468 q 963 531 1038 531 z "},"ঘ":{"ha":903,"x_min":-14,"x_max":918,"o":"m 268 736 q 267 732 268 736 q 261 654 240 676 q 439 631 289 631 l 528 631 l 572 447 l 342 315 l 664 163 l 664 736 l 268 736 m 121 736 l -14 736 l -14 883 l 918 883 l 918 736 l 831 736 l 831 0 l 643 0 l 164 229 l 164 381 l 393 500 q 324 501 392 500 q 103 564 153 501 q 100 567 100 565 q 82 626 82 592 q 121 736 82 679 z "},"ভ":{"ha":1111,"x_min":-19,"x_max":1128,"o":"m 590 308 q 372 401 414 308 q 354 500 354 442 q 388 638 354 581 q 396 649 393 644 q 499 686 433 686 q 567 682 519 686 q 650 672 614 678 l 686 668 l 674 544 l 540 544 q 508 501 508 542 q 551 464 508 469 q 611 463 571 463 q 728 518 650 463 q 847 576 811 574 q 989 479 911 576 q 1060 325 1060 389 q 935 126 1060 243 q 771 10 854 53 q 585 -36 681 -36 q 275 117 419 -35 q 172 245 226 168 q 88 373 118 322 q 60 424 58 424 l 150 490 l 368 253 q 585 117 497 122 q 713 154 649 117 q 867 283 811 213 q 889 329 888 313 q 858 382 889 350 q 833 399 843 397 q 774 367 826 399 q 590 308 679 308 m 1128 883 l 1128 736 l -19 736 l -19 883 l 1128 883 z "},"খ":{"ha":1028,"x_min":85,"x_max":1042,"o":"m 711 514 l 393 374 l 763 165 l 763 883 l 757 975 l 878 975 l 910 883 l 1042 883 l 1042 736 l 929 736 l 929 0 l 763 0 l 203 315 l 203 458 l 511 590 q 499 622 511 592 q 478 639 492 638 q 393 610 472 639 q 265 581 315 581 q 138 617 176 581 q 85 736 86 668 q 154 865 86 818 q 221 892 176 881 q 299 908 265 904 l 332 911 l 357 831 q 242 776 356 831 q 221 743 219 767 q 254 719 226 721 q 461 789 283 719 q 547 818 535 818 q 619 772 597 818 q 625 757 621 765 l 711 514 z "},"থ":{"ha":972,"x_min":119,"x_max":986,"o":"m 368 381 q 447 413 368 381 q 635 613 633 503 q 574 794 635 747 q 360 840 513 840 q 254 835 314 840 q 157 826 194 831 l 119 822 l 140 689 l 288 689 q 468 640 458 689 q 469 631 469 635 q 229 476 469 550 q 160 458 160 458 l 160 308 l 707 0 l 874 0 l 874 736 l 986 736 l 986 883 l 865 883 l 836 988 l 707 988 l 707 186 l 368 381 z "},"চ":{"ha":861,"x_min":-14,"x_max":876,"o":"m 267 540 l 267 289 q 282 176 267 197 q 322 161 296 161 q 488 238 392 161 q 579 331 540 279 q 621 426 621 386 q 582 478 621 467 q 539 488 575 481 q 267 540 267 540 m 267 681 q 383 667 268 681 q 622 633 561 646 q 786 478 764 606 q 789 439 789 458 q 758 317 789 375 q 535 78 683 175 q 324 0 417 0 q 133 90 190 0 q 100 221 100 143 l 100 736 l -14 736 l -14 883 l 876 883 l 876 736 l 267 736 l 267 681 z "},"ছ":{"ha":951,"x_min":-19,"x_max":967,"o":"m 449 454 q 478 507 478 478 q 436 544 478 536 q 419 547 431 546 q 406 550 410 549 l 249 578 l 249 421 q 282 375 251 376 q 425 438 332 375 q 449 454 439 446 m 638 499 q 638 474 638 499 q 636 467 638 469 q 557 351 621 408 q 543 339 550 344 q 254 215 392 217 q 135 260 188 215 q 82 372 83 306 l 82 736 l -19 736 l -19 883 l 967 883 l 967 736 l 249 736 l 249 703 q 481 669 249 703 q 640 643 556 658 q 847 538 803 615 q 869 444 869 497 q 846 264 869 375 q 844 260 844 261 q 766 166 833 211 q 638 100 699 121 l 576 81 l 854 -42 l 815 -154 q 636 -104 815 -154 q 294 17 463 -50 l 294 161 q 467 214 294 161 q 685 324 667 281 q 703 446 703 371 q 683 482 703 471 q 672 486 678 485 l 638 499 z "},"ঙ":{"ha":1056,"x_min":69,"x_max":986,"o":"m 610 557 l 610 500 q 785 507 611 500 q 963 425 910 507 q 986 336 986 385 q 882 136 986 236 q 597 1 760 18 q 556 0 575 0 q 331 97 435 -1 q 283 150 304 122 q 155 349 208 247 q 86 506 101 451 l 69 558 l 167 594 q 336 350 167 594 q 403 258 375 294 q 560 144 492 144 q 760 222 657 144 q 824 300 822 271 q 767 363 824 349 q 736 365 751 365 l 443 365 l 443 569 q 303 632 443 569 q 294 636 299 635 q 233 669 233 669 l 283 769 l 444 701 q 483 843 446 803 q 657 885 525 885 q 838 853 794 885 q 883 735 883 819 q 815 567 883 597 q 761 557 792 557 l 610 557 m 606 679 l 682 679 q 743 694 735 679 q 747 715 747 703 q 722 756 747 747 q 669 760 704 760 q 613 736 621 760 q 606 679 606 719 z "},"ন":{"ha":896,"x_min":-19,"x_max":910,"o":"m 642 351 q 485 407 642 351 q 328 443 374 443 q 260 401 278 443 q 253 371 253 386 q 288 299 253 347 q 358 213 324 250 l 393 176 l 324 86 q 217 161 324 86 q 150 218 172 196 q 90 385 92 282 q 147 525 90 464 q 160 538 154 532 q 313 601 233 601 q 453 578 371 601 q 589 533 535 556 l 642 510 l 642 736 l -19 736 l -19 883 l 910 883 l 910 736 l 808 736 l 808 0 l 642 0 l 642 351 z "},"ণ":{"ha":889,"x_min":104,"x_max":906,"o":"m 806 883 l 906 883 l 906 736 l 808 736 l 808 0 l 642 0 l 642 588 q 549 632 642 588 q 372 676 440 676 q 288 613 322 676 q 274 567 274 586 q 308 489 274 539 q 378 403 343 439 l 413 367 l 333 278 q 258 325 333 278 q 183 389 211 360 q 104 563 106 475 q 167 733 104 636 q 207 785 189 768 q 363 844 278 843 q 479 829 422 844 q 568 802 528 817 q 625 779 608 788 l 642 771 l 642 883 l 676 999 l 806 999 l 806 883 z "},"গ":{"ha":833,"x_min":43,"x_max":850,"o":"m 221 168 q 319 217 221 168 q 468 356 467 300 q 449 482 468 413 q 413 561 431 544 q 368 583 399 571 q 325 599 357 589 q 225 649 226 632 q 247 701 225 679 q 269 713 258 711 q 396 689 308 713 l 567 646 l 567 0 l 733 0 l 733 736 l 850 736 l 850 883 l 715 883 l 683 975 l 563 975 l 568 883 l 568 793 q 438 833 568 793 q 232 868 310 868 q 136 838 172 867 q 69 718 107 813 q 43 606 43 649 q 171 499 43 547 q 226 479 189 492 q 283 458 267 465 q 321 389 321 442 q 315 377 321 385 q 301 361 310 369 q 280 343 292 353 q 255 324 268 333 q 228 306 242 315 q 203 288 215 296 q 183 275 192 281 q 168 266 174 269 q 163 263 163 263 l 221 168 z "},"প":{"ha":889,"x_min":-37,"x_max":910,"o":"m 644 478 l 628 496 l 379 282 l 286 294 l 115 521 l 50 476 l -37 601 q 25 664 -37 601 q 224 815 121 751 q 363 864 303 864 q 486 831 438 863 q 644 707 588 761 l 644 883 l 638 975 l 757 975 l 796 883 l 908 883 l 908 736 l 811 736 l 811 0 l 644 0 l 644 478 m 538 599 q 494 636 536 600 q 376 694 422 693 q 297 661 344 694 q 293 658 294 660 l 226 610 l 354 450 l 538 599 z "},"ল":{"ha":1069,"x_min":-19,"x_max":1085,"o":"m 817 381 q 800 472 817 456 q 747 489 783 489 q 656 469 679 489 q 615 381 629 444 l 599 249 l 468 249 l 463 347 q 411 475 458 453 q 317 488 385 488 q 235 433 246 488 q 231 390 231 415 q 244 299 231 361 q 269 192 257 238 l 283 144 l 174 104 q 132 183 174 104 q 64 446 64 329 q 201 629 64 586 q 290 642 244 642 q 496 608 443 642 q 546 544 533 585 q 682 635 583 625 q 732 636 703 636 q 817 604 792 636 l 817 736 l -19 736 l -19 883 l 1085 883 l 1085 736 l 983 736 l 983 0 l 817 0 l 817 381 z "},"দ":{"ha":799,"x_min":-15,"x_max":819,"o":"m 79 736 l 79 390 l 165 282 l 515 442 l 449 -49 l 615 -49 l 700 613 l 600 665 l 246 513 l 246 736 l 819 736 l 819 883 l -15 883 l -15 736 l 79 736 z "},"শ":{"ha":931,"x_min":-14,"x_max":942,"o":"m 829 883 l 942 883 l 942 736 l 844 736 l 844 0 l 678 0 l 678 665 q 601 726 678 710 q 557 731 579 731 q 449 617 450 728 q 464 517 449 539 q 499 486 476 500 q 624 428 547 457 l 590 314 q 504 335 590 314 q 471 346 485 340 q 423 367 446 356 q 390 386 400 379 l 381 393 q 344 368 381 393 q 289 342 319 354 q 135 314 232 319 l 104 433 q 188 465 104 433 q 210 475 200 469 q 272 549 263 500 q 278 625 278 574 q 238 713 278 697 q 206 719 224 718 l -14 736 l -14 883 l 247 883 q 364 842 325 883 q 372 832 369 836 q 513 881 415 881 q 678 836 594 879 l 678 883 l 713 996 l 829 996 l 829 883 z "},"ম":{"ha":875,"x_min":-24,"x_max":890,"o":"m 636 417 l 636 736 l 328 736 q 407 690 329 735 q 507 550 506 631 l 497 479 l 636 417 m 133 736 l -24 736 l -24 883 l 890 883 l 890 736 l 803 736 l 803 0 l 636 0 l 636 257 q 394 346 636 257 q 342 360 350 360 q 299 324 318 360 q 297 321 297 321 q 282 275 282 290 q 304 240 283 260 l 406 150 l 344 65 q 264 104 344 65 q 185 157 217 131 q 131 244 142 192 q 128 264 128 256 q 164 400 129 343 q 285 510 219 490 q 306 513 297 513 l 351 510 q 356 544 351 513 q 318 590 356 564 q 314 593 315 592 l 121 708 l 133 736 z "},"স":{"ha":1003,"x_min":-14,"x_max":1018,"o":"m 750 435 l 750 736 l 311 736 q 369 706 313 735 q 547 578 514 624 q 566 544 558 563 q 575 517 574 526 l 578 506 q 643 488 600 506 q 718 453 686 469 l 750 435 m 197 736 l -14 736 l -14 883 l 1018 883 l 1018 736 l 917 736 l 917 0 l 750 0 l 750 261 q 735 269 749 263 q 588 329 621 328 q 549 300 564 329 q 538 276 543 289 q 350 106 465 107 q 242 130 307 106 q 133 178 176 154 l 89 203 l 133 324 q 275 276 133 324 q 297 272 292 272 q 346 290 331 272 q 396 381 361 308 l 397 382 q 421 461 419 431 q 342 558 419 501 l 171 681 l 197 736 z "},"জ":{"ha":1319,"x_min":-21,"x_max":1339,"o":"m 451 736 l 451 365 q 676 379 451 365 q 696 379 688 379 q 799 365 782 379 q 810 335 810 354 q 732 232 810 303 q 694 199 714 214 q 579 143 624 143 q 417 247 503 143 q 408 258 413 254 l 154 586 l 57 536 q 101 442 57 536 q 289 150 178 294 q 500 -1 375 38 q 575 -14 542 -14 q 725 39 651 -14 q 767 69 743 50 q 950 286 890 167 q 981 399 981 349 q 826 504 981 492 q 721 507 789 507 q 673 506 699 507 q 632 503 647 504 l 618 500 l 618 592 q 974 507 618 592 q 997 501 988 504 q 1056 426 1060 483 q 1046 372 1054 406 l 921 -50 l 1085 -50 l 1208 396 q 1217 453 1217 426 q 994 649 1215 581 q 848 681 942 665 q 686 706 754 697 l 618 713 l 618 736 l 1339 736 l 1339 883 l -21 883 l -21 736 l 451 736 z "},"ও":{"ha":1007,"x_min":75,"x_max":938,"o":"m 588 736 l 351 736 l 340 856 q 461 875 340 856 q 600 883 535 883 q 856 796 814 883 q 864 758 864 779 q 861 671 864 706 q 832 525 851 550 q 825 519 828 521 q 926 389 897 492 q 938 322 938 353 q 831 131 938 238 q 708 36 775 76 q 568 0 647 0 q 264 189 392 3 q 203 287 233 233 q 150 385 172 340 q 110 467 128 429 q 83 528 93 506 l 75 549 l 161 600 l 350 333 q 506 176 443 201 q 547 168 526 168 q 690 221 622 168 q 694 225 693 224 q 771 339 771 290 q 729 417 771 379 q 665 443 697 443 l 511 443 l 511 582 l 642 582 q 696 604 686 582 q 706 658 701 618 q 693 726 711 714 q 588 736 675 736 z "},"ঔ":{"ha":1146,"x_min":75,"x_max":1079,"o":"m 896 457 q 919 413 896 457 q 938 322 938 365 q 831 131 938 238 q 708 36 775 76 q 568 0 647 0 q 264 189 392 3 q 203 287 233 233 q 150 385 172 340 q 110 467 128 429 q 83 528 93 506 l 75 549 l 161 600 l 350 333 q 506 176 443 201 q 547 168 526 168 q 690 221 622 168 q 694 225 693 224 q 771 339 771 290 q 729 417 771 379 q 665 443 697 443 l 511 443 l 511 582 l 642 582 q 696 604 686 582 q 706 658 701 618 q 693 726 711 714 q 588 736 675 736 l 351 736 l 340 856 q 461 875 340 856 q 600 883 535 883 q 856 796 814 883 q 864 758 864 779 q 861 671 864 706 l 854 596 q 935 685 931 606 l 931 1026 l 1056 1032 q 1079 654 1056 1032 q 1079 626 1079 638 q 958 465 1079 499 q 896 457 928 457 z "},"ঈ":{"ha":1083,"x_min":-19,"x_max":1108,"o":"m 111 493 l 81 613 q 242 656 81 613 q 393 679 343 679 q 522 625 472 679 q 554 540 554 588 q 544 478 554 511 q 525 425 535 444 l 515 407 l 796 581 l 953 581 l 967 442 l 872 407 l 793 -162 l 626 -162 l 697 321 l 203 22 l 144 143 l 236 235 q 329 374 236 235 q 389 490 388 465 q 335 531 381 529 q 111 493 272 531 m 799 883 q 769 943 799 933 q 710 947 751 947 l 99 947 l 93 1063 q 504 1079 93 1063 q 747 1082 638 1082 q 953 996 917 1082 q 967 883 967 960 l 1108 883 l 1108 736 l -19 736 l -19 883 l 799 883 z "},"ঌ":{"ha":903,"x_min":22,"x_max":829,"o":"m 217 58 l 107 17 q 68 96 107 17 q 57 132 60 118 q 142 333 24 283 q 197 350 167 343 q 457 333 386 392 q 511 225 499 297 q 522 158 522 158 q 607 174 524 158 q 671 240 669 189 q 656 306 669 281 q 504 417 639 329 q 281 592 324 533 q 258 646 258 621 q 367 851 258 738 q 451 925 408 894 l 531 840 q 422 685 424 725 q 540 582 422 657 q 739 450 700 481 q 797 386 781 414 q 829 199 825 328 q 713 47 829 99 q 638 25 676 32 q 426 0 568 11 l 401 113 q 350 214 383 197 q 265 214 321 226 q 199 154 201 199 q 217 58 197 129 z "},"ঠ":{"ha":806,"x_min":-19,"x_max":824,"o":"m 733 313 q 640 136 733 235 q 413 3 532 24 q 374 0 393 0 q 169 149 276 0 q 57 393 79 276 q 53 432 53 415 q 131 471 53 432 q 243 551 200 510 q 267 617 267 576 q 194 736 267 656 l -19 736 l -19 883 l 188 883 q 196 914 188 883 q 224 954 207 935 q 319 1044 257 990 q 428 1133 382 1097 l 474 1168 l 546 1085 q 367 914 544 1083 q 347 883 353 900 l 824 883 l 824 736 l 381 736 q 475 639 381 722 q 694 414 643 493 q 733 313 733 356 m 560 313 q 516 381 560 331 q 428 472 472 432 l 383 514 q 347 464 383 514 q 333 447 340 454 q 286 403 314 426 q 242 369 258 381 l 224 357 q 275 275 224 357 q 390 171 347 172 q 521 244 453 171 q 560 313 560 288 z "},"A":{"ha":961,"x_min":47,"x_max":942,"o":"m 47 0 l 390 1017 l 611 1017 l 942 0 l 735 0 l 663 225 l 329 225 l 256 0 l 47 0 m 381 397 l 617 397 l 503 761 l 381 397 z "},"B":{"ha":839,"x_min":83,"x_max":807,"o":"m 85 0 l 85 1017 l 504 1017 q 775 849 722 1017 q 790 744 790 800 q 721 561 790 622 q 651 528 690 535 q 782 419 739 511 q 807 299 807 365 q 550 1 807 21 q 507 0 529 0 l 85 0 m 279 172 l 500 171 q 613 307 611 175 q 536 444 613 421 q 500 450 519 450 l 279 450 l 279 172 m 279 614 l 492 614 q 597 707 586 614 q 599 729 599 718 q 492 844 590 840 l 279 844 l 279 614 z "},"C":{"ha":793,"x_min":57,"x_max":758,"o":"m 58 511 q 158 935 58 819 q 404 1028 242 1028 q 758 982 603 1028 l 758 829 q 754 829 758 829 q 450 849 574 849 q 311 810 349 849 q 253 529 254 751 q 253 508 253 518 q 314 222 253 290 q 450 171 360 171 l 758 182 l 758 31 q 404 -8 621 -11 q 83 264 147 -6 q 58 511 58 367 z "},"D":{"ha":919,"x_min":83,"x_max":869,"o":"m 85 0 l 85 1017 l 517 1017 q 869 504 868 1015 q 664 31 869 128 q 517 0 599 0 l 85 0 m 279 174 l 501 174 q 675 506 674 176 q 581 826 675 772 q 501 844 549 844 l 279 844 l 279 174 z "},"E":{"ha":788,"x_min":81,"x_max":750,"o":"m 81 200 l 81 806 q 236 1011 81 981 q 301 1017 267 1017 q 667 1001 301 1017 q 749 994 724 997 l 749 833 l 347 833 q 276 783 282 833 q 275 756 275 774 l 275 597 l 686 583 l 686 422 l 275 410 l 275 251 q 328 181 275 186 q 361 179 339 179 l 749 179 l 749 19 q 315 -4 669 8 q 85 149 113 -12 q 81 200 81 172 z "},"F":{"ha":788,"x_min":81,"x_max":750,"o":"m 81 0 l 81 803 q 215 1006 81 965 q 301 1017 256 1018 q 667 1001 301 1017 q 749 994 724 997 l 749 833 l 347 833 q 276 783 282 833 q 275 756 275 774 l 275 597 l 686 583 l 686 422 l 275 410 l 275 0 l 81 0 z "},"G":{"ha":853,"x_min":57,"x_max":797,"o":"m 58 514 q 156 935 58 819 q 390 1028 235 1028 q 743 992 586 1028 q 781 983 763 988 l 781 832 q 760 835 779 832 q 436 856 565 856 q 286 776 324 856 q 253 511 253 704 q 293 231 253 294 q 426 175 331 176 q 513 191 469 175 q 579 222 557 207 l 601 239 l 601 421 l 460 421 l 460 544 q 701 578 543 578 q 796 575 747 578 l 796 0 l 657 0 l 604 68 q 421 -6 535 4 q 389 -7 404 -7 q 93 199 160 -15 q 58 514 58 311 z "},"H":{"ha":883,"x_min":83,"x_max":822,"o":"m 85 0 l 85 1017 l 279 1017 l 279 581 l 628 581 l 628 1017 l 822 1017 l 822 0 l 628 0 l 628 403 l 279 403 l 279 0 l 85 0 z "},"I":{"ha":340,"x_min":83,"x_max":279,"o":"m 85 0 l 85 1017 l 279 1017 l 279 0 l 85 0 z "},"J":{"ha":494,"x_min":36,"x_max":433,"o":"m 38 32 l 40 183 q 189 192 154 174 q 239 314 238 218 l 239 1017 l 433 1017 l 433 229 q 365 29 433 79 q 360 25 363 26 q 164 -4 293 -17 q 38 32 82 4 z "},"K":{"ha":872,"x_min":83,"x_max":838,"o":"m 85 0 l 85 1017 l 271 1017 l 271 592 l 353 592 l 611 1017 l 838 1017 l 526 507 l 838 0 l 611 0 l 353 419 l 272 419 l 272 0 l 85 0 z "},"L":{"ha":749,"x_min":83,"x_max":714,"o":"m 85 197 l 85 1017 l 279 1017 l 279 251 q 332 181 279 188 q 365 179 343 179 l 714 179 l 714 0 l 296 0 q 85 197 86 3 z "},"M":{"ha":1176,"x_min":57,"x_max":1121,"o":"m 58 0 l 147 1017 l 418 1017 l 588 322 l 756 1017 l 1025 1017 l 1119 0 l 928 0 l 861 679 l 697 0 l 481 0 l 310 679 l 250 0 l 58 0 z "},"N":{"ha":942,"x_min":83,"x_max":881,"o":"m 85 0 l 85 1017 l 282 1017 l 685 360 l 685 1017 l 879 1017 l 879 0 l 685 0 l 281 650 l 281 0 l 85 0 z "},"O":{"ha":932,"x_min":68,"x_max":886,"o":"m 69 501 q 211 963 69 858 q 478 1024 301 1022 q 736 969 656 1024 q 885 576 871 881 q 886 501 886 539 q 757 63 886 167 q 478 -6 664 -4 q 217 46 297 -6 q 72 394 90 126 q 69 501 69 444 m 264 501 q 307 231 264 293 q 456 174 346 178 q 478 174 467 174 q 640 226 597 174 q 692 501 690 292 q 636 800 692 738 q 499 844 599 842 q 478 844 488 844 q 333 814 372 844 q 264 567 271 764 q 264 501 264 536 z "},"P":{"ha":836,"x_min":71,"x_max":792,"o":"m 71 0 l 71 1017 l 508 1017 q 775 833 726 1017 q 790 703 790 775 q 568 376 790 394 q 508 375 540 374 q 279 400 406 381 q 265 403 268 403 l 265 0 l 71 0 m 265 547 l 493 547 q 588 629 571 547 q 594 701 594 658 q 493 844 592 843 l 265 844 l 265 547 z "},"Q":{"ha":932,"x_min":68,"x_max":886,"o":"m 69 501 q 207 961 69 856 q 476 1024 301 1022 q 738 969 656 1024 q 885 567 874 878 q 886 501 886 535 q 757 64 886 169 q 490 -6 675 -3 q 476 -6 483 -6 q 215 46 296 -6 q 72 394 90 126 q 69 501 69 444 m 264 501 q 307 231 264 293 q 454 174 344 178 q 476 174 465 174 q 640 228 597 174 q 692 501 690 294 q 635 800 692 736 q 497 844 597 842 q 476 844 488 844 q 333 814 372 844 q 264 574 272 767 q 264 501 264 540 m 417 -46 l 526 -46 q 753 -85 579 -132 l 753 -242 q 524 -215 624 -271 q 417 -46 425 -160 z "},"R":{"ha":843,"x_min":71,"x_max":824,"o":"m 71 0 l 71 1017 l 515 1017 q 792 743 774 1017 q 793 700 793 721 q 665 413 793 465 q 631 400 653 407 l 824 0 l 604 0 l 436 385 l 265 404 l 265 0 l 71 0 m 267 557 l 497 557 q 581 596 563 557 q 597 700 597 631 q 526 840 597 825 q 497 844 513 843 l 267 844 l 267 557 z "},"S":{"ha":819,"x_min":68,"x_max":775,"o":"m 69 675 l 69 763 q 300 1022 69 1001 q 344 1025 322 1025 q 713 992 553 1029 q 738 985 726 988 l 738 832 q 397 846 581 846 q 285 822 310 847 q 264 747 264 799 l 264 697 q 308 607 264 624 q 372 600 332 600 l 533 600 q 764 421 722 600 q 774 331 774 378 l 774 263 q 539 -10 774 11 q 493 -11 517 -11 q 100 31 242 -11 l 100 183 q 454 168 253 168 q 578 239 568 168 q 579 256 579 247 l 579 310 q 524 401 579 388 q 488 406 507 406 l 332 406 q 69 675 69 407 z "},"T":{"ha":824,"x_min":43,"x_max":796,"o":"m 43 838 l 43 1017 l 794 1017 l 794 838 l 513 838 l 513 0 l 318 0 l 318 838 l 43 838 z "},"U":{"ha":922,"x_min":83,"x_max":861,"o":"m 85 444 l 85 1017 l 279 1017 l 279 444 q 333 210 279 260 q 476 172 375 172 q 626 235 588 172 q 665 444 665 297 l 665 1017 l 861 1017 l 861 444 q 675 19 861 93 q 476 -7 610 -7 q 276 11 333 -7 q 99 258 135 57 q 85 444 85 339 z "},"V":{"ha":951,"x_min":47,"x_max":926,"o":"m 47 1017 l 254 1017 l 481 256 l 719 1017 l 926 1017 l 592 0 l 367 0 l 47 1017 z "},"W":{"ha":1378,"x_min":47,"x_max":1354,"o":"m 47 1017 l 254 1017 l 479 263 l 663 1017 l 871 1017 l 800 754 l 961 258 l 1147 1017 l 1353 1017 l 1074 0 l 849 0 l 711 417 l 592 0 l 367 0 l 47 1017 z "},"X":{"ha":890,"x_min":47,"x_max":865,"o":"m 47 1017 l 263 1017 l 454 669 l 650 1017 l 865 1017 l 560 510 l 858 0 l 643 0 l 454 342 l 267 0 l 51 0 l 350 510 l 47 1017 z "},"Y":{"ha":911,"x_min":47,"x_max":886,"o":"m 47 1017 l 258 1017 l 457 529 l 675 1017 l 886 1017 l 551 315 l 551 0 l 357 0 l 357 315 l 47 1017 z "},"Z":{"ha":772,"x_min":36,"x_max":738,"o":"m 38 0 l 38 179 l 503 838 l 38 838 l 38 1017 l 738 1017 l 738 838 l 294 179 l 738 179 l 738 0 l 38 0 z "},"a":{"ha":721,"x_min":42,"x_max":669,"o":"m 42 188 l 42 257 q 156 442 42 397 q 258 460 200 460 q 475 460 258 460 q 475 507 475 460 q 422 594 475 581 q 376 597 404 597 q 67 582 286 597 l 67 701 q 403 751 192 750 q 660 600 619 753 q 669 514 669 561 l 669 0 l 515 0 l 475 81 q 403 31 465 63 q 250 -8 324 -10 q 64 97 115 -4 q 42 188 42 140 m 236 215 q 286 149 236 154 q 306 147 294 149 q 384 162 342 147 q 450 190 426 176 l 475 206 l 475 340 l 296 326 q 236 251 238 319 l 236 215 z "},"b":{"ha":772,"x_min":63,"x_max":722,"o":"m 64 0 l 64 1090 l 257 1090 l 257 700 q 481 749 363 747 q 694 604 646 749 q 721 365 721 521 q 533 -4 721 33 q 481 -8 508 -8 q 274 63 374 -8 q 258 75 265 68 l 224 0 l 64 0 m 258 203 q 431 158 329 158 q 515 243 496 158 q 526 372 526 293 q 472 588 526 557 q 431 596 456 596 q 258 568 329 596 l 258 203 z "},"c":{"ha":686,"x_min":51,"x_max":646,"o":"m 53 369 q 190 725 53 665 q 296 744 235 744 q 635 701 500 744 l 635 581 q 406 588 635 581 q 379 589 392 588 q 286 565 308 589 q 247 365 247 525 q 288 172 247 210 q 379 150 315 150 q 503 153 436 150 q 607 160 569 156 l 644 163 l 644 40 q 378 -7 554 -6 q 344 -7 367 -7 q 296 -7 313 -7 q 85 138 138 -7 q 53 369 53 225 z "},"d":{"ha":772,"x_min":51,"x_max":711,"o":"m 53 365 q 115 676 53 594 q 293 749 174 749 q 511 703 407 749 q 517 700 515 701 l 517 1090 l 711 1090 l 711 0 l 550 0 l 517 75 q 331 -6 435 8 q 293 -8 311 -8 q 65 208 106 -8 q 53 365 53 276 m 247 372 q 315 163 247 186 q 344 158 329 158 q 517 203 446 158 l 517 568 q 344 596 443 596 q 265 538 285 596 q 247 372 247 483 z "},"f":{"ha":560,"x_min":21,"x_max":540,"o":"m 21 589 l 21 714 l 136 738 l 136 875 q 321 1090 136 1075 q 354 1092 338 1092 q 540 1058 458 1092 l 540 943 l 407 944 q 336 906 347 946 q 331 829 331 886 l 331 738 l 499 738 l 499 589 l 331 589 l 331 0 l 136 0 l 136 589 l 21 589 z "},"g":{"ha":778,"x_min":49,"x_max":758,"o":"m 49 142 q 122 268 49 238 q 135 274 129 272 q 54 461 60 321 q 54 478 54 469 q 310 740 56 739 l 758 740 l 758 624 l 676 599 q 703 492 700 543 q 704 454 704 474 q 578 231 704 286 q 451 207 524 207 l 281 207 q 225 175 226 204 q 281 138 226 138 l 507 138 q 718 -11 683 138 q 725 -82 725 -44 l 725 -161 q 569 -368 725 -333 q 494 -375 535 -375 l 286 -375 q 79 -268 133 -375 q 56 -161 56 -222 l 56 -68 l 121 0 q 50 122 58 35 q 49 142 49 133 m 251 -137 q 306 -217 251 -207 q 339 -219 319 -218 l 453 -219 q 529 -168 522 -219 q 532 -142 532 -156 l 532 -87 q 465 -19 532 -24 q 460 -19 461 -19 l 310 -19 l 251 -15 l 251 -137 m 249 478 q 338 364 250 365 l 415 364 q 510 478 510 365 q 456 579 507 564 q 414 585 438 583 l 340 585 q 249 501 257 585 q 249 478 249 490 z "},"h":{"ha":764,"x_min":63,"x_max":713,"o":"m 64 0 l 64 1088 l 257 1088 l 257 658 q 399 738 343 721 q 492 750 443 750 q 713 492 711 747 l 713 0 l 518 0 l 518 494 q 436 594 515 593 q 279 544 349 594 q 258 531 268 538 l 258 0 l 64 0 z "},"i":{"ha":315,"x_min":51,"x_max":264,"o":"m 53 847 l 53 969 q 86 1006 56 1003 l 232 1006 q 263 969 261 1003 l 263 847 q 232 815 261 817 l 86 815 q 53 847 56 819 m 60 0 l 60 738 l 254 738 l 254 0 l 60 0 z "},"j":{"ha":336,"x_min":63,"x_max":275,"o":"m 64 847 l 64 969 q 97 1006 67 1003 l 243 1006 q 275 969 274 1003 l 275 847 q 243 815 272 817 l 97 815 q 64 847 67 819 m 72 -375 l 72 738 l 267 738 l 267 -6 q 215 -375 268 -256 l 72 -375 z "},"k":{"ha":774,"x_min":63,"x_max":754,"o":"m 64 0 l 64 1086 l 258 1086 l 258 490 l 299 490 l 507 738 l 754 738 l 478 417 l 754 0 l 522 0 l 299 342 l 258 342 l 258 0 l 64 0 z "},"l":{"ha":435,"x_min":63,"x_max":415,"o":"m 64 263 l 64 1088 l 258 1088 l 258 293 q 303 158 258 185 q 322 149 311 153 q 415 119 322 149 l 415 0 l 254 0 q 75 142 110 0 q 64 263 64 193 z "},"m":{"ha":1215,"x_min":63,"x_max":1165,"o":"m 64 0 l 64 738 l 219 738 l 258 658 q 382 732 340 717 q 488 749 431 747 q 679 653 629 747 q 944 749 810 747 q 1164 489 1163 746 l 1164 0 l 969 0 l 969 492 q 888 592 968 590 q 707 533 776 590 q 708 513 707 531 q 708 490 708 494 l 708 0 l 514 0 l 514 492 q 432 592 510 589 q 282 546 349 592 q 258 529 269 538 l 258 0 l 64 0 z "},"n":{"ha":764,"x_min":63,"x_max":713,"o":"m 64 0 l 64 738 l 219 738 l 258 658 q 393 736 343 719 q 492 750 439 750 q 713 492 711 747 l 713 0 l 518 0 l 518 494 q 436 594 515 593 q 279 544 349 594 q 258 531 268 538 l 258 0 l 64 0 z "},"o":{"ha":778,"x_min":51,"x_max":726,"o":"m 53 358 q 138 674 53 593 q 389 744 211 744 q 657 656 585 744 q 725 358 725 571 q 644 64 725 142 q 389 -7 569 -7 q 110 96 182 -7 q 53 358 53 179 m 247 358 q 292 171 247 206 q 389 150 319 150 q 497 176 472 150 q 531 358 531 214 q 499 558 531 519 q 389 589 471 588 q 281 557 306 589 q 247 358 247 517 z "},"p":{"ha":772,"x_min":63,"x_max":722,"o":"m 64 -375 l 64 738 l 224 738 l 257 664 q 442 743 339 728 q 481 746 461 746 q 721 421 706 746 q 721 372 721 396 q 639 46 721 129 q 481 -11 582 -11 q 263 33 367 -11 q 257 36 260 36 l 257 -375 l 64 -375 m 257 169 q 431 142 331 142 q 510 200 489 142 q 526 364 526 254 q 460 575 526 551 q 431 579 446 579 q 257 535 328 579 l 257 169 z "},"q":{"ha":771,"x_min":51,"x_max":708,"o":"m 53 372 q 322 746 54 744 q 688 708 526 746 q 708 704 700 707 l 708 -375 l 514 -375 l 514 40 q 322 -14 433 -14 q 83 139 139 -14 q 53 372 53 225 m 247 378 q 268 190 247 233 q 360 139 294 140 q 508 168 438 139 q 514 169 513 168 l 514 597 l 361 597 q 247 421 254 597 q 247 378 247 403 z "},"r":{"ha":579,"x_min":63,"x_max":553,"o":"m 64 0 l 64 738 l 228 738 l 258 644 q 469 744 363 744 q 551 736 529 744 l 551 549 q 444 553 511 553 q 286 503 338 553 q 258 471 271 488 l 258 0 l 64 0 z "},"s":{"ha":706,"x_min":42,"x_max":665,"o":"m 42 482 l 42 546 q 233 744 44 743 q 628 707 561 744 l 628 585 l 293 585 q 238 556 244 585 q 236 533 236 546 l 236 500 q 271 453 236 457 q 293 453 279 453 l 468 453 q 658 317 629 453 q 664 263 664 290 l 664 186 q 524 -4 664 19 q 483 -7 504 -7 q 72 33 135 -7 l 72 154 l 421 154 q 469 201 468 158 l 469 236 q 436 283 469 278 q 421 283 428 283 l 249 283 q 43 460 53 283 q 42 482 42 471 z "},"t":{"ha":529,"x_min":21,"x_max":500,"o":"m 21 590 l 21 699 l 140 739 l 172 944 l 335 944 l 335 739 l 500 739 l 500 590 l 335 590 l 335 294 q 378 157 335 183 q 397 149 388 153 q 490 119 399 149 l 490 0 l 321 0 q 140 264 142 3 l 140 590 l 21 590 z "},"u":{"ha":764,"x_min":51,"x_max":701,"o":"m 53 247 l 53 738 l 247 738 l 247 243 q 329 144 249 144 q 486 193 417 144 q 507 208 496 200 l 507 738 l 701 738 l 701 0 l 544 0 l 507 78 q 469 56 494 71 q 329 -8 388 1 q 272 -12 301 -12 q 53 247 54 -10 z "},"v":{"ha":783,"x_min":21,"x_max":764,"o":"m 21 738 l 229 738 l 390 228 l 556 738 l 764 738 l 496 0 l 278 0 l 21 738 z "},"w":{"ha":1147,"x_min":21,"x_max":1128,"o":"m 21 738 l 229 738 l 376 228 l 508 738 l 703 738 l 651 539 l 774 228 l 919 738 l 1128 738 l 889 0 l 672 0 l 561 267 l 478 0 l 257 0 l 21 738 z "},"x":{"ha":794,"x_min":25,"x_max":769,"o":"m 25 0 l 281 369 l 25 738 l 261 738 l 396 517 l 535 738 l 769 738 l 511 365 l 758 0 l 535 0 l 397 218 l 261 0 l 25 0 z "},"y":{"ha":803,"x_min":22,"x_max":779,"o":"m 22 738 l 226 738 l 354 221 q 428 167 371 168 l 575 738 l 778 738 l 522 -233 l 421 -375 l 282 -375 l 386 0 q 167 188 217 3 l 22 738 z "},"z":{"ha":658,"x_min":31,"x_max":628,"o":"m 32 574 l 32 738 l 628 738 l 628 574 l 311 165 l 628 165 l 628 1 l 53 1 l 53 164 l 383 574 l 32 574 z "},"া":{"ha":389,"x_min":-1278,"x_max":407,"o":"m -1278 883 m 11 883 l 111 872 l 106 975 l 226 975 l 258 883 l 407 883 l 407 736 l 274 736 l 274 0 l 107 0 l 107 736 l -71 736 l -71 883 l 11 883 z "},"ি":{"ha":382,"x_min":-18,"x_max":1047,"o":"m 300 883 l 404 883 l 404 736 l 311 736 l 311 0 l 144 0 l 144 736 l -18 736 l -18 883 l 64 883 l 154 872 q 113 978 113 901 l 113 1090 q 247 1249 113 1232 q 288 1250 267 1250 q 625 1194 383 1250 q 1047 1082 811 1151 l 1013 969 l 469 1079 q 357 1097 469 1079 q 340 1099 347 1099 q 276 1079 286 1099 q 271 1049 271 1067 l 271 981 q 278 906 271 918 q 300 883 286 892 z "},"ী":{"ha":458,"x_min":-681,"x_max":476,"o":"m 149 736 l -18 736 l -18 883 l 143 883 q 142 928 143 907 q 136 975 140 949 q 125 1024 132 1001 q 106 1068 118 1046 q 78 1105 94 1090 q 36 1129 61 1119 q -19 1139 11 1139 q -481 1124 -240 1139 q -487 1124 -485 1124 q -540 1110 -535 1119 q -543 1088 -543 1103 q -524 1068 -543 1071 q -317 1065 -507 1065 q -68 1015 -125 1065 q -24 882 -24 974 l -172 882 q -224 936 -172 925 q -400 944 -262 944 q -633 961 -592 944 q -679 1033 -674 978 q -681 1088 -681 1054 q -643 1224 -681 1194 q -524 1251 -611 1246 q -7 1278 -515 1251 q 303 872 303 1276 l 394 883 l 476 883 l 476 736 l 315 736 l 315 0 l 149 0 l 149 736 z "},"ে":{"ha":410,"x_min":-93,"x_max":476,"o":"m 288 736 q 190 301 190 404 q 246 178 190 232 q 268 161 258 168 l 476 39 l 428 -72 q 256 -17 428 -72 q 179 17 201 4 q 24 243 44 96 q 21 286 21 265 q 111 732 21 449 l 113 736 l -93 736 l -93 883 l 431 883 l 431 736 l 288 736 z "},"ৈ":{"ha":451,"x_min":-225,"x_max":547,"o":"m 385 883 q 289 1107 385 1054 q 207 1125 253 1125 l -225 1106 l -219 975 l 131 975 q 218 910 208 975 q 219 883 219 897 l -19 883 l -19 736 l 192 736 q 165 653 181 704 q 124 481 150 601 q 99 286 99 361 q 264 25 100 115 q 348 -12 289 11 q 454 -53 407 -36 l 501 -69 l 546 42 l 342 157 q 264 301 265 204 q 358 729 264 465 q 361 736 360 733 l 471 736 l 471 883 l 385 883 z "},"ো":{"ha":1250,"x_min":-464,"x_max":1221,"o":"m 549 351 l 549 476 q 582 511 551 510 l 704 511 q 736 476 735 508 l 736 351 q 704 319 733 321 l 582 319 q 549 351 551 324 m -464 883 m 825 883 l 925 872 l 919 975 l 1040 975 l 1072 883 l 1221 883 l 1221 736 l 1088 736 l 1088 0 l 921 0 l 921 736 l 743 736 l 743 883 l 825 883 m 288 736 q 190 301 190 404 q 246 178 190 232 q 268 161 258 168 l 476 39 l 428 -72 q 256 -17 428 -72 q 179 17 201 4 q 24 243 44 96 q 21 286 21 265 q 111 732 21 449 l 113 736 l -93 736 l -93 883 l 431 883 l 431 736 l 288 736 z "},"ৌ":{"ha":1250,"x_min":-93,"x_max":1265,"o":"m 549 351 l 549 476 q 582 511 551 510 l 704 511 q 736 476 735 508 l 736 351 q 704 319 733 321 l 582 319 q 549 351 551 324 m 1136 883 l 1264 883 l 1264 736 l 1131 736 l 1131 0 l 964 0 l 964 736 l 786 736 l 786 883 l 868 883 l 968 872 q 883 993 965 992 l 408 993 l 399 1121 q 938 1140 399 1121 q 1107 1019 1051 1140 q 1136 883 1136 954 m 288 736 q 190 301 190 404 q 246 178 190 232 q 268 161 258 168 l 476 39 l 428 -72 q 256 -17 428 -72 q 179 17 201 4 q 24 243 44 96 q 21 286 21 265 q 111 732 21 449 l 113 736 l -93 736 l -93 883 l 431 883 l 431 736 l 288 736 z "},"ৗ":{"ha":444,"x_min":-406,"x_max":460,"o":"m 332 883 l 460 883 l 460 736 l 326 736 l 326 0 l 160 0 l 160 736 l -18 736 l -18 883 l 64 883 l 164 872 q 79 993 161 992 l -396 993 l -406 1121 q 133 1140 -406 1121 q 303 1019 247 1140 q 332 883 332 954 z "},"়":{"ha":0,"x_min":-312,"x_max":-125,"o":"m -312 -246 l -312 -121 q -279 -86 -310 -87 l -157 -86 q -125 -121 -126 -89 l -125 -246 q -157 -278 -128 -276 l -279 -278 q -312 -246 -310 -274 z "},"ু":{"ha":0,"x_min":-607,"x_max":82,"o":"m -264 18 l -99 18 l -99 0 l -139 -160 q -62 -219 -118 -171 q 38 -311 -7 -268 l 82 -353 l 22 -433 l -197 -303 q -235 -364 -197 -303 q -339 -444 -294 -443 q -496 -403 -406 -444 q -607 -283 -606 -350 q -564 -136 -607 -221 q -449 -36 -512 -37 q -378 -49 -418 -36 q -315 -75 -339 -62 q -290 -89 -290 -87 l -264 0 l -264 18 m -321 -229 q -371 -199 -321 -229 q -408 -186 -396 -186 q -447 -228 -431 -186 q -453 -247 -453 -240 q -394 -290 -453 -271 q -371 -296 -379 -296 q -321 -229 -347 -296 z "},"ূ":{"ha":0,"x_min":-604,"x_max":131,"o":"m -207 0 l -207 18 l -375 18 l -375 0 l -403 -61 q -476 -53 -407 -61 q -578 -154 -539 -53 q -604 -290 -604 -221 q -487 -407 -604 -351 q -301 -456 -386 -456 q -228 -425 -267 -456 q -167 -364 -189 -394 l -144 -333 l 69 -425 l 131 -328 q -69 -197 131 -328 q -122 -165 -100 -178 l -224 -165 q -260 -228 -224 -165 q -336 -293 -304 -292 q -418 -265 -371 -293 q -442 -239 -440 -250 q -419 -203 -442 -210 q -412 -201 -415 -201 l -317 -229 l -207 0 z "},"ৃ":{"ha":0,"x_min":-551,"x_max":83,"o":"m 19 -537 l -535 -314 l -551 -164 l -176 38 l -92 -107 l -282 -218 q 7 -372 -282 -218 q 83 -415 50 -396 l 19 -537 z "}," ":{"ha":451,"x_min":0,"x_max":0,"o":""},"১":{"ha":854,"x_min":53,"x_max":790,"o":"m 446 789 q 578 657 467 753 q 757 479 715 540 q 790 386 790 428 q 722 158 790 281 q 504 -19 633 -1 q 474 -22 488 -22 q 265 43 371 -22 q 224 69 244 56 q 53 206 146 124 l 143 328 q 311 218 144 326 q 410 174 375 178 q 425 172 418 172 q 546 260 490 172 q 579 350 579 313 q 478 489 579 403 q 438 524 465 501 q 293 668 325 618 q 278 697 283 683 q 261 950 250 764 l 407 964 q 425 853 407 964 q 446 789 435 808 z "},"২":{"ha":828,"x_min":56,"x_max":732,"o":"m 671 354 q 449 226 572 271 l 718 40 l 643 -106 q 493 -25 643 -106 q 56 274 247 117 l 151 426 l 247 369 q 357 399 247 369 q 507 494 507 446 q 386 624 507 549 q 382 626 383 625 q 131 788 126 788 l 201 919 q 429 797 201 919 q 596 694 542 733 q 726 528 706 617 q 731 496 731 511 q 685 368 731 419 q 671 354 678 360 z "},"৩":{"ha":1111,"x_min":56,"x_max":1050,"o":"m 607 -4 q 356 99 472 -4 q 283 171 321 131 q 56 521 185 281 l 161 596 l 365 332 q 597 172 489 174 q 776 275 692 172 q 864 500 864 381 q 764 642 864 601 q 668 660 719 660 l 356 633 l 331 772 q 433 800 331 772 q 739 835 588 835 q 1003 696 917 835 q 1050 531 1050 619 q 976 253 1050 397 q 686 4 871 43 q 607 -4 647 -4 z "},"৪":{"ha":903,"x_min":100,"x_max":811,"o":"m 604 883 q 754 815 719 883 q 772 719 772 778 l 772 633 q 718 503 771 525 q 811 397 806 476 q 811 388 811 392 l 811 172 l 811 167 q 753 21 811 54 q 626 -1 711 -1 l 293 -1 q 121 71 158 -1 q 100 169 100 110 l 100 381 q 199 503 100 471 q 203 504 201 504 q 143 633 143 526 l 143 722 q 272 879 143 861 q 328 883 297 883 l 604 883 m 540 568 q 613 629 611 571 l 613 685 q 558 747 611 742 q 542 749 550 749 l 375 749 q 304 699 311 749 q 303 685 303 692 l 303 628 q 375 568 304 569 l 540 568 m 267 211 q 339 146 267 151 q 361 146 349 146 l 556 146 q 650 213 644 156 l 650 338 q 592 406 650 396 q 556 408 575 408 l 361 408 q 272 371 288 408 q 267 335 267 356 l 267 211 z "},"৬":{"ha":1042,"x_min":71,"x_max":983,"o":"m 432 853 l 588 853 l 588 614 q 774 621 589 614 q 974 519 935 621 q 983 465 983 494 q 904 236 983 365 q 650 17 800 65 q 549 0 600 0 q 326 99 432 0 q 292 135 308 117 q 248 191 269 160 q 208 253 226 222 q 174 315 190 283 q 144 376 157 347 q 118 433 131 406 q 97 483 106 461 q 83 522 89 504 q 74 547 76 539 l 71 557 l 182 608 q 292 415 182 608 q 411 233 365 289 q 574 150 481 150 q 750 274 667 150 q 810 421 808 363 q 749 476 810 468 q 710 478 732 478 l 432 469 l 432 853 z "},"৯":{"ha":972,"x_min":40,"x_max":933,"o":"m 483 -14 q 469 122 483 -14 q 453 211 461 169 q 379 326 428 325 q 303 301 340 325 q 271 231 261 274 q 292 169 275 210 l 328 88 l 218 22 q 129 154 218 22 q 121 169 124 164 q 211 444 42 358 q 228 453 219 449 q 396 496 325 496 q 575 376 514 496 q 579 367 576 372 q 603 302 592 339 q 619 242 615 265 l 625 218 q 675 251 632 218 q 739 343 738 303 q 696 429 739 369 q 592 556 653 489 q 469 688 531 624 q 364 793 407 751 l 321 835 l 425 960 q 796 617 699 726 q 933 350 933 461 q 794 129 933 246 q 540 -7 668 22 q 483 -14 508 -14 z "},"৮":{"ha":993,"x_min":60,"x_max":956,"o":"m 228 433 l 226 303 q 294 175 226 189 q 317 174 306 174 q 524 285 417 174 q 554 318 540 301 q 601 407 600 378 q 521 460 588 457 q 232 433 501 460 q 228 433 229 433 m 60 883 l 226 883 l 226 583 q 325 601 229 583 q 465 620 407 615 q 589 626 524 625 l 654 628 q 736 643 668 628 q 867 672 804 658 l 928 688 l 956 582 q 896 547 956 582 q 774 497 839 518 q 782 471 774 497 q 783 438 783 456 q 749 319 783 381 q 518 78 665 174 q 304 0 400 0 q 60 301 61 3 l 60 883 z "},"৭":{"ha":882,"x_min":69,"x_max":797,"o":"m 583 140 l 583 329 q 354 315 583 329 q 265 314 306 314 q 89 410 136 314 q 69 493 69 449 q 117 635 69 563 q 381 869 217 789 q 528 913 467 913 q 700 825 642 913 q 743 657 743 758 l 743 163 q 797 -3 743 100 l 704 -67 q 663 -26 704 -67 q 583 140 585 63 m 583 469 l 583 610 q 556 718 583 697 q 501 732 536 732 q 340 649 442 731 q 257 532 258 581 q 322 471 257 478 q 338 469 331 469 l 583 469 z "},"০":{"ha":833,"x_min":50,"x_max":779,"o":"m 50 410 q 167 738 50 656 q 419 796 250 796 q 701 711 624 796 q 779 410 779 624 q 653 93 779 171 q 419 43 569 43 q 110 160 190 43 q 50 410 50 247 m 243 410 q 265 238 243 272 q 368 200 288 203 q 419 199 389 199 q 561 219 533 199 q 596 336 593 243 q 597 411 597 363 q 578 594 597 560 q 488 635 558 631 q 425 636 465 636 q 283 615 314 636 q 244 492 249 590 q 243 410 243 461 z "},"৫":{"ha":882,"x_min":114,"x_max":849,"o":"m 308 917 l 311 801 l 619 711 l 686 828 l 828 785 q 767 614 828 785 q 724 431 724 482 q 790 325 724 414 q 849 226 847 249 q 719 110 849 179 q 381 -6 551 18 q 175 33 226 -26 q 114 325 114 107 q 132 603 114 443 q 160 826 150 763 q 178 926 171 889 l 308 917 m 565 574 l 310 646 q 294 479 310 646 q 290 347 290 410 q 314 189 290 217 q 469 194 343 156 q 597 261 575 228 q 601 271 600 267 q 561 339 601 278 q 532 401 532 383 l 565 574 z "},"ঁ":{"ha":0,"x_min":-451,"x_max":168,"o":"m -183 1204 l -269 1271 q -279 1331 -303 1299 l -214 1419 q -150 1425 -187 1451 l -65 1361 q -57 1300 -33 1335 l -124 1213 q -183 1204 -149 1182 m -451 1149 l -365 1250 q -267 1169 -365 1250 q -167 1114 -192 1115 q -146 1119 -156 1114 q 85 1319 -89 1153 l 168 1233 q 90 1132 168 1233 q -69 975 -4 1019 q -167 946 -114 946 q -426 1121 -262 946 q -451 1149 -451 1149 z "},"ং":{"ha":618,"x_min":100,"x_max":624,"o":"m 103 674 q 181 863 103 824 q 310 883 225 883 q 478 833 435 883 q 518 674 518 785 q 433 488 518 526 q 310 467 388 467 q 126 546 169 467 q 103 674 103 593 m 235 678 q 250 613 235 624 q 314 603 267 603 q 383 622 374 603 q 389 676 389 636 q 374 738 389 728 q 314 749 357 749 q 240 725 251 749 q 235 678 235 711 m 100 383 q 113 385 101 383 q 247 400 225 400 q 458 275 369 400 q 478 246 468 261 q 624 -29 586 72 l 507 -76 l 349 133 q 196 233 267 232 l 113 229 l 100 383 z "},"ঃ":{"ha":618,"x_min":101,"x_max":519,"o":"m 103 206 q 181 396 103 357 q 310 417 225 417 q 478 367 435 417 q 518 206 518 318 q 433 19 518 58 q 310 0 388 0 q 126 78 169 0 q 103 206 103 126 m 235 210 q 250 146 235 157 q 314 135 267 136 q 383 156 374 135 q 389 208 389 169 q 374 271 389 260 q 314 281 357 281 q 240 258 251 281 q 235 210 235 244 m 103 674 q 181 863 103 824 q 310 883 225 883 q 478 833 435 883 q 518 674 518 785 q 433 488 518 526 q 310 467 388 467 q 126 546 169 467 q 103 674 103 593 m 235 678 q 250 613 235 624 q 314 603 267 603 q 383 622 374 603 q 389 676 389 636 q 374 738 389 728 q 314 749 357 749 q 240 725 251 749 q 235 678 235 711 z "},"্":{"ha":0,"x_min":-308,"x_max":150,"o":"m -226 -18 q -165 -58 -226 -18 l -164 -60 l -162 -61 q 150 -303 25 -193 l 83 -396 l -308 -153 l -226 -18 z "},"ৎ":{"ha":660,"x_min":76,"x_max":578,"o":"m 554 699 q 317 719 544 699 q 246 554 246 717 q 333 468 246 519 q 378 443 347 460 q 544 326 507 372 q 574 254 574 290 q 550 136 574 211 q 503 8 526 61 l 479 -46 l 350 -14 q 383 138 350 -14 q 394 233 394 200 q 300 313 394 261 q 142 403 171 381 q 76 496 78 451 q 122 810 76 729 q 254 885 167 883 q 397 867 317 885 q 528 833 478 850 l 578 815 l 554 699 z "},":":{"ha":365,"x_min":89,"x_max":278,"o":"m 90 32 l 90 157 q 124 192 93 190 l 243 192 q 278 157 276 189 l 278 32 q 243 0 275 1 l 124 0 q 90 32 93 4 m 90 578 l 90 703 q 124 738 93 736 l 243 738 q 278 703 276 736 l 278 578 q 243 546 275 547 l 124 546 q 90 578 93 551 z "},";":{"ha":367,"x_min":89,"x_max":279,"o":"m 90 35 l 90 156 q 125 193 92 192 l 242 193 q 275 156 274 190 l 275 -15 q 256 -85 275 -58 q 212 -120 238 -112 q 159 -128 186 -128 q 115 -126 132 -129 q 97 -122 99 -124 l 97 -56 q 140 -19 139 -53 l 140 0 l 125 0 q 90 35 94 7 m 92 579 l 92 704 q 125 739 93 738 l 244 739 q 279 704 278 736 l 279 579 q 244 547 276 549 l 125 547 q 92 579 94 551 z "},"<":{"ha":625,"x_min":51,"x_max":574,"o":"m 53 400 l 53 579 l 574 781 l 574 600 l 260 490 l 574 368 l 574 186 l 53 400 z "},"=":{"ha":649,"x_min":28,"x_max":621,"o":"m 28 256 l 28 419 l 621 419 l 621 256 l 28 256 m 28 554 l 28 718 l 621 718 l 621 554 l 28 554 z "},">":{"ha":625,"x_min":51,"x_max":574,"o":"m 53 186 l 53 368 l 367 490 l 53 600 l 53 781 l 574 579 l 574 400 l 53 186 z "},"?":{"ha":753,"x_min":21,"x_max":713,"o":"m 21 846 l 21 992 q 381 1028 225 1032 q 413 1026 397 1026 q 678 890 604 1026 q 713 754 711 829 l 713 653 q 400 396 713 371 q 397 396 399 396 l 397 271 l 240 271 l 240 542 l 399 542 q 519 656 517 550 l 519 729 q 421 842 519 826 q 367 846 396 846 l 21 846 m 225 32 l 225 157 q 258 192 228 190 l 379 192 q 413 157 411 189 l 413 32 q 379 0 410 1 l 258 0 q 225 32 228 4 z "},"[":{"ha":463,"x_min":89,"x_max":444,"o":"m 90 -14 l 90 908 q 297 1168 90 1153 q 325 1169 311 1169 l 443 1169 l 443 1006 l 371 1006 q 285 885 285 1003 l 285 -7 q 371 -128 286 -126 l 443 -128 l 443 -292 l 325 -292 q 90 -35 99 -292 q 90 -14 90 -25 z "},"\\":{"ha":633,"x_min":21,"x_max":614,"o":"m 21 1069 l 222 1069 l 613 -100 l 411 -100 l 21 1069 z "},"]":{"ha":463,"x_min":21,"x_max":375,"o":"m 21 -128 l 94 -128 q 181 -7 179 -125 l 181 885 q 94 1006 178 1004 l 21 1006 l 21 1169 l 140 1169 q 374 944 356 1169 q 375 908 375 926 l 375 -14 q 151 -292 375 -285 q 140 -292 144 -292 l 21 -292 l 21 -128 z "},"^":{"ha":533,"x_min":51,"x_max":482,"o":"m 53 738 l 203 925 l 347 925 l 481 738 l 351 738 l 271 821 l 183 738 l 53 738 m 347 925 z "},"_":{"ha":936,"x_min":28,"x_max":908,"o":"m 28 -1 l 28 163 l 908 163 l 908 -1 l 28 -1 z "},"`":{"ha":338,"x_min":21,"x_max":317,"o":"m 21 931 l 192 931 l 317 738 l 190 738 l 21 931 z "},"!":{"ha":379,"x_min":89,"x_max":288,"o":"m 93 32 l 93 157 q 126 192 94 190 l 249 192 q 281 157 279 189 l 281 32 q 249 0 278 1 l 126 0 q 93 32 96 4 m 90 1015 l 286 1015 l 265 272 l 107 272 l 90 1015 z "},"\"":{"ha":617,"x_min":89,"x_max":529,"o":"m 90 924 l 90 1017 l 278 1017 l 278 924 l 264 738 l 106 738 l 90 924 m 340 924 l 340 1017 l 528 1017 l 528 924 l 514 738 l 356 738 l 340 924 z "},"#":{"ha":1001,"x_min":21,"x_max":983,"o":"m 21 292 l 42 425 l 253 425 l 282 593 l 68 593 l 90 726 l 306 726 l 357 1017 l 490 1017 l 439 726 l 611 726 l 661 1017 l 794 1017 l 744 726 l 982 726 l 963 593 l 724 593 l 694 424 l 933 424 l 915 290 l 667 290 l 615 0 l 482 0 l 533 290 l 361 292 l 310 0 l 176 0 l 228 292 l 21 292 m 386 425 l 561 424 l 590 593 l 415 593 l 386 425 z "},"%":{"ha":1336,"x_min":44,"x_max":1293,"o":"m 44 667 l 44 836 q 142 1004 44 972 q 232 1017 181 1017 l 372 1017 q 549 903 522 1017 q 556 836 556 872 l 556 667 q 458 497 556 529 q 369 485 421 485 l 229 485 q 51 599 78 485 q 44 667 44 629 m 181 689 q 215 625 181 635 q 247 621 229 621 l 350 621 q 417 657 408 621 q 419 689 419 668 l 419 813 q 385 878 419 868 q 353 881 372 881 l 250 881 q 185 849 196 881 q 181 813 181 835 l 181 689 m 289 0 l 910 1017 l 1049 1017 l 433 0 l 289 0 m 782 185 l 782 354 q 876 522 782 490 q 968 536 914 535 l 1108 536 q 1286 422 1260 536 q 1293 354 1293 392 l 1293 185 q 1194 15 1293 47 q 1106 4 1157 4 l 965 4 q 789 115 815 4 q 782 185 782 146 m 918 208 q 951 143 918 153 q 985 140 965 140 l 1086 140 q 1154 175 1144 140 q 1157 208 1157 189 l 1157 332 q 1121 396 1157 388 q 1089 400 1108 399 l 988 400 q 922 368 932 400 q 918 332 918 353 l 918 208 z "},"'":{"ha":311,"x_min":57,"x_max":254,"o":"m 58 924 l 58 1017 l 254 1017 l 254 924 l 240 738 l 74 738 l 58 924 z "},"(":{"ha":524,"x_min":78,"x_max":504,"o":"m 79 453 q 260 1103 79 803 q 322 1194 296 1161 l 504 1194 q 449 1097 504 1194 q 274 453 274 761 q 449 -203 274 114 q 504 -292 481 -260 l 322 -292 q 281 -240 322 -292 q 88 300 121 -21 q 79 453 79 375 z "},")":{"ha":524,"x_min":21,"x_max":447,"o":"m 21 -292 q 71 -211 21 -292 q 251 431 244 97 q 251 453 251 442 q 72 1107 251 767 q 21 1194 21 1194 l 203 1194 q 251 1126 203 1194 q 443 531 424 856 q 446 453 446 492 q 433 254 446 350 q 398 86 419 158 q 350 -50 376 14 q 298 -157 324 -114 q 251 -231 272 -200 q 215 -278 229 -262 l 203 -292 l 21 -292 z "},"*":{"ha":593,"x_min":51,"x_max":542,"o":"m 53 786 l 53 864 l 246 897 l 253 779 l 53 786 m 132 578 l 165 768 l 281 739 l 206 554 l 132 578 m 231 1000 l 306 1026 l 399 857 l 289 811 l 231 1000 m 264 649 l 329 747 l 485 622 l 440 560 l 264 649 m 332 793 l 499 903 l 542 838 l 408 703 l 332 793 z "},"+":{"ha":671,"x_min":46,"x_max":625,"o":"m 47 413 l 47 576 l 253 576 l 253 783 l 417 783 l 417 576 l 625 576 l 625 413 l 417 413 l 417 206 l 253 206 l 253 413 l 47 413 z "},",":{"ha":363,"x_min":89,"x_max":275,"o":"m 90 35 l 90 156 q 125 193 92 192 l 242 193 q 275 156 274 190 l 275 -15 q 256 -85 275 -58 q 212 -120 238 -112 q 159 -128 186 -128 q 115 -126 132 -129 q 97 -122 99 -124 l 97 -56 q 140 -19 139 -53 l 140 0 l 125 0 q 90 35 92 3 z "},"-":{"ha":492,"x_min":28,"x_max":464,"o":"m 28 321 l 28 485 l 464 485 l 464 321 l 28 321 z "},".":{"ha":365,"x_min":89,"x_max":278,"o":"m 90 32 l 90 157 q 124 192 93 190 l 243 192 q 278 157 276 189 l 278 32 q 243 0 275 1 l 124 0 q 90 32 93 4 z "},"/":{"ha":633,"x_min":21,"x_max":614,"o":"m 21 -100 l 411 1069 l 613 1069 l 222 -100 l 21 -100 z "},"{":{"ha":446,"x_min":21,"x_max":426,"o":"m 21 390 l 21 536 q 119 586 106 544 q 124 610 122 597 l 124 911 q 276 1146 124 1088 q 425 1169 340 1169 l 425 1006 q 331 950 351 1006 q 318 850 318 913 l 318 599 q 185 464 315 481 q 311 367 290 444 q 317 333 315 350 l 317 0 q 411 -135 317 -131 q 425 -136 418 -136 l 425 -292 q 124 -89 144 -292 q 122 -53 122 -71 l 122 317 q 60 388 122 374 q 21 390 40 392 z "},"|":{"ha":343,"x_min":90,"x_max":256,"o":"m 90 -100 l 90 1069 l 254 1069 l 254 -100 l 90 -100 z "},"}":{"ha":446,"x_min":21,"x_max":426,"o":"m 21 -136 q 129 -28 119 -139 q 131 0 131 -14 l 131 333 q 224 454 131 421 q 263 464 243 460 q 129 599 131 482 l 129 850 q 72 997 129 974 q 21 1006 51 1006 l 21 1169 q 306 1013 247 1169 q 324 911 324 968 l 324 610 q 408 539 324 549 q 425 536 417 538 l 425 390 q 331 347 353 396 q 325 317 325 332 l 325 -53 q 101 -287 325 -260 q 21 -292 64 -292 l 21 -136 z "},"~":{"ha":582,"x_min":51,"x_max":531,"o":"m 53 814 q 164 903 118 886 q 219 914 192 913 q 304 885 250 914 q 367 865 342 865 q 496 921 428 864 l 529 810 q 389 711 456 719 q 372 710 381 710 q 281 739 342 710 q 215 758 242 758 q 107 722 168 758 q 86 710 88 711 l 53 814 z "},"¯":{"ha":510,"x_min":51,"x_max":458,"o":"m 53 696 l 53 847 l 458 847 l 458 696 l 53 696 z "},"°":{"ha":403,"x_min":3,"x_max":400,"o":"m 3 878 q 83 1039 3 978 q 203 1079 138 1078 q 361 997 301 1079 q 400 878 399 943 q 318 715 400 775 q 203 678 265 678 q 42 758 101 678 q 3 878 3 811 m 146 878 q 185 822 146 838 q 208 817 197 818 q 265 856 250 817 q 268 878 268 867 q 232 935 268 919 q 208 940 221 940 q 151 901 167 940 q 146 878 147 889 z "},"±":{"ha":694,"x_min":58,"x_max":638,"o":"m 60 97 l 60 261 l 638 261 l 638 97 l 60 97 m 60 531 l 60 694 l 265 694 l 265 900 l 429 900 l 429 694 l 638 694 l 638 531 l 429 531 l 429 322 l 265 322 l 265 531 l 60 531 z "},"´":{"ha":338,"x_min":21,"x_max":367,"o":"m 21 710 l 147 931 l 365 931 l 196 710 l 21 710 z "},"·":{"ha":365,"x_min":89,"x_max":278,"o":"m 90 472 l 90 597 q 124 632 93 631 l 243 632 q 278 597 276 629 l 278 472 q 243 440 275 440 l 124 440 q 90 472 93 444 z "},"¸":{"ha":339,"x_min":51,"x_max":288,"o":"m 53 -164 l 114 -143 q 154 -90 150 -128 q 156 -51 156 -76 l 286 -51 q 229 -226 286 -189 q 131 -247 193 -247 l 53 -247 l 53 -164 z "},"¼":{"ha":1410,"x_min":29,"x_max":1365,"o":"m 1146 360 q 1204 410 1203 363 l 1204 446 q 1146 497 1190 493 l 1004 497 q 944 454 950 497 q 944 446 944 450 l 944 408 q 1004 360 947 360 l 1146 360 m 1194 622 q 1322 557 1297 622 q 1333 489 1333 528 l 1333 418 q 1297 317 1333 336 q 1288 311 1292 314 q 1365 218 1363 286 l 1365 42 l 1365 38 q 1310 -85 1365 -58 q 1213 -100 1276 -100 l 940 -100 q 907 -99 922 -100 q 876 -94 892 -97 q 850 -86 861 -92 q 828 -73 839 -81 q 810 -55 818 -65 q 797 -31 803 -44 q 790 1 792 -17 q 788 40 788 18 l 788 213 q 867 313 789 288 q 819 418 821 335 l 819 490 q 925 619 819 606 q 968 622 944 622 l 1194 622 m 913 83 q 975 31 913 33 q 990 31 982 31 l 1158 31 q 1236 85 1233 36 l 1236 181 q 1185 236 1236 229 q 1158 238 1174 238 l 990 238 q 917 204 926 238 q 913 178 913 192 l 913 83 m 339 901 q 449 782 350 878 q 594 603 578 657 q 599 582 599 592 q 521 400 599 501 q 343 283 426 292 q 174 343 264 283 q 156 354 164 349 q 98 399 129 374 q 47 442 67 425 l 29 458 l 100 553 q 222 471 101 553 q 301 433 276 436 q 317 432 310 432 q 415 511 369 432 q 439 574 439 551 q 360 690 439 615 q 250 803 271 775 q 215 858 226 832 q 203 914 207 875 q 197 983 199 953 l 196 1014 l 303 1039 q 329 928 303 1039 q 339 901 335 911 m 418 -100 l 808 1069 l 964 1069 l 574 -100 l 418 -100 z "},"½":{"ha":1417,"x_min":29,"x_max":1385,"o":"m 339 901 q 449 782 350 878 q 594 603 578 657 q 599 582 599 592 q 521 400 599 501 q 343 283 426 292 q 174 343 264 283 q 156 354 164 349 q 98 399 129 374 q 47 442 67 425 l 29 458 l 100 553 q 222 471 101 553 q 301 433 276 436 q 317 432 310 432 q 415 511 369 432 q 439 574 439 551 q 360 690 439 615 q 250 803 271 775 q 215 858 226 832 q 203 914 207 875 q 197 983 199 953 l 196 1014 l 303 1039 q 329 928 303 1039 q 339 901 335 911 m 418 -100 l 808 1069 l 964 1069 l 574 -100 l 418 -100 m 1343 289 q 1265 239 1319 267 q 1169 194 1211 211 l 1126 178 l 1372 10 l 1304 -101 q 1168 -28 1304 -101 q 811 218 968 89 l 890 338 l 972 289 q 1071 315 972 289 q 1193 394 1192 356 q 1090 506 1193 442 q 1086 507 1088 507 l 867 647 l 933 757 q 1140 644 933 757 q 1268 565 1225 596 q 1382 414 1369 493 q 1383 396 1383 406 q 1343 289 1382 328 z "},"¾":{"ha":1549,"x_min":36,"x_max":1489,"o":"m 447 368 q 242 460 339 368 q 201 501 221 479 q 126 599 167 539 q 61 701 85 660 l 38 743 l 118 800 l 264 624 q 439 511 357 511 q 583 594 518 511 q 642 751 642 669 q 560 863 642 833 q 493 874 528 874 q 404 869 464 874 q 300 858 344 864 l 256 853 l 231 958 q 328 983 231 958 q 547 1006 440 1006 q 753 892 689 1006 q 783 775 783 836 q 718 546 783 663 q 447 368 619 368 m 543 -100 l 933 1069 l 1089 1069 l 699 -100 l 543 -100 m 1269 360 q 1328 410 1326 363 l 1328 446 q 1269 497 1314 493 l 1128 497 q 1068 454 1074 497 q 1068 446 1068 450 l 1068 408 q 1128 360 1071 360 l 1269 360 m 1318 622 q 1446 557 1421 622 q 1457 489 1457 529 l 1457 418 q 1421 317 1457 336 q 1411 311 1415 314 q 1489 218 1486 286 l 1489 42 l 1489 38 q 1433 -85 1489 -58 q 1336 -100 1400 -100 l 1064 -100 q 1031 -99 1046 -100 q 1000 -94 1015 -97 q 974 -86 985 -92 q 952 -73 963 -81 q 934 -55 942 -65 q 921 -31 926 -44 q 913 1 915 -17 q 911 40 911 18 l 911 213 q 990 313 913 288 q 943 418 944 335 l 943 490 q 1049 619 943 606 q 1092 622 1068 622 l 1318 622 m 1036 83 q 1099 31 1036 33 q 1114 31 1106 31 l 1282 31 q 1360 85 1357 36 l 1360 181 q 1308 236 1360 229 q 1282 238 1296 238 l 1114 238 q 1040 204 1050 238 q 1036 178 1036 192 l 1036 83 z "},"÷":{"ha":690,"x_min":51,"x_max":639,"o":"m 53 408 l 53 572 l 639 572 l 639 408 l 53 408 m 258 215 l 258 308 q 292 342 261 340 l 394 342 q 428 308 426 340 l 428 215 q 394 183 425 185 l 292 183 q 258 215 263 188 m 258 664 l 258 757 q 292 792 261 790 l 394 792 q 428 757 426 789 l 428 664 q 394 632 425 633 l 292 632 q 258 664 263 636 z "},"×":{"ha":640,"x_min":60,"x_max":585,"o":"m 60 347 l 206 493 l 60 640 l 175 756 l 321 610 l 468 757 l 585 642 l 438 493 l 583 347 l 468 232 l 321 378 l 176 232 l 60 347 z "},"­":{"ha":492,"x_min":28,"x_max":464,"o":"m 28 321 l 28 485 l 464 485 l 464 321 l 28 321 z "},"ৄ":{"ha":0,"x_min":-515,"x_max":149,"o":"m -393 -331 l -487 -382 l -469 -517 l 86 -749 l 149 -633 q 78 -594 115 -614 q 4 -556 42 -575 q -64 -520 -33 -536 q -130 -487 -94 -504 q -184 -461 -165 -471 q -229 -439 -203 -451 l -256 -426 l -210 -401 l 60 -518 l 114 -412 q -53 -319 47 -371 q -219 -235 -153 -267 l -286 -203 l -94 -104 l -171 31 l -515 -150 l -497 -289 l -393 -331 z "},"ৠ":{"ha":1139,"x_min":58,"x_max":1163,"o":"m 919 -532 l 365 -308 l 349 -158 l 724 43 l 808 -101 l 618 -212 q 907 -367 618 -212 q 983 -410 950 -390 l 919 -532 m 864 201 l 783 232 l 783 0 l 603 0 l 85 322 l 85 458 l 436 611 l 415 661 q 311 613 415 661 q 246 592 269 596 q 115 624 171 578 q 111 628 113 626 q 58 747 60 679 q 115 868 58 828 q 128 876 122 874 q 269 914 161 893 l 289 824 q 215 788 286 822 q 196 753 193 776 q 228 733 201 735 q 322 763 256 733 q 440 819 388 792 l 493 849 l 578 674 l 603 685 l 603 883 l 783 883 l 783 401 l 864 367 l 864 883 l 858 975 l 979 975 l 1011 883 l 1163 883 l 1163 736 l 1031 736 l 1031 54 l 864 54 l 864 201 m 603 199 l 603 515 l 307 381 l 603 199 z "},"ৢ":{"ha":0,"x_min":-457,"x_max":0,"o":"m -325 -429 l -404 -449 q -439 -364 -404 -449 q -440 -360 -440 -361 q -344 -249 -457 -275 q -183 -322 -199 -219 l -181 -356 q -132 -349 -181 -356 q -119 -344 -125 -346 q -114 -300 -101 -336 q -118 -292 -117 -294 q -214 -221 -125 -281 q -324 -112 -322 -147 q -210 26 -324 -46 q -197 35 -197 35 l -154 -36 q -194 -100 -194 -81 q -122 -161 -194 -115 q -18 -247 -35 -219 q -1 -358 -1 -276 q -83 -442 -1 -412 q -118 -450 -100 -447 q -167 -457 -133 -454 q -225 -461 -200 -460 l -250 -462 l -260 -404 q -276 -342 -267 -350 q -314 -336 -289 -332 q -339 -383 -349 -344 q -332 -407 -337 -390 q -325 -429 -328 -422 z "},"ৡ":{"ha":903,"x_min":29,"x_max":829,"o":"m 293 -343 l 214 -362 q 179 -278 214 -362 q 178 -274 178 -275 q 274 -162 161 -189 q 435 -236 419 -133 l 438 -269 q 486 -262 438 -269 q 499 -258 493 -260 q 504 -214 517 -250 q 500 -206 501 -208 q 404 -135 493 -194 q 294 -26 296 -61 q 408 113 294 40 q 421 121 421 121 l 464 50 q 424 -14 424 6 q 496 -75 424 -29 q 600 -161 583 -133 q 617 -272 617 -190 q 535 -356 617 -326 q 500 -364 518 -361 q 451 -371 485 -368 q 393 -375 418 -374 l 368 -376 l 358 -318 q 342 -256 351 -264 q 304 -250 329 -246 q 279 -297 269 -258 q 286 -321 281 -304 q 293 -343 290 -336 m 217 58 l 107 17 q 68 96 107 17 q 57 132 60 118 q 142 333 24 283 q 197 350 167 343 q 457 333 386 392 q 511 225 499 297 q 522 158 522 158 q 607 174 524 158 q 671 240 669 189 q 656 306 669 281 q 504 417 639 329 q 281 592 324 533 q 258 646 258 621 q 367 851 258 738 q 451 925 408 894 l 531 840 q 422 685 424 725 q 540 582 422 657 q 739 450 700 481 q 797 386 781 414 q 829 199 825 328 q 713 47 829 99 q 638 25 676 32 q 426 0 568 11 l 401 113 q 350 214 383 197 q 265 214 321 226 q 199 154 201 199 q 217 58 197 129 z "},"ৣ":{"ha":0,"x_min":-587,"x_max":226,"o":"m -457 -464 l -536 -483 q -571 -399 -536 -483 q -572 -394 -572 -396 q -476 -283 -589 -310 q -315 -357 -331 -254 l -312 -390 q -264 -383 -312 -390 q -251 -379 -257 -381 q -246 -335 -233 -371 q -250 -326 -249 -329 q -346 -256 -257 -315 q -456 -147 -454 -182 q -342 -8 -456 -81 q -329 0 -329 0 l -286 -71 q -326 -135 -326 -115 q -254 -196 -326 -150 q -150 -282 -167 -254 q -133 -393 -133 -311 q -215 -476 -133 -447 q -250 -485 -232 -482 q -299 -492 -265 -489 q -357 -496 -332 -494 l -382 -497 l -392 -439 q -408 -376 -399 -385 q -446 -371 -421 -367 q -471 -418 -481 -379 q -464 -442 -469 -425 q -457 -464 -460 -457 m -99 -389 l -178 -408 q -212 -324 -178 -408 q -214 -319 -214 -321 q -118 -208 -231 -235 q 43 -282 28 -179 l 46 -315 q 94 -308 46 -315 q 107 -304 101 -306 q 113 -260 125 -296 q 108 -251 110 -254 q 13 -181 101 -240 q -97 -72 -96 -107 q 17 67 -97 -6 q 29 75 29 75 l 72 4 q 32 -60 32 -40 q 104 -121 32 -75 q 208 -207 192 -179 q 225 -318 225 -236 q 143 -401 225 -372 q 108 -410 126 -407 q 60 -417 93 -414 q 1 -421 26 -419 l -24 -422 l -33 -364 q -50 -301 -40 -310 q -87 -296 -62 -292 q -112 -343 -122 -304 q -106 -367 -111 -350 q -99 -389 -101 -382 z "},"₹":{"ha":799,"x_min":56,"x_max":725,"o":"m 367 731 q 399 717 385 731 q 418 688 414 703 l 424 674 l 99 674 l 99 543 l 411 543 q 318 481 394 493 q 285 478 301 478 l 104 478 l 56 328 q 408 -36 143 215 l 496 53 l 250 346 l 308 346 q 419 366 369 346 q 495 415 468 386 q 540 474 522 444 q 564 522 558 503 l 571 543 l 682 543 l 682 674 l 574 674 q 561 707 574 674 q 542 731 553 722 l 724 731 l 724 883 l 126 883 l 126 731 l 367 731 z "},"…":{"ha":1133,"x_min":118,"x_max":1015,"o":"m 874 32 l 874 111 q 907 146 876 144 l 981 146 q 1015 111 1014 143 l 1015 32 q 981 0 1013 1 l 907 0 q 874 32 876 4 m 496 32 l 496 111 q 529 146 499 144 l 603 146 q 638 111 636 143 l 638 32 q 603 0 635 1 l 529 0 q 496 32 499 4 m 118 32 l 118 111 q 151 146 121 144 l 225 146 q 260 111 258 143 l 260 32 q 225 0 257 1 l 151 0 q 118 32 121 4 z "},"–":{"ha":713,"x_min":28,"x_max":685,"o":"m 28 317 l 28 482 l 685 482 l 685 317 l 28 317 z "},"—":{"ha":1022,"x_min":28,"x_max":994,"o":"m 28 319 l 28 485 l 994 485 l 994 319 l 28 319 z "},"‘":{"ha":360,"x_min":83,"x_max":276,"o":"m 85 717 l 85 901 q 203 1031 85 1021 q 268 1028 238 1035 l 268 951 q 222 906 224 950 l 222 876 l 239 876 q 275 842 274 874 l 275 717 q 239 678 272 679 l 119 678 q 85 717 86 681 z "},"’":{"ha":360,"x_min":83,"x_max":276,"o":"m 85 869 l 85 993 q 121 1032 88 1031 l 240 1032 q 275 993 274 1029 l 275 808 q 256 732 275 763 q 210 692 238 701 q 156 678 183 682 q 111 678 129 675 l 92 682 l 92 758 q 138 804 136 760 l 138 832 l 121 832 q 85 869 86 835 z "},"“":{"ha":590,"x_min":76,"x_max":515,"o":"m 324 715 l 324 900 q 443 1029 324 1019 q 508 1026 478 1032 l 508 950 q 463 904 463 949 l 463 876 l 479 876 q 515 839 514 874 l 515 715 q 479 676 513 678 l 360 676 q 324 715 325 678 m 76 715 l 76 900 q 87 958 76 933 q 113 997 97 983 q 149 1019 128 1011 q 188 1028 171 1026 q 224 1030 206 1031 q 250 1028 243 1029 q 260 1026 257 1026 l 260 950 q 215 904 215 949 l 215 876 l 232 876 q 268 839 267 874 l 268 715 q 232 676 265 678 l 111 676 q 76 715 78 678 z "},"”":{"ha":590,"x_min":76,"x_max":515,"o":"m 76 867 l 76 992 q 113 1031 79 1029 l 233 1031 q 268 992 267 1028 l 268 807 q 258 748 268 774 q 232 709 247 722 q 195 688 217 696 q 156 677 174 679 q 120 676 139 675 q 94 678 101 676 q 83 681 88 679 l 83 757 q 129 803 129 757 l 129 831 l 113 831 q 76 867 79 833 m 324 867 l 324 992 q 361 1031 326 1029 l 481 1031 q 515 992 514 1028 l 515 807 q 496 731 515 761 q 450 690 476 700 q 396 678 424 681 q 351 677 368 675 q 332 681 333 679 l 332 757 q 376 803 376 757 l 376 831 l 361 831 q 324 867 326 833 z "},"‚":{"ha":360,"x_min":83,"x_max":276,"o":"m 85 36 l 85 160 q 121 200 88 197 l 240 200 q 275 160 274 197 l 275 -24 q 256 -101 275 -71 q 210 -141 238 -131 q 156 -154 183 -151 q 110 -155 129 -157 q 92 -151 92 -153 l 92 -75 q 138 -29 136 -74 l 138 0 l 121 0 q 85 36 86 3 z "},"।":{"ha":614,"x_min":257,"x_max":465,"o":"m 257 883 l 257 0 l 465 0 l 465 883 l 257 883 z "},"॥":{"ha":985,"x_min":257,"x_max":814,"o":"m 606 883 l 606 0 l 814 0 l 814 883 l 606 883 m 257 883 l 257 0 l 465 0 l 465 883 l 257 883 z "},"ৰ":{"ha":813,"x_min":-19,"x_max":825,"o":"m 825 736 l 717 736 l 717 0 l 550 0 l 54 358 l 54 479 l 550 704 l 550 736 l -19 736 l -19 883 l 825 883 l 825 736 m 550 397 l 550 538 l 438 485 l 550 397 m 315 428 l 268 406 l 550 200 l 550 256 l 315 428 z "},"ৱ":{"ha":868,"x_min":-19,"x_max":882,"o":"m 338 406 l 619 200 l 619 538 l 338 406 m 882 736 l 786 736 l 786 0 l 619 0 l 124 358 l 124 479 l 619 704 l 619 736 l -19 736 l -19 883 l 882 883 l 882 736 m 438 17 l 363 -71 q 143 88 363 -71 q 113 107 124 100 l 189 242 q 435 19 272 199 q 438 17 438 17 z "},"৲":{"ha":844,"x_min":150,"x_max":663,"o":"m 663 118 l 564 28 q 451 157 564 28 q 150 442 282 343 l 217 608 q 586 233 356 565 q 663 118 632 167 z "},"৴":{"ha":844,"x_min":119,"x_max":703,"o":"m 203 107 l 119 203 q 258 329 119 203 q 543 638 444 507 l 703 575 q 606 434 671 508 q 478 307 540 360 q 344 202 417 254 q 245 133 272 150 q 203 107 218 117 z "},"৷":{"ha":410,"x_min":118,"x_max":299,"o":"m 118 883 l 118 0 l 299 0 l 299 883 l 118 883 z "},"৺":{"ha":833,"x_min":74,"x_max":807,"o":"m 74 793 l 168 908 q 282 821 168 908 q 369 772 351 772 q 478 843 397 772 q 626 985 560 914 l 693 1056 l 806 949 q 696 808 806 949 q 511 615 578 664 q 436 574 460 579 q 407 571 421 571 q 92 779 335 571 q 74 793 81 788 m 354 856 l 261 928 q 250 994 225 958 l 322 1090 q 390 1096 350 1125 l 483 1026 q 493 961 518 999 l 421 865 q 354 856 392 835 z "},"৹":{"ha":639,"x_min":115,"x_max":533,"o":"m 115 410 q 194 599 115 560 q 324 621 238 621 q 492 571 449 621 q 532 410 532 522 q 447 224 532 263 q 324 204 401 204 q 140 282 182 204 q 115 410 117 329 m 249 414 q 264 350 249 361 q 328 339 279 339 q 396 360 386 339 q 401 413 401 372 q 388 474 401 464 q 328 485 371 485 q 254 461 265 485 q 249 414 249 449 z "},"৸":{"ha":938,"x_min":82,"x_max":864,"o":"m 632 0 l 864 0 l 864 101 l 774 117 l 774 608 l 667 664 l 310 525 l 310 883 l 82 883 l 82 731 l 171 731 l 171 410 l 219 325 l 632 490 l 632 0 z "},"৵":{"ha":1007,"x_min":60,"x_max":961,"o":"m 849 743 q 799 564 849 743 q 692 317 738 369 q 610 258 656 278 q 539 236 565 238 l 511 236 q 549 314 511 236 q 571 443 588 406 q 454 550 551 488 q 403 583 411 578 q 138 513 253 682 q 60 356 97 454 l 168 299 q 215 369 168 299 q 217 372 217 371 q 300 449 264 440 q 367 432 331 456 q 406 371 403 397 q 390 323 406 357 q 358 263 374 289 l 342 235 l 261 97 q 342 76 261 97 q 674 101 532 42 q 797 204 742 131 q 881 362 851 278 q 929 526 910 446 q 956 658 949 606 l 961 711 l 849 743 z "},"৶":{"ha":1146,"x_min":83,"x_max":1065,"o":"m 932 915 q 851 647 932 915 q 715 317 761 369 q 550 246 643 238 q 542 247 542 247 q 576 319 542 247 q 594 443 610 406 q 478 550 575 488 q 426 583 435 578 q 161 513 276 682 q 83 356 121 454 l 192 299 q 239 369 192 299 q 240 372 240 371 q 324 449 288 440 q 390 432 354 456 q 429 371 426 397 q 413 323 429 357 q 382 263 397 289 l 365 235 l 285 97 q 372 76 285 97 q 718 101 578 42 q 847 222 786 131 q 946 422 908 313 q 1012 638 983 532 q 1053 814 1040 743 l 1065 883 l 932 915 z "},"‍":{"ha":0,"x_min":-254,"x_max":253,"o":"m 50 840 l 244 643 l 193 585 l 42 735 l 42 -242 l -42 -242 l -42 739 l -193 585 l -254 644 l -58 843 l -250 1046 l -193 1103 l 0 907 l 193 1103 l 253 1043 l 50 840 z "},"‌":{"ha":0,"x_min":-42,"x_max":42,"o":"m -42 -231 l -42 1090 l 42 1090 l 42 -231 l -42 -231 z "},"$":{"ha":792,"x_min":58,"x_max":736,"o":"m 331 1144 l 449 1144 l 449 1024 q 697 985 578 1015 l 697 833 q 439 847 499 846 q 375 847 382 847 q 283 829 313 847 q 253 747 253 811 l 253 697 q 281 622 253 644 q 364 600 307 600 l 493 600 q 708 474 653 600 q 735 331 735 411 l 735 263 q 644 40 735 101 q 457 -11 568 -11 l 449 -11 l 449 -125 l 331 -125 l 331 -8 q 90 31 203 -1 l 90 181 q 414 168 311 168 q 540 256 540 168 l 540 310 q 519 381 540 357 q 447 406 500 406 l 321 406 q 203 425 253 406 q 125 475 153 446 q 82 543 99 504 q 58 675 58 604 l 58 763 q 331 1025 60 1017 l 331 1144 z "},"&":{"ha":943,"x_min":36,"x_max":919,"o":"m 444 844 q 351 800 351 844 q 394 708 351 768 l 629 388 l 797 546 l 865 464 l 782 315 l 731 254 l 919 0 l 692 0 l 593 133 l 503 53 q 331 -8 435 -8 q 221 13 275 -8 q 89 119 140 42 q 36 281 36 197 q 153 513 36 411 l 249 597 l 178 700 q 132 825 132 765 q 181 953 132 901 q 288 1014 231 1006 q 436 1024 351 1024 q 672 986 521 1024 l 672 844 l 444 844 m 274 394 q 219 306 219 349 q 244 231 219 263 q 294 186 269 200 q 333 174 318 174 l 356 174 q 415 204 388 178 l 486 272 l 346 458 l 274 394 z "},"¡":{"ha":383,"x_min":90,"x_max":289,"o":"m 97 488 l 97 608 q 131 640 97 638 l 249 640 q 275 626 267 639 q 282 604 282 614 l 282 488 q 250 450 281 450 l 131 450 q 97 488 97 450 m 90 -375 l 110 365 l 269 365 l 289 -375 l 90 -375 z "},"¢":{"ha":676,"x_min":40,"x_max":635,"o":"m 60 181 q 42 369 42 257 q 60 558 42 482 q 192 731 92 694 q 261 746 232 746 l 296 746 l 296 881 l 415 881 l 415 742 q 625 700 536 729 l 625 579 q 414 589 492 589 q 319 586 336 589 q 283 574 303 585 q 256 538 265 563 q 236 376 236 482 q 250 225 236 271 q 289 164 263 178 q 369 149 314 149 q 596 158 483 149 l 635 161 l 635 39 q 413 -7 549 -4 l 413 -132 l 293 -132 l 293 -8 q 192 8 233 -8 q 114 65 149 25 q 60 181 78 106 z "},"£":{"ha":808,"x_min":53,"x_max":757,"o":"m 53 0 l 53 150 l 144 179 l 144 436 l 53 436 l 53 536 l 144 567 l 144 671 q 164 839 144 788 q 200 915 183 889 q 242 958 217 942 q 292 989 267 976 q 353 1006 318 1000 q 475 1017 415 1017 q 710 1000 571 1017 l 757 994 l 757 839 l 494 839 q 419 836 443 839 q 372 817 394 832 q 344 772 351 801 q 339 688 339 742 l 339 567 l 647 544 l 647 436 l 339 436 l 339 179 l 756 179 l 756 0 l 53 0 z "},"¤":{"ha":619,"x_min":54,"x_max":567,"o":"m 185 614 q 308 653 240 653 q 433 614 376 653 l 497 679 l 567 614 l 499 544 q 529 428 529 494 q 489 303 529 360 l 556 236 l 490 167 l 417 238 q 306 207 367 207 q 190 243 244 207 l 126 176 l 58 246 l 124 313 q 89 431 89 368 q 119 544 89 494 l 54 608 l 121 676 l 185 614 m 231 511 q 197 431 197 478 q 231 350 197 385 q 308 317 263 317 q 389 350 356 317 q 421 431 421 385 q 389 511 421 478 q 308 544 356 544 q 231 511 263 544 z "},"¥":{"ha":881,"x_min":21,"x_max":860,"o":"m 729 469 l 729 356 l 525 356 l 525 306 l 729 306 l 729 193 l 525 193 l 525 0 l 331 0 l 331 193 l 136 193 l 136 306 l 331 306 l 331 356 l 136 356 l 136 469 l 283 469 l 21 1017 l 233 1017 l 431 558 l 646 1017 l 860 1017 l 575 469 l 729 469 z "},"¦":{"ha":344,"x_min":90,"x_max":254,"o":"m 90 -100 l 90 356 l 254 356 l 254 -100 l 90 -100 m 90 596 l 90 1069 l 254 1069 l 254 596 l 90 596 z "},"§":{"ha":751,"x_min":57,"x_max":696,"o":"m 58 819 l 58 886 q 172 1076 58 1036 q 275 1089 208 1089 q 467 1081 342 1089 q 642 1063 590 1074 l 642 925 l 307 925 q 258 904 271 925 q 253 875 253 893 l 253 826 q 308 779 253 779 l 479 779 q 644 736 594 779 q 694 604 696 693 l 694 556 q 614 407 694 428 q 693 269 693 393 l 693 192 q 501 -11 693 -11 q 281 -3 406 -11 q 110 15 157 4 l 110 153 l 439 153 q 489 165 479 153 q 500 196 500 178 l 500 251 q 486 288 500 278 q 442 297 474 297 l 269 297 q 113 333 165 297 q 60 467 60 371 l 60 515 q 96 649 60 615 q 143 675 114 665 q 58 819 58 711 m 253 508 q 265 464 253 472 q 315 453 283 453 l 435 453 q 488 464 479 453 q 500 510 500 479 l 500 563 q 471 618 500 611 q 435 622 457 622 l 315 622 q 264 608 276 622 q 253 560 253 596 l 253 508 z "},"¨":{"ha":622,"x_min":51,"x_max":569,"o":"m 53 808 q 78 865 53 842 q 135 889 101 889 q 192 865 168 889 q 215 808 215 842 q 192 750 215 775 q 135 726 168 726 q 78 750 101 726 q 53 808 53 775 m 407 808 q 431 865 407 842 q 489 889 456 889 q 546 865 522 889 q 569 808 569 842 q 546 750 569 775 q 489 726 522 726 q 431 750 456 726 q 407 808 407 775 z "},"©":{"ha":1111,"x_min":58,"x_max":1054,"o":"m 58 524 q 67 661 58 593 q 97 797 75 728 q 158 911 121 865 q 261 988 197 958 q 411 1017 326 1017 l 733 1017 q 872 986 814 1017 q 967 908 932 956 q 1021 793 1000 863 q 1054 511 1054 679 q 972 135 1054 269 q 733 0 889 0 l 411 0 q 163 122 254 0 q 58 524 58 260 m 185 514 q 208 315 185 401 q 283 175 231 229 q 411 119 336 119 l 725 119 q 831 158 786 119 q 900 285 874 196 q 928 511 928 374 q 899 768 928 693 q 811 881 864 856 q 733 897 776 897 l 411 897 q 253 824 313 897 q 185 514 185 739 m 310 507 q 510 810 310 810 q 636 800 561 810 q 765 776 711 792 l 765 674 q 540 690 649 690 q 461 647 485 690 q 438 508 438 606 q 461 367 438 411 q 546 324 486 324 q 774 346 647 324 l 774 243 q 517 204 678 204 q 326 357 367 204 q 310 507 310 418 z "},"ª":{"ha":508,"x_min":32,"x_max":478,"o":"m 32 364 l 32 461 l 478 461 l 478 364 l 32 364 m 49 989 q 281 1025 158 1025 q 383 1011 340 1025 q 450 963 425 999 q 476 868 476 926 l 476 525 l 363 525 l 326 588 q 275 544 319 571 q 185 519 231 519 q 72 558 113 519 q 32 647 32 596 l 32 696 q 69 792 32 754 q 181 828 107 828 l 292 828 l 326 828 q 327 863 328 850 q 317 888 326 875 q 250 907 303 907 q 125 901 199 907 q 49 896 51 896 l 49 989 m 172 674 q 186 640 172 649 q 224 632 199 632 q 275 640 250 632 q 314 658 301 649 l 326 667 l 326 749 l 215 739 q 172 693 172 736 l 172 674 z "},"«":{"ha":806,"x_min":53,"x_max":754,"o":"m 53 492 l 339 774 l 446 668 l 264 492 l 449 310 l 346 203 l 53 492 m 357 492 l 643 774 l 750 668 l 569 492 l 754 310 l 650 203 l 357 492 z "},"¬":{"ha":686,"x_min":47,"x_max":639,"o":"m 47 333 l 47 489 l 639 489 l 639 221 l 483 221 l 483 333 l 47 333 z "},"®":{"ha":1111,"x_min":58,"x_max":1054,"o":"m 58 524 q 67 661 58 593 q 97 797 75 728 q 158 911 121 865 q 261 988 197 958 q 411 1017 326 1017 l 733 1017 q 872 986 814 1017 q 967 908 932 956 q 1021 793 1000 863 q 1054 511 1054 679 q 972 135 1054 269 q 733 0 889 0 l 411 0 q 163 122 254 0 q 58 524 58 260 m 185 514 q 208 315 185 401 q 283 175 231 229 q 411 119 336 119 l 725 119 q 831 158 786 119 q 900 285 874 196 q 928 511 928 374 q 899 768 928 693 q 811 881 864 856 q 733 897 776 897 l 411 897 q 253 824 313 897 q 185 514 185 739 m 597 806 q 783 619 783 806 q 754 492 783 531 q 675 439 725 453 l 796 213 l 658 213 l 543 433 l 471 450 l 471 213 l 344 213 l 344 806 l 597 806 m 471 542 l 575 542 q 643 556 629 542 q 657 615 657 568 q 639 675 657 663 q 575 686 619 686 l 471 686 l 471 542 z "},"²":{"ha":556,"x_min":31,"x_max":514,"o":"m 33 1065 q 32 1097 32 1065 l 32 1150 l 33 1178 q 272 1204 182 1204 q 403 1189 363 1204 q 465 1146 442 1174 q 513 1001 513 1092 q 272 664 513 856 l 511 664 l 511 525 l 38 525 l 38 657 q 272 843 200 771 q 333 917 306 876 q 360 994 360 957 q 336 1047 360 1031 q 254 1065 313 1065 l 33 1065 z "},"³":{"ha":567,"x_min":32,"x_max":507,"o":"m 268 518 q 38 546 113 518 l 39 657 l 260 657 q 335 668 315 657 q 354 713 354 679 l 354 729 q 332 778 354 764 q 265 792 310 790 l 94 799 l 94 918 l 265 928 q 336 942 314 929 q 357 986 357 956 l 357 1003 q 333 1047 357 1035 q 265 1058 311 1058 l 32 1058 l 32 1168 q 265 1197 110 1197 l 329 1197 q 458 1150 411 1196 q 506 1029 506 1104 l 506 988 q 426 858 506 885 q 506 721 506 828 l 506 689 q 322 518 506 518 l 268 518 z "},"µ":{"ha":817,"x_min":96,"x_max":744,"o":"m 290 738 l 290 243 q 371 144 290 144 q 494 171 443 144 q 550 208 519 185 l 550 738 l 744 738 l 744 0 l 588 0 l 550 78 q 522 61 542 74 q 492 44 501 49 q 467 31 483 39 q 436 15 449 21 q 290 6 357 -15 l 290 -375 l 96 -375 l 96 247 l 96 738 l 290 738 z "},"¶":{"ha":801,"x_min":42,"x_max":782,"o":"m 42 693 l 42 822 q 103 967 42 917 q 258 1017 164 1017 l 782 1017 l 782 872 l 708 872 l 708 0 l 567 0 l 567 875 l 475 875 l 475 -375 l 333 -375 l 333 517 l 322 510 q 258 493 294 493 q 97 550 151 493 q 42 693 42 606 m 183 710 q 210 646 183 661 q 267 635 232 635 l 333 635 l 333 876 l 267 876 q 200 856 217 876 q 183 794 183 836 l 183 710 z "},"¹":{"ha":375,"x_min":17,"x_max":307,"o":"m 307 1194 l 307 525 l 157 525 l 157 1058 l 17 1026 l 17 1118 l 158 1194 l 307 1194 z "},"º":{"ha":547,"x_min":31,"x_max":517,"o":"m 86 575 q 32 772 32 631 q 83 967 32 913 q 275 1022 136 1022 q 464 967 413 1022 q 517 769 517 911 q 464 574 517 628 q 275 519 413 519 q 86 575 139 519 m 50 367 l 50 463 l 497 463 l 497 367 l 50 367 m 186 839 q 182 761 182 813 q 193 681 182 708 q 221 647 204 654 q 271 640 238 640 q 318 643 304 640 q 344 658 332 646 q 367 753 367 678 q 358 858 367 829 q 331 894 349 886 q 279 901 314 901 q 229 897 244 901 q 203 879 214 893 q 186 839 190 865 z "},"»":{"ha":806,"x_min":53,"x_max":754,"o":"m 53 310 l 238 492 l 57 668 l 163 774 l 449 492 l 156 203 l 53 310 m 357 310 l 542 492 l 361 668 l 468 774 l 754 492 l 461 203 l 357 310 z "},"¿":{"ha":754,"x_min":39,"x_max":733,"o":"m 733 -190 l 733 -249 l 733 -321 l 733 -336 q 415 -374 546 -374 q 360 -372 379 -374 l 340 -371 q 201 -347 261 -371 q 108 -282 142 -322 q 42 -97 42 -201 l 42 6 q 119 206 40 140 q 306 261 186 261 q 356 260 331 261 l 356 385 l 514 385 l 515 114 l 422 114 q 342 113 382 114 q 275 82 303 111 q 244 -6 246 53 q 243 -76 243 -64 q 278 -161 243 -129 q 381 -192 314 -192 l 388 -192 l 733 -190 m 342 621 q 376 656 342 654 l 493 656 q 517 646 508 654 q 526 624 526 638 l 526 500 q 494 465 525 467 l 374 465 q 342 500 343 468 l 342 621 z "},"À":{"ha":961,"x_min":47,"x_max":942,"o":"m 268 1300 l 439 1300 l 564 1107 l 438 1107 l 268 1300 m 47 0 l 390 1017 l 611 1017 l 942 0 l 735 0 l 663 225 l 329 225 l 256 0 l 47 0 m 381 397 l 617 397 l 503 761 l 381 397 z "},"Á":{"ha":961,"x_min":47,"x_max":942,"o":"m 438 1107 l 564 1300 l 733 1300 l 564 1107 l 438 1107 m 47 0 l 390 1017 l 611 1017 l 942 0 l 735 0 l 663 225 l 329 225 l 256 0 l 47 0 m 381 397 l 617 397 l 503 761 l 381 397 z "},"Â":{"ha":961,"x_min":47,"x_max":942,"o":"m 286 1107 l 436 1294 l 581 1294 l 715 1107 l 586 1107 l 504 1190 l 417 1107 l 286 1107 m 47 0 l 390 1017 l 611 1017 l 942 0 l 735 0 l 663 225 l 329 225 l 256 0 l 47 0 m 381 397 l 617 397 l 503 761 l 381 397 z "},"Ã":{"ha":961,"x_min":47,"x_max":942,"o":"m 583 1232 q 706 1285 636 1232 l 739 1201 q 583 1107 653 1107 q 500 1131 549 1107 q 433 1156 451 1156 q 400 1153 414 1156 q 378 1150 386 1151 q 356 1142 369 1147 q 339 1132 343 1135 q 317 1119 333 1129 q 296 1107 301 1110 l 263 1183 q 431 1281 351 1281 q 510 1256 464 1279 q 568 1232 556 1232 l 583 1232 m 47 0 l 390 1017 l 611 1017 l 942 0 l 735 0 l 663 225 l 329 225 l 256 0 l 47 0 m 381 397 l 617 397 l 503 761 l 381 397 z "},"Ä":{"ha":961,"x_min":47,"x_max":942,"o":"m 267 1131 q 242 1183 242 1156 q 253 1231 242 1211 q 318 1269 278 1271 q 382 1247 358 1269 q 406 1189 406 1224 q 382 1131 406 1156 q 325 1107 358 1107 q 267 1131 290 1107 m 596 1189 q 619 1246 596 1222 q 678 1269 644 1269 q 736 1247 713 1269 q 760 1189 760 1224 q 736 1131 760 1156 q 678 1107 713 1107 q 619 1131 644 1107 q 596 1189 596 1156 m 47 0 l 390 1017 l 611 1017 l 942 0 l 735 0 l 663 225 l 329 225 l 256 0 l 47 0 m 381 397 l 617 397 l 503 761 l 381 397 z "},"Å":{"ha":961,"x_min":47,"x_max":942,"o":"m 379 1083 q 431 1033 399 1051 q 503 1014 464 1014 q 572 1033 540 1014 q 622 1083 604 1051 q 642 1167 642 1117 q 600 1257 642 1215 q 501 1299 560 1299 q 401 1257 443 1299 q 360 1167 360 1215 q 379 1083 360 1117 m 458 1199 q 501 1217 476 1217 q 544 1199 526 1217 q 561 1156 561 1181 q 544 1114 561 1131 q 501 1097 526 1097 q 458 1114 476 1097 q 447 1133 451 1124 q 442 1161 442 1143 q 458 1199 443 1181 m 47 0 l 390 1017 l 611 1017 l 942 0 l 735 0 l 663 225 l 329 225 l 256 0 l 47 0 m 381 397 l 617 397 l 503 761 l 381 397 z "},"Æ":{"ha":1325,"x_min":32,"x_max":1278,"o":"m 689 1011 q 753 1017 725 1015 q 801 1018 782 1018 q 843 1017 822 1018 q 1278 994 1189 1007 l 1278 833 l 889 833 q 828 808 839 833 q 818 757 819 789 l 818 594 l 1214 579 l 1214 419 l 818 407 l 818 250 q 844 189 818 200 q 883 181 864 181 l 904 181 l 1278 181 l 1278 18 q 946 -1 1206 8 l 858 -6 l 826 -6 q 775 -1 807 -6 q 706 19 744 3 q 646 75 668 36 q 624 168 624 113 l 624 269 l 381 269 l 247 0 l 32 0 l 425 799 q 546 953 476 904 q 689 1011 614 1001 m 624 440 l 624 775 l 463 440 l 624 440 z "},"Ç":{"ha":793,"x_min":58,"x_max":758,"o":"m 261 -51 l 392 -51 q 358 -203 392 -160 q 236 -247 325 -247 l 158 -247 l 158 -164 l 219 -143 q 253 -114 246 -132 q 261 -51 261 -94 m 128 892 q 282 1013 183 983 q 404 1028 336 1028 q 758 982 603 1028 l 758 829 l 747 831 q 719 833 736 832 q 679 836 701 835 q 628 842 656 839 q 571 844 599 843 q 454 849 506 849 q 375 842 403 849 q 319 817 346 835 q 281 761 293 799 q 253 508 253 681 q 292 254 253 325 q 450 171 336 171 q 714 179 581 171 l 758 182 l 758 31 q 436 -8 633 -8 l 404 -8 q 139 125 218 -7 q 58 517 58 257 q 128 892 58 778 z "},"È":{"ha":788,"x_min":79,"x_max":749,"o":"m 228 1297 l 399 1297 l 524 1104 l 397 1104 l 228 1297 m 81 200 l 81 806 q 156 978 81 932 q 290 1017 218 1017 q 478 1011 296 1017 q 749 994 660 1007 l 749 833 l 347 833 q 283 808 296 833 q 275 756 275 789 l 275 597 l 686 583 l 686 422 l 275 410 l 275 251 q 304 188 275 199 q 361 179 325 179 l 749 179 l 749 19 q 406 0 678 10 l 315 -4 l 289 -4 q 251 -3 275 -4 q 194 13 228 0 q 136 46 161 25 q 81 200 81 96 z "},"É":{"ha":788,"x_min":79,"x_max":749,"o":"m 382 1104 l 508 1296 l 678 1296 l 508 1104 l 382 1104 m 81 200 l 81 806 q 156 978 81 932 q 290 1017 218 1017 q 478 1011 296 1017 q 749 994 660 1007 l 749 833 l 347 833 q 283 808 296 833 q 275 756 275 789 l 275 597 l 686 583 l 686 422 l 275 410 l 275 251 q 304 188 275 199 q 361 179 325 179 l 749 179 l 749 19 q 406 0 678 10 l 315 -4 l 289 -4 q 251 -3 275 -4 q 194 13 228 0 q 136 46 161 25 q 81 200 81 96 z "},"Ê":{"ha":788,"x_min":79,"x_max":749,"o":"m 226 1107 l 376 1294 l 521 1294 l 656 1107 l 526 1107 l 444 1190 l 357 1107 l 226 1107 m 81 200 l 81 806 q 156 978 81 932 q 290 1017 218 1017 q 478 1011 296 1017 q 749 994 660 1007 l 749 833 l 347 833 q 283 808 296 833 q 275 756 275 789 l 275 597 l 686 583 l 686 422 l 275 410 l 275 251 q 304 188 275 199 q 361 179 325 179 l 749 179 l 749 19 q 406 0 678 10 l 315 -4 l 289 -4 q 251 -3 275 -4 q 194 13 228 0 q 136 46 161 25 q 81 200 81 96 z "},"Ë":{"ha":788,"x_min":79,"x_max":749,"o":"m 175 1186 q 200 1243 175 1219 q 258 1267 224 1267 q 315 1243 292 1267 q 339 1186 339 1219 q 315 1128 339 1153 q 258 1104 292 1104 q 200 1128 224 1104 q 175 1186 175 1153 m 529 1186 q 553 1243 529 1219 q 611 1267 578 1267 q 669 1243 646 1267 q 693 1186 693 1219 q 669 1128 693 1153 q 611 1104 646 1104 q 553 1128 578 1104 q 529 1186 529 1153 m 81 200 l 81 806 q 156 978 81 932 q 290 1017 218 1017 q 478 1011 296 1017 q 749 994 660 1007 l 749 833 l 347 833 q 283 808 296 833 q 275 756 275 789 l 275 597 l 686 583 l 686 422 l 275 410 l 275 251 q 304 188 275 199 q 361 179 325 179 l 749 179 l 749 19 q 406 0 678 10 l 315 -4 l 289 -4 q 251 -3 275 -4 q 194 13 228 0 q 136 46 161 25 q 81 200 81 96 z "},"Ì":{"ha":340,"x_min":-51,"x_max":279,"o":"m -51 1300 l 119 1300 l 244 1107 l 118 1107 l -51 1300 m 85 0 l 85 1017 l 279 1017 l 279 0 l 85 0 z "},"Í":{"ha":340,"x_min":85,"x_max":414,"o":"m 118 1107 l 244 1300 l 414 1300 l 244 1107 l 118 1107 m 85 0 l 85 1017 l 279 1017 l 279 0 l 85 0 z "},"Î":{"ha":340,"x_min":-33,"x_max":396,"o":"m -33 1107 l 117 1294 l 261 1294 l 396 1107 l 267 1107 l 185 1190 l 97 1107 l -33 1107 m 85 0 l 85 1017 l 279 1017 l 279 0 l 85 0 z "},"Ï":{"ha":340,"x_min":-79,"x_max":440,"o":"m -78 1189 q -53 1246 -78 1222 q 6 1269 -29 1269 q 63 1247 39 1269 q 86 1189 86 1224 q 63 1131 86 1156 q 6 1107 39 1107 q -53 1131 -29 1107 q -78 1189 -78 1156 m 278 1189 q 301 1246 278 1222 q 358 1269 325 1269 q 417 1247 393 1269 q 440 1189 440 1224 q 417 1131 440 1156 q 358 1107 393 1107 q 301 1131 325 1107 q 278 1189 278 1156 m 85 0 l 85 1017 l 279 1017 l 279 0 l 85 0 z "},"Ð":{"ha":919,"x_min":-6,"x_max":869,"o":"m -6 472 l -6 564 l 85 564 l 85 1017 l 517 1017 q 865 613 833 1017 q 869 475 869 561 q 849 300 869 390 q 786 140 828 208 q 517 0 700 0 l 85 0 l 85 472 l -6 472 m 656 328 q 672 503 672 400 q 661 672 672 604 q 625 775 649 739 q 501 842 583 842 l 279 842 l 279 564 l 433 564 l 433 472 l 279 472 l 279 174 l 501 174 q 601 215 563 174 q 656 328 640 257 z "},"Ñ":{"ha":942,"x_min":85,"x_max":879,"o":"m 564 1232 q 688 1285 618 1232 l 721 1201 q 565 1107 633 1107 q 507 1119 536 1107 q 453 1144 478 1133 q 419 1156 429 1156 l 400 1156 q 381 1153 393 1156 q 360 1150 368 1151 q 339 1142 351 1147 q 319 1132 325 1135 q 297 1119 314 1129 q 278 1107 282 1110 l 243 1183 q 411 1281 332 1281 q 492 1256 446 1279 q 549 1232 536 1232 l 564 1232 m 85 0 l 85 1017 l 282 1017 l 685 360 l 685 1017 l 879 1017 l 879 0 l 685 0 l 281 650 l 281 0 l 85 0 z "},"Ò":{"ha":932,"x_min":68,"x_max":888,"o":"m 246 1300 l 415 1300 l 542 1107 l 415 1107 l 246 1300 m 75 363 q 69 514 69 425 q 81 681 69 601 q 108 814 90 758 q 157 907 126 868 q 219 968 189 946 q 296 1003 250 990 q 447 1024 368 1024 q 564 1021 528 1024 q 642 1008 601 1018 q 713 983 683 1000 q 772 942 743 965 q 821 875 801 915 q 856 785 840 836 q 886 544 886 682 q 875 333 886 407 q 849 206 865 258 q 803 114 832 151 q 744 53 775 75 q 668 17 713 29 q 397 -3 565 -14 q 272 18 311 1 q 206 53 233 35 q 157 100 176 72 q 119 164 138 126 q 92 251 101 203 q 75 363 81 300 m 268 622 q 264 493 264 571 q 269 361 264 415 q 289 267 275 306 q 328 208 301 228 q 478 174 375 174 q 624 210 575 174 q 692 501 692 261 q 675 717 692 664 q 642 792 657 769 q 601 826 628 814 q 500 844 558 844 q 419 842 442 844 q 369 833 396 840 q 331 811 344 826 q 300 772 315 797 q 279 711 286 747 q 268 622 272 674 z "},"Ó":{"ha":932,"x_min":68,"x_max":888,"o":"m 415 1107 l 540 1300 l 711 1300 l 542 1107 l 415 1107 m 75 363 q 69 514 69 425 q 81 681 69 601 q 108 814 90 758 q 157 907 126 868 q 219 968 189 946 q 296 1003 250 990 q 447 1024 368 1024 q 564 1021 528 1024 q 642 1008 601 1018 q 713 983 683 1000 q 772 942 743 965 q 821 875 801 915 q 856 785 840 836 q 886 544 886 682 q 875 333 886 407 q 849 206 865 258 q 803 114 832 151 q 744 53 775 75 q 668 17 713 29 q 397 -3 565 -14 q 272 18 311 1 q 206 53 233 35 q 157 100 176 72 q 119 164 138 126 q 92 251 101 203 q 75 363 81 300 m 268 622 q 264 493 264 571 q 269 361 264 415 q 289 267 275 306 q 328 208 301 228 q 478 174 375 174 q 624 210 575 174 q 692 501 692 261 q 675 717 692 664 q 642 792 657 769 q 601 826 628 814 q 500 844 558 844 q 419 842 442 844 q 369 833 396 840 q 331 811 344 826 q 300 772 315 797 q 279 711 286 747 q 268 622 272 674 z "},"Ô":{"ha":932,"x_min":68,"x_max":888,"o":"m 264 1107 l 413 1294 l 557 1294 l 692 1107 l 563 1107 l 481 1190 l 394 1107 l 264 1107 m 75 363 q 69 514 69 425 q 81 681 69 601 q 108 814 90 758 q 157 907 126 868 q 219 968 189 946 q 296 1003 250 990 q 447 1024 368 1024 q 564 1021 528 1024 q 642 1008 601 1018 q 713 983 683 1000 q 772 942 743 965 q 821 875 801 915 q 856 785 840 836 q 886 544 886 682 q 875 333 886 407 q 849 206 865 258 q 803 114 832 151 q 744 53 775 75 q 668 17 713 29 q 397 -3 565 -14 q 272 18 311 1 q 206 53 233 35 q 157 100 176 72 q 119 164 138 126 q 92 251 101 203 q 75 363 81 300 m 268 622 q 264 493 264 571 q 269 361 264 415 q 289 267 275 306 q 328 208 301 228 q 478 174 375 174 q 624 210 575 174 q 692 501 692 261 q 675 717 692 664 q 642 792 657 769 q 601 826 628 814 q 500 844 558 844 q 419 842 442 844 q 369 833 396 840 q 331 811 344 826 q 300 772 315 797 q 279 711 286 747 q 268 622 272 674 z "},"Õ":{"ha":932,"x_min":68,"x_max":888,"o":"m 560 1232 q 683 1285 614 1232 l 717 1201 q 561 1107 631 1107 q 478 1131 525 1107 q 410 1156 429 1156 q 378 1153 390 1156 q 356 1150 364 1151 q 333 1142 347 1147 q 315 1132 321 1135 q 294 1119 310 1129 q 274 1107 278 1110 l 239 1183 q 407 1281 328 1281 q 488 1256 442 1279 q 544 1232 533 1232 l 560 1232 m 75 363 q 69 514 69 425 q 81 681 69 601 q 108 814 90 758 q 157 907 126 868 q 219 968 189 946 q 296 1003 250 990 q 447 1024 368 1024 q 564 1021 528 1024 q 642 1008 601 1018 q 713 983 683 1000 q 772 942 743 965 q 821 875 801 915 q 856 785 840 836 q 886 544 886 682 q 875 333 886 407 q 849 206 865 258 q 803 114 832 151 q 744 53 775 75 q 668 17 713 29 q 397 -3 565 -14 q 272 18 311 1 q 206 53 233 35 q 157 100 176 72 q 119 164 138 126 q 92 251 101 203 q 75 363 81 300 m 268 622 q 264 493 264 571 q 269 361 264 415 q 289 267 275 306 q 328 208 301 228 q 478 174 375 174 q 624 210 575 174 q 692 501 692 261 q 675 717 692 664 q 642 792 657 769 q 601 826 628 814 q 500 844 558 844 q 419 842 442 844 q 369 833 396 840 q 331 811 344 826 q 300 772 315 797 q 279 711 286 747 q 268 622 272 674 z "},"Ö":{"ha":932,"x_min":68,"x_max":888,"o":"m 219 1189 q 231 1231 219 1211 q 294 1269 254 1271 q 358 1247 335 1269 q 382 1189 382 1224 q 358 1131 382 1156 q 307 1107 335 1107 q 261 1118 279 1107 q 231 1147 242 1129 q 219 1189 219 1167 m 597 1131 q 574 1183 574 1156 q 585 1231 574 1211 q 649 1269 608 1269 q 713 1247 689 1269 q 736 1189 736 1224 q 713 1131 736 1156 q 656 1107 689 1107 q 597 1131 622 1107 m 75 363 q 69 514 69 425 q 81 681 69 601 q 108 814 90 758 q 157 907 126 868 q 219 968 189 946 q 296 1003 250 990 q 447 1024 368 1024 q 564 1021 528 1024 q 642 1008 601 1018 q 713 983 683 1000 q 772 942 743 965 q 821 875 801 915 q 856 785 840 836 q 886 544 886 682 q 875 333 886 407 q 849 206 865 258 q 803 114 832 151 q 744 53 775 75 q 668 17 713 29 q 397 -3 565 -14 q 272 18 311 1 q 206 53 233 35 q 157 100 176 72 q 119 164 138 126 q 92 251 101 203 q 75 363 81 300 m 268 622 q 264 493 264 571 q 269 361 264 415 q 289 267 275 306 q 328 208 301 228 q 478 174 375 174 q 624 210 575 174 q 692 501 692 261 q 675 717 692 664 q 642 792 657 769 q 601 826 628 814 q 500 844 558 844 q 419 842 442 844 q 369 833 396 840 q 331 811 344 826 q 300 772 315 797 q 279 711 286 747 q 268 622 272 674 z "},"Ø":{"ha":943,"x_min":74,"x_max":893,"o":"m 163 907 q 225 968 194 946 q 300 1003 256 990 q 485 1024 374 1024 q 738 974 658 1024 l 768 1017 l 872 1017 l 801 915 q 893 501 893 794 q 810 114 893 224 q 674 17 756 40 q 494 -6 599 -6 q 325 6 390 -6 q 213 51 261 18 l 176 0 l 74 0 l 153 115 q 76 513 76 231 q 163 907 76 794 m 275 622 q 271 471 271 571 q 290 313 271 371 l 628 815 q 485 844 590 844 q 336 811 369 844 q 289 722 297 772 q 275 622 279 672 m 485 174 q 586 186 549 174 q 651 236 625 199 q 689 335 678 272 q 699 529 699 397 q 672 731 699 661 l 328 217 q 485 174 371 174 z "},"Ù":{"ha":922,"x_min":85,"x_max":861,"o":"m 240 1300 l 410 1300 l 536 1107 l 410 1107 l 240 1300 m 476 -7 l 457 -7 q 235 28 290 -7 q 176 78 210 44 q 126 157 143 110 q 85 444 85 274 l 85 1017 l 279 1017 l 279 444 q 306 249 279 311 q 399 178 329 193 q 486 172 429 172 q 583 193 544 172 q 665 444 665 238 l 665 1017 l 861 1017 l 861 444 q 797 128 861 226 q 756 72 776 93 q 706 33 736 50 q 651 11 674 18 q 592 -1 629 3 q 476 -7 544 -7 z "},"Ú":{"ha":922,"x_min":85,"x_max":861,"o":"m 410 1107 l 535 1300 l 706 1300 l 536 1107 l 410 1107 m 476 -7 l 457 -7 q 235 28 290 -7 q 176 78 210 44 q 126 157 143 110 q 85 444 85 274 l 85 1017 l 279 1017 l 279 444 q 306 249 279 311 q 399 178 329 193 q 486 172 429 172 q 583 193 544 172 q 665 444 665 238 l 665 1017 l 861 1017 l 861 444 q 797 128 861 226 q 756 72 776 93 q 706 33 736 50 q 651 11 674 18 q 592 -1 629 3 q 476 -7 544 -7 z "},"Û":{"ha":922,"x_min":85,"x_max":861,"o":"m 258 1107 l 408 1294 l 553 1294 l 686 1107 l 558 1107 l 476 1190 l 389 1107 l 258 1107 m 476 -7 l 457 -7 q 235 28 290 -7 q 176 78 210 44 q 126 157 143 110 q 85 444 85 274 l 85 1017 l 279 1017 l 279 444 q 306 249 279 311 q 399 178 329 193 q 486 172 429 172 q 583 193 544 172 q 665 444 665 238 l 665 1017 l 861 1017 l 861 444 q 797 128 861 226 q 756 72 776 93 q 706 33 736 50 q 651 11 674 18 q 592 -1 629 3 q 476 -7 544 -7 z "},"Ü":{"ha":922,"x_min":85,"x_max":861,"o":"m 239 1131 q 214 1183 214 1156 q 225 1231 214 1211 q 289 1269 249 1269 q 354 1247 331 1269 q 378 1189 378 1224 q 353 1131 378 1156 q 296 1107 329 1107 q 239 1131 263 1107 m 568 1189 q 592 1246 568 1222 q 650 1269 617 1269 q 708 1247 685 1269 q 731 1189 731 1224 q 707 1131 731 1156 q 650 1107 683 1107 q 592 1131 617 1107 q 568 1189 568 1156 m 476 -7 l 457 -7 q 235 28 290 -7 q 176 78 210 44 q 126 157 143 110 q 85 444 85 274 l 85 1017 l 279 1017 l 279 444 q 306 249 279 311 q 399 178 329 193 q 486 172 429 172 q 583 193 544 172 q 665 444 665 238 l 665 1017 l 861 1017 l 861 444 q 797 128 861 226 q 756 72 776 93 q 706 33 736 50 q 651 11 674 18 q 592 -1 629 3 q 476 -7 544 -7 z "},"Ý":{"ha":911,"x_min":47,"x_max":886,"o":"m 403 1107 l 529 1300 l 700 1300 l 531 1107 l 403 1107 m 551 0 l 357 0 l 357 315 l 47 1017 l 258 1017 l 457 529 l 675 1017 l 886 1017 l 551 315 l 551 0 z "},"Þ":{"ha":758,"x_min":64,"x_max":707,"o":"m 394 206 q 258 233 357 206 l 258 0 l 64 0 l 64 1013 l 258 1013 l 258 817 l 463 817 q 707 521 707 815 q 593 238 707 299 q 486 207 539 208 q 394 206 432 206 m 401 379 q 417 378 403 378 q 450 383 432 378 q 483 401 468 388 q 511 519 511 429 q 463 635 510 615 q 401 644 439 644 l 258 644 l 258 378 l 401 379 z "},"ß":{"ha":794,"x_min":64,"x_max":775,"o":"m 396 1085 q 710 949 628 1085 q 736 878 733 908 q 739 826 739 849 q 732 768 739 804 q 653 614 718 685 q 615 578 639 599 q 582 544 592 556 q 553 489 553 515 q 575 447 553 464 q 631 417 599 431 q 697 382 664 401 q 753 326 729 363 q 775 242 775 290 l 775 199 q 699 31 775 78 q 542 -11 632 -11 q 333 15 453 -11 l 333 153 q 493 146 458 146 q 553 165 528 146 q 581 224 579 185 l 581 257 q 504 331 581 300 q 442 358 474 343 q 389 407 410 375 q 367 494 367 439 q 392 586 367 549 q 489 683 418 625 q 546 800 546 733 q 404 908 546 908 q 322 889 354 908 q 258 717 258 853 l 258 0 l 64 0 l 64 786 q 150 1000 64 914 q 396 1085 238 1085 z "},"à":{"ha":721,"x_min":40,"x_max":669,"o":"m 139 1028 l 308 1028 l 435 835 l 308 835 l 139 1028 m 67 703 q 404 751 193 751 q 600 697 532 751 q 669 514 669 644 l 669 0 l 515 0 l 475 81 q 439 50 469 71 q 357 11 410 31 q 256 -8 304 -8 q 97 50 153 -8 q 42 188 42 110 l 42 257 q 94 403 42 346 q 257 460 147 460 l 421 460 l 475 460 l 475 494 l 475 507 q 451 581 475 563 q 357 597 428 597 q 67 582 286 597 l 67 703 m 236 215 q 254 161 236 174 q 307 147 272 147 q 383 161 342 147 q 450 190 426 176 l 475 206 l 475 340 l 296 326 q 236 251 236 321 l 236 215 z "},"á":{"ha":721,"x_min":40,"x_max":669,"o":"m 306 835 l 431 1028 l 601 1028 l 432 835 l 306 835 m 67 703 q 404 751 193 751 q 600 697 532 751 q 669 514 669 644 l 669 0 l 515 0 l 475 81 q 439 50 469 71 q 357 11 410 31 q 256 -8 304 -8 q 97 50 153 -8 q 42 188 42 110 l 42 257 q 94 403 42 346 q 257 460 147 460 l 421 460 l 475 460 l 475 494 l 475 507 q 451 581 475 563 q 357 597 428 597 q 67 582 286 597 l 67 703 m 236 215 q 254 161 236 174 q 307 147 272 147 q 383 161 342 147 q 450 190 426 176 l 475 206 l 475 340 l 296 326 q 236 251 236 321 l 236 215 z "},"â":{"ha":721,"x_min":40,"x_max":669,"o":"m 156 835 l 304 1022 l 449 1022 l 583 835 l 454 835 l 372 918 l 286 835 l 156 835 m 67 703 q 404 751 193 751 q 600 697 532 751 q 669 514 669 644 l 669 0 l 515 0 l 475 81 q 439 50 469 71 q 357 11 410 31 q 256 -8 304 -8 q 97 50 153 -8 q 42 188 42 110 l 42 257 q 94 403 42 346 q 257 460 147 460 l 421 460 l 475 460 l 475 494 l 475 507 q 451 581 475 563 q 357 597 428 597 q 67 582 286 597 l 67 703 m 236 215 q 254 161 236 174 q 307 147 272 147 q 383 161 342 147 q 450 190 426 176 l 475 206 l 475 340 l 296 326 q 236 251 236 321 l 236 215 z "},"ã":{"ha":721,"x_min":40,"x_max":669,"o":"m 449 960 q 571 1013 501 960 l 604 929 q 449 835 518 835 q 365 858 414 835 q 297 883 317 883 q 265 881 279 883 q 243 877 251 879 q 222 869 235 875 q 203 860 208 863 q 183 847 199 857 q 161 835 167 838 l 128 911 q 294 1008 215 1008 q 375 983 329 1007 q 433 960 421 960 l 449 960 m 67 703 q 404 751 193 751 q 600 697 532 751 q 669 514 669 644 l 669 0 l 515 0 l 475 81 q 439 50 469 71 q 357 11 410 31 q 256 -8 304 -8 q 97 50 153 -8 q 42 188 42 110 l 42 257 q 94 403 42 346 q 257 460 147 460 l 421 460 l 475 460 l 475 494 l 475 507 q 451 581 475 563 q 357 597 428 597 q 67 582 286 597 l 67 703 m 236 215 q 254 161 236 174 q 307 147 272 147 q 383 161 342 147 q 450 190 426 176 l 475 206 l 475 340 l 296 326 q 236 251 236 321 l 236 215 z "},"ä":{"ha":721,"x_min":40,"x_max":669,"o":"m 110 917 q 133 975 110 950 q 192 999 158 999 q 249 975 225 999 q 272 917 272 951 q 249 858 272 883 q 192 835 225 835 q 133 858 158 835 q 110 917 110 883 m 464 917 q 489 975 464 950 q 538 999 514 999 q 578 992 563 999 q 603 975 593 985 q 626 917 626 951 q 603 858 626 883 q 546 835 579 835 q 489 858 513 835 q 464 917 464 883 m 67 703 q 404 751 193 751 q 600 697 532 751 q 669 514 669 644 l 669 0 l 515 0 l 475 81 q 439 50 469 71 q 357 11 410 31 q 256 -8 304 -8 q 97 50 153 -8 q 42 188 42 110 l 42 257 q 94 403 42 346 q 257 460 147 460 l 421 460 l 475 460 l 475 494 l 475 507 q 451 581 475 563 q 357 597 428 597 q 67 582 286 597 l 67 703 m 236 215 q 254 161 236 174 q 307 147 272 147 q 383 161 342 147 q 450 190 426 176 l 475 206 l 475 340 l 296 326 q 236 251 236 321 l 236 215 z "},"å":{"ha":721,"x_min":40,"x_max":669,"o":"m 240 903 q 229 964 229 929 q 249 1031 229 997 q 300 1081 268 1063 q 372 1100 333 1100 q 442 1081 410 1100 q 492 1031 474 1063 q 511 958 511 997 q 492 886 511 918 q 442 836 474 854 q 375 817 408 817 q 317 828 342 817 q 271 857 290 838 q 240 903 251 876 m 328 1000 q 311 964 311 982 q 314 939 311 947 q 322 922 318 929 q 335 910 328 915 q 374 899 351 899 q 414 917 396 899 q 431 958 431 933 q 414 1000 431 983 q 371 1018 396 1018 q 328 1000 346 1018 m 67 703 q 404 751 193 751 q 600 697 532 751 q 669 514 669 644 l 669 0 l 515 0 l 475 81 q 439 50 469 71 q 357 11 410 31 q 256 -8 304 -8 q 97 50 153 -8 q 42 188 42 110 l 42 257 q 94 403 42 346 q 257 460 147 460 l 421 460 l 475 460 l 475 494 l 475 507 q 451 581 475 563 q 357 597 428 597 q 67 582 286 597 l 67 703 m 236 215 q 254 161 236 174 q 307 147 272 147 q 383 161 342 147 q 450 190 426 176 l 475 206 l 475 340 l 296 326 q 236 251 236 321 l 236 215 z "},"æ":{"ha":1169,"x_min":40,"x_max":1129,"o":"m 42 192 l 42 240 q 90 382 42 325 q 256 442 143 443 q 421 442 367 442 q 475 443 475 442 l 475 493 l 475 511 q 451 583 475 565 q 367 601 428 601 q 67 585 304 601 l 67 706 q 403 756 183 754 q 596 696 539 754 q 686 736 636 726 q 811 747 738 747 q 931 742 886 747 q 1017 722 976 738 q 1081 678 1058 707 q 1129 488 1129 617 q 1078 350 1129 392 q 922 310 1026 310 l 689 310 q 725 183 689 215 q 844 153 760 153 q 1115 167 1015 153 l 1115 36 q 992 8 1067 18 q 738 -3 896 -3 q 617 21 661 -3 q 536 93 571 44 q 425 31 524 67 q 254 -4 328 -4 q 97 56 153 -4 q 42 192 42 114 m 236 215 q 258 160 236 171 q 308 151 275 151 q 383 167 342 151 q 450 194 426 181 l 475 208 l 475 326 l 296 313 q 236 238 236 307 l 236 215 m 826 599 l 819 599 q 746 594 756 599 q 725 583 735 589 q 711 572 715 579 q 701 551 707 564 q 689 450 689 528 l 689 442 l 872 442 q 935 497 935 442 q 917 582 935 565 q 826 599 899 599 z "},"ç":{"ha":686,"x_min":53,"x_max":644,"o":"m 53 369 q 69 556 53 481 q 122 672 88 632 q 197 729 156 713 q 296 746 239 746 q 635 700 496 746 l 635 581 q 425 589 503 589 q 331 586 347 589 q 294 574 314 585 q 267 538 275 563 q 247 376 247 482 q 261 225 247 271 q 300 164 274 178 q 381 149 325 149 q 607 158 494 149 l 644 161 l 644 39 q 519 0 581 6 q 363 -8 429 -8 l 354 -8 l 296 -8 q 124 65 186 -8 q 53 369 53 149 m 322 -53 l 453 -53 q 419 -206 453 -161 q 297 -249 386 -249 l 219 -249 l 219 -165 l 281 -144 q 315 -114 308 -133 q 322 -53 322 -96 z "},"è":{"ha":729,"x_min":53,"x_max":688,"o":"m 147 1019 l 318 1019 l 443 828 l 317 828 l 147 1019 m 251 735 q 363 743 300 743 q 460 742 425 743 q 531 733 494 739 q 588 714 565 726 q 631 683 610 703 q 663 635 651 663 q 688 492 688 572 q 664 368 688 410 q 482 289 618 289 l 247 289 q 256 211 247 240 q 286 169 264 182 q 333 153 310 156 q 465 149 357 149 q 674 164 574 149 l 674 32 q 547 3 611 8 q 461 -4 485 -3 q 403 -6 438 -6 q 296 -7 357 -7 q 106 79 158 -7 q 53 358 53 165 q 94 633 53 553 q 251 735 138 715 m 432 429 q 493 485 493 429 q 475 575 493 554 q 399 594 456 594 q 319 592 342 594 q 278 572 299 588 q 253 524 258 556 q 247 464 247 492 l 247 429 l 432 429 z "},"é":{"ha":729,"x_min":53,"x_max":688,"o":"m 311 828 l 436 1019 l 607 1019 l 438 828 l 311 828 m 251 735 q 363 743 300 743 q 460 742 425 743 q 531 733 494 739 q 588 714 565 726 q 631 683 610 703 q 663 635 651 663 q 688 492 688 572 q 664 368 688 410 q 482 289 618 289 l 247 289 q 256 211 247 240 q 286 169 264 182 q 333 153 310 156 q 465 149 357 149 q 674 164 574 149 l 674 32 q 547 3 611 8 q 461 -4 485 -3 q 403 -6 438 -6 q 296 -7 357 -7 q 106 79 158 -7 q 53 358 53 165 q 94 633 53 553 q 251 735 138 715 m 432 429 q 493 485 493 429 q 475 575 493 554 q 399 594 456 594 q 319 592 342 594 q 278 572 299 588 q 253 524 258 556 q 247 464 247 492 l 247 429 l 432 429 z "},"ê":{"ha":729,"x_min":53,"x_max":688,"o":"m 156 828 l 306 1017 l 450 1017 l 585 828 l 456 828 l 374 911 l 286 828 l 156 828 m 251 735 q 363 743 300 743 q 460 742 425 743 q 531 733 494 739 q 588 714 565 726 q 631 683 610 703 q 663 635 651 663 q 688 492 688 572 q 664 368 688 410 q 482 289 618 289 l 247 289 q 256 211 247 240 q 286 169 264 182 q 333 153 310 156 q 465 149 357 149 q 674 164 574 149 l 674 32 q 547 3 611 8 q 461 -4 485 -3 q 403 -6 438 -6 q 296 -7 357 -7 q 106 79 158 -7 q 53 358 53 165 q 94 633 53 553 q 251 735 138 715 m 432 429 q 493 485 493 429 q 475 575 493 554 q 399 594 456 594 q 319 592 342 594 q 278 572 299 588 q 253 524 258 556 q 247 464 247 492 l 247 429 l 432 429 z "},"ë":{"ha":729,"x_min":53,"x_max":688,"o":"m 110 910 q 133 967 110 943 q 192 992 158 992 q 249 968 225 992 q 272 911 272 944 q 249 853 272 876 q 192 828 225 828 q 133 853 158 828 q 110 910 110 876 m 464 910 q 489 967 464 943 q 538 992 514 992 q 578 985 563 992 q 603 968 592 978 q 626 911 626 944 q 603 853 626 876 q 546 828 579 828 q 489 853 513 828 q 464 910 464 876 m 251 735 q 363 743 300 743 q 460 742 425 743 q 531 733 494 739 q 588 714 565 726 q 631 683 610 703 q 663 635 651 663 q 688 492 688 572 q 664 368 688 410 q 482 289 618 289 l 247 289 q 256 211 247 240 q 286 169 264 182 q 333 153 310 156 q 465 149 357 149 q 674 164 574 149 l 674 32 q 547 3 611 8 q 461 -4 485 -3 q 403 -6 438 -6 q 296 -7 357 -7 q 106 79 158 -7 q 53 358 53 165 q 94 633 53 553 q 251 735 138 715 m 432 429 q 493 485 493 429 q 475 575 493 554 q 399 594 456 594 q 319 592 342 594 q 278 572 299 588 q 253 524 258 556 q 247 464 247 492 l 247 429 l 432 429 z "},"ì":{"ha":319,"x_min":-72,"x_max":258,"o":"m -72 1019 l 99 1019 l 224 828 l 97 828 l -72 1019 m 64 0 l 64 738 l 258 738 l 258 0 l 64 0 z "},"í":{"ha":319,"x_min":64,"x_max":393,"o":"m 97 828 l 224 1019 l 393 1019 l 224 828 l 97 828 m 64 0 l 64 738 l 258 738 l 258 0 l 64 0 z "},"î":{"ha":319,"x_min":-54,"x_max":375,"o":"m -54 828 l 96 1017 l 240 1017 l 375 828 l 246 828 l 164 911 l 76 828 l -54 828 m 64 0 l 64 738 l 258 738 l 258 0 l 64 0 z "},"ï":{"ha":319,"x_min":-100,"x_max":419,"o":"m -99 910 q -75 967 -99 943 q -17 992 -50 992 q 42 968 18 992 q 65 911 65 944 q 42 853 65 876 q -17 828 18 828 q -75 853 -50 828 q -99 910 -99 876 m 256 910 q 281 967 256 943 q 339 992 304 992 q 396 968 372 992 q 419 911 419 944 q 396 853 419 876 q 339 828 372 828 q 281 853 304 828 q 256 910 256 876 m 64 0 l 64 738 l 258 738 l 258 0 l 64 0 z "},"ð":{"ha":750,"x_min":40,"x_max":708,"o":"m 101 89 q 42 364 42 176 q 103 644 42 550 q 301 738 165 738 l 379 738 q 483 724 460 738 q 404 858 458 808 l 246 785 l 207 864 l 307 910 q 164 929 254 929 q 132 928 147 929 l 132 1088 q 488 1004 363 1088 l 617 1064 l 657 983 l 563 940 q 683 675 653 839 q 708 367 708 538 q 447 0 708 0 l 301 0 q 101 89 161 0 m 247 489 q 236 365 236 446 q 247 244 236 285 q 278 193 258 204 q 333 182 296 182 l 417 182 q 496 221 478 182 q 514 374 514 260 q 497 522 514 488 q 417 558 479 558 l 333 558 q 278 544 297 558 q 247 489 258 531 z "},"ñ":{"ha":764,"x_min":64,"x_max":713,"o":"m 469 958 q 593 1011 524 958 l 626 928 q 471 833 540 833 q 388 858 436 833 q 319 882 339 882 q 286 881 300 882 q 265 876 274 878 q 244 867 257 874 q 225 858 231 861 q 206 846 221 856 q 183 833 189 836 l 149 910 q 317 1007 238 1007 q 397 982 351 1006 q 456 958 443 958 l 469 958 m 64 0 l 64 738 l 219 738 l 258 658 q 419 743 360 732 q 492 750 451 750 q 713 492 713 750 l 713 0 l 518 0 l 518 494 q 436 594 518 594 q 342 581 381 594 q 258 531 303 565 l 258 0 l 64 0 z "},"ò":{"ha":778,"x_min":51,"x_max":725,"o":"m 163 1019 l 333 1019 l 458 828 l 332 828 l 163 1019 m 53 354 q 64 514 53 450 q 99 625 75 579 q 164 696 122 669 q 389 744 240 744 q 653 661 579 744 q 725 364 725 578 q 653 72 725 151 q 389 -7 582 -7 q 125 78 200 -7 q 53 354 53 160 m 253 481 q 247 363 247 438 q 254 246 247 288 q 281 183 261 204 q 322 156 299 161 q 386 150 346 150 q 447 153 426 150 q 486 167 467 156 q 513 201 504 178 q 531 331 531 251 q 528 447 531 411 q 519 510 526 483 q 503 550 513 536 q 478 575 494 565 q 396 589 450 589 q 317 582 342 589 q 275 550 293 575 q 253 481 258 525 z "},"ó":{"ha":778,"x_min":51,"x_max":725,"o":"m 326 828 l 451 1019 l 622 1019 l 453 828 l 326 828 m 53 354 q 64 514 53 450 q 99 625 75 579 q 164 696 122 669 q 389 744 240 744 q 653 661 579 744 q 725 364 725 578 q 653 72 725 151 q 389 -7 582 -7 q 125 78 200 -7 q 53 354 53 160 m 253 481 q 247 363 247 438 q 254 246 247 288 q 281 183 261 204 q 322 156 299 161 q 386 150 346 150 q 447 153 426 150 q 486 167 467 156 q 513 201 504 178 q 531 331 531 251 q 528 447 531 411 q 519 510 526 483 q 503 550 513 536 q 478 575 494 565 q 396 589 450 589 q 317 582 342 589 q 275 550 293 575 q 253 481 258 525 z "},"ô":{"ha":778,"x_min":51,"x_max":725,"o":"m 178 828 l 328 1017 l 472 1017 l 607 828 l 478 828 l 396 911 l 308 828 l 178 828 m 53 354 q 64 514 53 450 q 99 625 75 579 q 164 696 122 669 q 389 744 240 744 q 653 661 579 744 q 725 364 725 578 q 653 72 725 151 q 389 -7 582 -7 q 125 78 200 -7 q 53 354 53 160 m 253 481 q 247 363 247 438 q 254 246 247 288 q 281 183 261 204 q 322 156 299 161 q 386 150 346 150 q 447 153 426 150 q 486 167 467 156 q 513 201 504 178 q 531 331 531 251 q 528 447 531 411 q 519 510 526 483 q 503 550 513 536 q 478 575 494 565 q 396 589 450 589 q 317 582 342 589 q 275 550 293 575 q 253 481 258 525 z "},"õ":{"ha":778,"x_min":51,"x_max":725,"o":"m 476 953 q 600 1006 531 953 l 633 922 q 478 828 547 828 q 394 853 443 828 q 326 876 346 876 q 294 875 307 876 q 272 870 281 872 q 250 861 264 868 q 233 853 238 856 q 211 840 228 850 q 190 828 196 831 l 156 904 q 324 1001 244 1001 q 404 976 358 1000 q 461 953 450 953 l 476 953 m 53 354 q 64 514 53 450 q 99 625 75 579 q 164 696 122 669 q 389 744 240 744 q 653 661 579 744 q 725 364 725 578 q 653 72 725 151 q 389 -7 582 -7 q 125 78 200 -7 q 53 354 53 160 m 253 481 q 247 363 247 438 q 254 246 247 288 q 281 183 261 204 q 322 156 299 161 q 386 150 346 150 q 447 153 426 150 q 486 167 467 156 q 513 201 504 178 q 531 331 531 251 q 528 447 531 411 q 519 510 526 483 q 503 550 513 536 q 478 575 494 565 q 396 589 450 589 q 317 582 342 589 q 275 550 293 575 q 253 481 258 525 z "},"ö":{"ha":778,"x_min":51,"x_max":725,"o":"m 131 910 q 156 967 131 943 q 214 992 179 992 q 271 968 247 992 q 294 911 294 944 q 271 853 294 876 q 214 828 247 828 q 156 853 179 828 q 131 910 131 876 m 485 910 q 508 967 485 943 q 567 992 533 992 q 625 968 601 992 q 649 911 649 944 q 625 853 649 876 q 567 828 601 828 q 508 853 533 828 q 485 910 485 876 m 53 354 q 64 514 53 450 q 99 625 75 579 q 164 696 122 669 q 389 744 240 744 q 653 661 579 744 q 725 364 725 578 q 653 72 725 151 q 389 -7 582 -7 q 125 78 200 -7 q 53 354 53 160 m 253 481 q 247 363 247 438 q 254 246 247 288 q 281 183 261 204 q 322 156 299 161 q 386 150 346 150 q 447 153 426 150 q 486 167 467 156 q 513 201 504 178 q 531 331 531 251 q 528 447 531 411 q 519 510 526 483 q 503 550 513 536 q 478 575 494 565 q 396 589 450 589 q 317 582 342 589 q 275 550 293 575 q 253 481 258 525 z "},"ø":{"ha":807,"x_min":53,"x_max":747,"o":"m 128 93 q 68 342 68 174 q 101 593 68 510 q 206 711 135 676 q 410 744 276 744 q 614 706 543 744 l 640 738 l 747 738 l 676 650 q 740 358 740 567 q 669 72 740 151 q 404 -7 597 -7 q 188 38 263 -7 l 157 0 l 53 0 l 128 93 m 268 481 q 263 369 263 438 q 275 272 263 301 l 501 565 q 417 589 476 589 q 333 582 357 589 q 292 550 308 575 q 268 481 274 525 m 494 164 q 528 201 519 178 q 546 346 546 251 q 532 474 546 440 l 301 178 q 399 150 326 150 q 494 164 471 150 z "},"ù":{"ha":764,"x_min":53,"x_max":701,"o":"m 150 1019 l 321 1019 l 446 828 l 319 828 l 150 1019 m 53 247 l 53 738 l 247 738 l 247 243 q 329 144 247 144 q 422 158 385 144 q 507 208 461 172 l 507 738 l 701 738 l 701 0 l 544 0 l 507 78 q 472 57 494 71 q 438 36 450 43 q 406 17 425 28 q 367 1 385 7 q 272 -12 324 -12 q 53 247 53 -12 z "},"ú":{"ha":764,"x_min":53,"x_max":701,"o":"m 314 828 l 439 1019 l 610 1019 l 440 828 l 314 828 m 53 247 l 53 738 l 247 738 l 247 243 q 329 144 247 144 q 422 158 385 144 q 507 208 461 172 l 507 738 l 701 738 l 701 0 l 544 0 l 507 78 q 472 57 494 71 q 438 36 450 43 q 406 17 425 28 q 367 1 385 7 q 272 -12 324 -12 q 53 247 53 -12 z "},"û":{"ha":764,"x_min":53,"x_max":701,"o":"m 163 828 l 313 1017 l 457 1017 l 592 828 l 463 828 l 381 911 l 293 828 l 163 828 m 53 247 l 53 738 l 247 738 l 247 243 q 329 144 247 144 q 422 158 385 144 q 507 208 461 172 l 507 738 l 701 738 l 701 0 l 544 0 l 507 78 q 472 57 494 71 q 438 36 450 43 q 406 17 425 28 q 367 1 385 7 q 272 -12 324 -12 q 53 247 53 -12 z "},"ü":{"ha":764,"x_min":53,"x_max":701,"o":"m 118 910 q 142 967 118 943 q 200 992 167 992 q 258 968 235 992 q 282 911 282 944 q 258 853 282 876 q 200 828 235 828 q 142 853 167 828 q 118 910 118 876 m 472 910 q 497 967 472 943 q 556 992 521 992 q 613 968 589 992 q 636 911 636 944 q 613 853 636 876 q 556 828 589 828 q 497 853 521 828 q 472 910 472 876 m 53 247 l 53 738 l 247 738 l 247 243 q 329 144 247 144 q 422 158 385 144 q 507 208 461 172 l 507 738 l 701 738 l 701 0 l 544 0 l 507 78 q 472 57 494 71 q 438 36 450 43 q 406 17 425 28 q 367 1 385 7 q 272 -12 324 -12 q 53 247 53 -12 z "},"ý":{"ha":803,"x_min":22,"x_max":778,"o":"m 338 828 l 463 1019 l 633 1019 l 464 828 l 338 828 m 22 738 l 226 738 l 354 221 q 371 188 361 196 q 386 175 381 179 q 400 169 393 172 q 411 168 407 168 q 422 167 417 168 l 428 167 l 575 738 l 778 738 l 522 -233 l 421 -375 l 282 -375 l 386 0 q 167 188 217 0 l 22 738 z "},"þ":{"ha":772,"x_min":74,"x_max":731,"o":"m 268 1086 l 268 657 q 369 717 310 690 q 490 742 431 742 q 731 367 731 742 q 664 56 731 140 q 490 -18 606 -18 q 378 -6 439 -18 q 268 33 315 8 l 268 -375 l 74 -375 l 74 1086 l 268 1086 m 439 576 q 268 528 342 572 l 268 161 q 439 135 328 139 q 492 150 472 135 q 536 382 536 188 q 439 576 536 576 z "},"ÿ":{"ha":803,"x_min":22,"x_max":778,"o":"m 142 910 q 167 967 142 943 q 224 992 190 992 q 281 968 257 992 q 304 911 304 944 q 281 853 304 876 q 224 828 257 828 q 167 853 190 828 q 142 910 142 876 m 496 910 q 519 967 496 943 q 578 992 544 992 q 635 968 611 992 q 658 911 658 944 q 635 853 658 876 q 578 828 611 828 q 519 853 544 828 q 496 910 496 876 m 22 738 l 226 738 l 354 221 q 371 188 361 196 q 386 175 381 179 q 400 169 393 172 q 411 168 407 168 q 422 167 417 168 l 428 167 l 575 738 l 778 738 l 522 -233 l 421 -375 l 282 -375 l 386 0 q 167 188 217 0 l 22 738 z "},"Ā":{"ha":961,"x_min":47,"x_max":942,"o":"m 299 1107 l 299 1217 l 704 1217 l 704 1107 l 299 1107 m 47 0 l 390 1017 l 611 1017 l 942 0 l 735 0 l 663 225 l 329 225 l 256 0 l 47 0 m 381 397 l 617 397 l 503 761 l 381 397 z "},"ā":{"ha":721,"x_min":40,"x_max":669,"o":"m 172 835 l 172 944 l 578 944 l 578 835 l 172 835 m 67 703 q 404 751 193 751 q 600 697 532 751 q 669 514 669 644 l 669 0 l 515 0 l 475 81 q 439 50 469 71 q 357 11 410 31 q 256 -8 304 -8 q 97 50 153 -8 q 42 188 42 110 l 42 257 q 94 403 42 346 q 257 460 147 460 l 421 460 l 475 460 l 475 494 l 475 507 q 451 581 475 563 q 357 597 428 597 q 67 582 286 597 l 67 703 m 236 215 q 254 161 236 174 q 307 147 272 147 q 383 161 342 147 q 450 190 426 176 l 475 206 l 475 340 l 296 326 q 236 251 236 321 l 236 215 z "},"Ă":{"ha":961,"x_min":47,"x_max":942,"o":"m 342 1265 l 422 1265 q 444 1208 422 1231 q 503 1188 465 1188 q 560 1208 539 1188 q 581 1265 581 1229 l 661 1265 q 614 1150 661 1193 q 500 1107 568 1107 q 386 1150 432 1107 q 342 1265 342 1194 m 47 0 l 390 1017 l 611 1017 l 942 0 l 735 0 l 663 225 l 329 225 l 256 0 l 47 0 m 381 397 l 617 397 l 503 761 l 381 397 z "},"ă":{"ha":721,"x_min":40,"x_max":669,"o":"m 215 993 l 296 993 q 318 936 296 958 q 376 915 340 915 q 433 936 413 915 q 454 993 454 957 l 535 993 q 489 878 535 921 q 375 835 443 835 q 261 878 307 835 q 215 993 215 922 m 67 703 q 404 751 193 751 q 600 697 532 751 q 669 514 669 644 l 669 0 l 515 0 l 475 81 q 439 50 469 71 q 357 11 410 31 q 256 -8 304 -8 q 97 50 153 -8 q 42 188 42 110 l 42 257 q 94 403 42 346 q 257 460 147 460 l 421 460 l 475 460 l 475 494 l 475 507 q 451 581 475 563 q 357 597 428 597 q 67 582 286 597 l 67 703 m 236 215 q 254 161 236 174 q 307 147 272 147 q 383 161 342 147 q 450 190 426 176 l 475 206 l 475 340 l 296 326 q 236 251 236 321 l 236 215 z "},"Ą":{"ha":961,"x_min":47,"x_max":942,"o":"m 893 -258 q 853 -262 875 -262 q 800 -251 832 -262 q 742 -211 767 -240 q 706 -132 706 -167 q 804 1 706 -49 l 882 1 q 824 -124 790 -68 q 893 -151 843 -154 l 893 -258 m 47 0 l 390 1017 l 611 1017 l 942 0 l 735 0 l 663 225 l 329 225 l 256 0 l 47 0 m 381 397 l 617 397 l 503 761 l 381 397 z "},"ą":{"ha":721,"x_min":40,"x_max":669,"o":"m 646 -258 q 607 -264 628 -264 q 553 -253 586 -264 q 494 -211 519 -242 q 458 -132 458 -168 q 557 0 458 -50 l 635 0 q 579 -58 589 -35 q 569 -96 569 -82 q 575 -119 568 -110 q 592 -137 581 -131 q 646 -153 613 -154 l 646 -258 m 67 703 q 404 751 193 751 q 600 697 532 751 q 669 514 669 644 l 669 0 l 515 0 l 475 81 q 439 50 469 71 q 357 11 410 31 q 256 -8 304 -8 q 97 50 153 -8 q 42 188 42 110 l 42 257 q 94 403 42 346 q 257 460 147 460 l 421 460 l 475 460 l 475 494 l 475 507 q 451 581 475 563 q 357 597 428 597 q 67 582 286 597 l 67 703 m 236 215 q 254 161 236 174 q 307 147 272 147 q 383 161 342 147 q 450 190 426 176 l 475 206 l 475 340 l 296 326 q 236 251 236 321 l 236 215 z "},"Ć":{"ha":793,"x_min":58,"x_max":758,"o":"m 397 1111 l 524 1303 l 693 1303 l 524 1111 l 397 1111 m 128 892 q 282 1013 183 983 q 404 1028 336 1028 q 758 982 603 1028 l 758 829 l 747 831 q 719 833 736 832 q 679 836 701 835 q 628 842 656 839 q 571 844 599 843 q 454 849 506 849 q 375 842 403 849 q 319 817 346 835 q 281 761 293 799 q 253 508 253 681 q 292 254 253 325 q 450 171 336 171 q 714 179 581 171 l 758 182 l 758 31 q 436 -8 633 -8 l 404 -8 q 139 125 218 -7 q 58 517 58 257 q 128 892 58 778 z "},"ć":{"ha":686,"x_min":53,"x_max":644,"o":"m 318 829 l 443 1022 l 614 1022 l 444 829 l 318 829 m 53 369 q 69 556 53 481 q 122 672 88 632 q 197 728 156 711 q 296 744 239 744 q 635 700 500 744 l 635 581 q 428 589 503 589 q 338 586 351 589 q 306 578 324 585 q 279 558 288 572 q 263 519 271 544 q 247 375 247 478 q 261 225 247 271 q 300 164 274 179 q 381 150 325 150 q 607 160 494 150 l 644 163 l 644 40 q 519 1 581 7 q 363 -7 429 -7 l 354 -7 l 296 -7 q 124 67 186 -7 q 53 369 53 149 z "},"Ĉ":{"ha":793,"x_min":58,"x_max":758,"o":"m 244 1111 l 394 1300 l 539 1300 l 674 1111 l 544 1111 l 463 1194 l 375 1111 l 244 1111 m 128 892 q 282 1013 183 983 q 404 1028 336 1028 q 758 982 603 1028 l 758 829 l 747 831 q 719 833 736 832 q 679 836 701 835 q 628 842 656 839 q 571 844 599 843 q 454 849 506 849 q 375 842 403 849 q 319 817 346 835 q 281 761 293 799 q 253 508 253 681 q 292 254 253 325 q 450 171 336 171 q 714 179 581 171 l 758 182 l 758 31 q 436 -8 633 -8 l 404 -8 q 139 125 218 -7 q 58 517 58 257 q 128 892 58 778 z "},"ĉ":{"ha":686,"x_min":53,"x_max":644,"o":"m 161 829 l 310 1017 l 454 1017 l 589 829 l 460 829 l 378 913 l 292 829 l 161 829 m 53 369 q 69 556 53 481 q 122 672 88 632 q 197 728 156 711 q 296 744 239 744 q 635 700 500 744 l 635 581 q 428 589 503 589 q 338 586 351 589 q 306 578 324 585 q 279 558 288 572 q 263 519 271 544 q 247 375 247 478 q 261 225 247 271 q 300 164 274 179 q 381 150 325 150 q 607 160 494 150 l 644 163 l 644 40 q 519 1 581 7 q 363 -7 429 -7 l 354 -7 l 296 -7 q 124 67 186 -7 q 53 369 53 149 z "},"Ċ":{"ha":793,"x_min":58,"x_max":758,"o":"m 376 1144 l 376 1250 q 410 1285 376 1285 l 510 1285 q 533 1275 525 1285 q 542 1250 542 1265 l 542 1144 q 510 1113 542 1113 l 410 1113 q 386 1122 396 1113 q 376 1144 376 1131 m 128 892 q 282 1013 183 983 q 404 1028 336 1028 q 758 982 603 1028 l 758 829 l 747 831 q 719 833 736 832 q 679 836 701 835 q 628 842 656 839 q 571 844 599 843 q 454 849 506 849 q 375 842 403 849 q 319 817 346 835 q 281 761 293 799 q 253 508 253 681 q 292 254 253 325 q 450 171 336 171 q 714 179 581 171 l 758 182 l 758 31 q 436 -8 633 -8 l 404 -8 q 139 125 218 -7 q 58 517 58 257 q 128 892 58 778 z "},"ċ":{"ha":686,"x_min":53,"x_max":644,"o":"m 313 863 l 313 968 q 346 1003 313 1003 l 446 1003 q 469 993 461 1003 q 478 968 478 983 l 478 863 q 446 831 478 831 l 346 831 q 322 839 331 831 q 313 863 313 847 m 53 369 q 69 556 53 481 q 122 672 88 632 q 197 728 156 711 q 296 744 239 744 q 635 700 500 744 l 635 581 q 428 589 503 589 q 338 586 351 589 q 306 578 324 585 q 279 558 288 572 q 263 519 271 544 q 247 375 247 478 q 261 225 247 271 q 300 164 274 179 q 381 150 325 150 q 607 160 494 150 l 644 163 l 644 40 q 519 1 581 7 q 363 -7 429 -7 l 354 -7 l 296 -7 q 124 67 186 -7 q 53 369 53 149 z "},"Č":{"ha":793,"x_min":58,"x_max":758,"o":"m 256 1300 l 386 1300 l 474 1217 l 554 1300 l 685 1300 l 543 1111 l 399 1111 l 256 1300 m 128 892 q 282 1013 183 983 q 404 1028 336 1028 q 758 982 603 1028 l 758 829 l 747 831 q 719 833 736 832 q 679 836 701 835 q 628 842 656 839 q 571 844 599 843 q 454 849 506 849 q 375 842 403 849 q 319 817 346 835 q 281 761 293 799 q 253 508 253 681 q 292 254 253 325 q 450 171 336 171 q 714 179 581 171 l 758 182 l 758 31 q 436 -8 633 -8 l 404 -8 q 139 125 218 -7 q 58 517 58 257 q 128 892 58 778 z "},"č":{"ha":686,"x_min":53,"x_max":644,"o":"m 163 1018 l 292 1018 l 379 935 l 461 1018 l 590 1018 l 449 829 l 304 829 l 163 1018 m 53 369 q 69 556 53 481 q 122 672 88 632 q 197 728 156 711 q 296 744 239 744 q 635 700 500 744 l 635 581 q 428 589 503 589 q 338 586 351 589 q 306 578 324 585 q 279 558 288 572 q 263 519 271 544 q 247 375 247 478 q 261 225 247 271 q 300 164 274 179 q 381 150 325 150 q 607 160 494 150 l 644 163 l 644 40 q 519 1 581 7 q 363 -7 429 -7 l 354 -7 l 296 -7 q 124 67 186 -7 q 53 369 53 149 z "},"Ď":{"ha":919,"x_min":85,"x_max":869,"o":"m 228 1292 l 357 1292 l 444 1208 l 526 1292 l 656 1292 l 514 1104 l 369 1104 l 228 1292 m 85 0 l 85 1017 l 517 1017 q 869 504 869 1017 q 718 65 869 188 q 517 0 638 0 l 85 0 m 279 174 l 501 174 q 675 506 675 174 q 594 818 675 758 q 501 844 558 844 l 279 844 l 279 174 z "},"ď":{"ha":843,"x_min":51,"x_max":915,"o":"m 74 583 q 121 682 94 651 q 293 749 178 749 q 406 736 343 749 q 517 700 468 722 l 517 1090 l 711 1090 l 711 0 l 550 0 l 517 75 q 397 11 460 29 q 293 -8 335 -8 q 108 86 164 -8 q 53 349 53 182 q 74 583 53 515 m 258 514 q 247 358 247 464 q 271 206 247 254 q 344 158 294 158 q 517 203 446 158 l 517 568 q 344 596 446 596 q 290 581 310 596 q 258 514 271 564 m 915 1085 l 915 992 l 900 806 l 796 806 l 782 992 l 781 1085 l 915 1085 z "},"Đ":{"ha":919,"x_min":-6,"x_max":869,"o":"m -6 472 l -6 564 l 85 564 l 85 1017 l 517 1017 q 865 613 833 1017 q 869 475 869 561 q 849 300 869 390 q 786 140 828 208 q 517 0 700 0 l 85 0 l 85 472 l -6 472 m 279 174 l 501 174 q 633 258 593 174 q 672 506 672 344 q 625 775 672 701 q 501 842 583 842 l 279 842 l 279 564 l 433 564 l 433 472 l 279 472 l 279 174 z "},"đ":{"ha":782,"x_min":49,"x_max":797,"o":"m 69 583 q 115 682 89 651 q 289 749 174 749 q 400 736 338 749 q 513 700 464 722 l 513 840 l 364 840 l 364 931 l 513 931 l 513 1090 l 706 1090 l 706 931 l 797 931 l 797 840 l 706 840 l 706 0 l 546 0 l 513 75 q 393 11 456 29 q 289 -8 331 -8 q 103 86 158 -8 q 49 349 49 182 q 69 583 49 515 m 256 514 q 243 358 243 464 q 267 206 243 254 q 339 158 290 158 q 513 203 442 158 l 513 568 q 339 596 440 596 q 286 581 306 596 q 256 514 267 564 z "},"Ē":{"ha":788,"x_min":79,"x_max":749,"o":"m 231 1106 l 231 1217 l 636 1217 l 636 1106 l 231 1106 m 81 200 l 81 806 q 156 978 81 932 q 290 1017 218 1017 q 478 1011 296 1017 q 749 994 660 1007 l 749 833 l 347 833 q 283 808 296 833 q 275 756 275 789 l 275 597 l 686 583 l 686 422 l 275 410 l 275 251 q 304 188 275 199 q 361 179 325 179 l 749 179 l 749 19 q 406 0 678 10 l 315 -4 l 289 -4 q 251 -3 275 -4 q 194 13 228 0 q 136 46 161 25 q 81 200 81 96 z "},"ē":{"ha":729,"x_min":53,"x_max":688,"o":"m 175 828 l 175 938 l 581 938 l 581 828 l 175 828 m 251 735 q 363 743 300 743 q 460 742 425 743 q 531 733 494 739 q 588 714 565 726 q 631 683 610 703 q 663 635 651 663 q 688 492 688 572 q 664 368 688 410 q 482 289 618 289 l 247 289 q 256 211 247 240 q 286 169 264 182 q 333 153 310 156 q 465 149 357 149 q 674 164 574 149 l 674 32 q 547 3 611 8 q 461 -4 485 -3 q 403 -6 438 -6 q 296 -7 357 -7 q 106 79 158 -7 q 53 358 53 165 q 94 633 53 553 q 251 735 138 715 m 432 429 q 493 485 493 429 q 475 575 493 554 q 399 594 456 594 q 319 592 342 594 q 278 572 299 588 q 253 524 258 556 q 247 464 247 492 l 247 429 l 432 429 z "},"Ĕ":{"ha":1389,"x_min":0,"x_max":0,"o":""},"ĕ":{"ha":1389,"x_min":0,"x_max":0,"o":""},"Ė":{"ha":788,"x_min":79,"x_max":749,"o":"m 368 1138 l 368 1243 q 401 1278 368 1278 l 501 1278 q 525 1268 517 1278 q 533 1243 533 1258 l 533 1138 q 501 1106 533 1106 l 401 1106 q 378 1114 388 1106 q 368 1138 368 1122 m 81 200 l 81 806 q 156 978 81 932 q 290 1017 218 1017 q 478 1011 296 1017 q 749 994 660 1007 l 749 833 l 347 833 q 283 808 296 833 q 275 756 275 789 l 275 597 l 686 583 l 686 422 l 275 410 l 275 251 q 304 188 275 199 q 361 179 325 179 l 749 179 l 749 19 q 406 0 678 10 l 315 -4 l 289 -4 q 251 -3 275 -4 q 194 13 228 0 q 136 46 161 25 q 81 200 81 96 z "},"ė":{"ha":729,"x_min":53,"x_max":688,"o":"m 294 860 l 294 965 q 328 1000 294 1000 l 428 1000 q 451 990 443 1000 q 460 965 460 981 l 460 860 q 428 828 460 828 l 328 828 q 303 836 313 828 q 294 860 294 846 m 251 735 q 363 743 300 743 q 460 742 425 743 q 531 733 494 739 q 588 714 565 726 q 631 683 610 703 q 663 635 651 663 q 688 492 688 572 q 664 368 688 410 q 482 289 618 289 l 247 289 q 256 211 247 240 q 286 169 264 182 q 333 153 310 156 q 465 149 357 149 q 674 164 574 149 l 674 32 q 547 3 611 8 q 461 -4 485 -3 q 403 -6 438 -6 q 296 -7 357 -7 q 106 79 158 -7 q 53 358 53 165 q 94 633 53 553 q 251 735 138 715 m 432 429 q 493 485 493 429 q 475 575 493 554 q 399 594 456 594 q 319 592 342 594 q 278 572 299 588 q 253 524 258 556 q 247 464 247 492 l 247 429 l 432 429 z "},"Ę":{"ha":788,"x_min":79,"x_max":760,"o":"m 760 -239 q 721 -243 742 -243 q 667 -233 700 -243 q 608 -192 633 -222 q 572 -112 572 -149 q 671 19 572 -31 l 749 19 q 692 -104 657 -49 q 760 -133 710 -135 l 760 -239 m 81 200 l 81 806 q 156 978 81 932 q 290 1017 218 1017 q 478 1011 296 1017 q 749 994 660 1007 l 749 833 l 347 833 q 283 808 296 833 q 275 756 275 789 l 275 597 l 686 583 l 686 422 l 275 410 l 275 251 q 304 188 275 199 q 361 179 325 179 l 749 179 l 749 19 q 406 0 678 10 l 315 -4 l 289 -4 q 251 -3 275 -4 q 194 13 228 0 q 136 46 161 25 q 81 200 81 96 z "},"ę":{"ha":729,"x_min":53,"x_max":688,"o":"m 685 -228 q 646 -232 667 -232 q 592 -221 625 -232 q 533 -179 558 -210 q 515 -36 472 -106 q 596 32 540 4 l 674 32 q 617 -92 582 -37 q 685 -121 635 -124 l 685 -228 m 251 735 q 363 743 300 743 q 460 742 425 743 q 531 733 494 739 q 588 714 565 726 q 631 683 610 703 q 663 635 651 663 q 688 492 688 572 q 664 368 688 410 q 482 289 618 289 l 247 289 q 256 211 247 240 q 286 169 264 182 q 333 153 310 156 q 465 149 357 149 q 674 164 574 149 l 674 32 q 547 3 611 8 q 461 -4 485 -3 q 403 -6 438 -6 q 296 -7 357 -7 q 106 79 158 -7 q 53 358 53 165 q 94 633 53 553 q 251 735 138 715 m 432 429 q 493 485 493 429 q 475 575 493 554 q 399 594 456 594 q 319 592 342 594 q 278 572 299 588 q 253 524 258 556 q 247 464 247 492 l 247 429 l 432 429 z "},"Ě":{"ha":788,"x_min":79,"x_max":749,"o":"m 229 1292 l 360 1292 l 447 1208 l 528 1292 l 658 1292 l 517 1104 l 372 1104 l 229 1292 m 81 200 l 81 806 q 156 978 81 932 q 290 1017 218 1017 q 478 1011 296 1017 q 749 994 660 1007 l 749 833 l 347 833 q 283 808 296 833 q 275 756 275 789 l 275 597 l 686 583 l 686 422 l 275 410 l 275 251 q 304 188 275 199 q 361 179 325 179 l 749 179 l 749 19 q 406 0 678 10 l 315 -4 l 289 -4 q 251 -3 275 -4 q 194 13 228 0 q 136 46 161 25 q 81 200 81 96 z "},"ě":{"ha":729,"x_min":53,"x_max":688,"o":"m 168 1013 l 299 1013 l 386 929 l 467 1013 l 597 1013 l 456 825 l 311 825 l 168 1013 m 251 735 q 363 743 300 743 q 460 742 425 743 q 531 733 494 739 q 588 714 565 726 q 631 683 610 703 q 663 635 651 663 q 688 492 688 572 q 664 368 688 410 q 482 289 618 289 l 247 289 q 256 211 247 240 q 286 169 264 182 q 333 153 310 156 q 465 149 357 149 q 674 164 574 149 l 674 32 q 547 3 611 8 q 461 -4 485 -3 q 403 -6 438 -6 q 296 -7 357 -7 q 106 79 158 -7 q 53 358 53 165 q 94 633 53 553 q 251 735 138 715 m 432 429 q 493 485 493 429 q 475 575 493 554 q 399 594 456 594 q 319 592 342 594 q 278 572 299 588 q 253 524 258 556 q 247 464 247 492 l 247 429 l 432 429 z "},"Ĝ":{"ha":853,"x_min":58,"x_max":796,"o":"m 250 1111 l 399 1300 l 543 1300 l 678 1111 l 549 1111 l 467 1194 l 381 1111 l 250 1111 m 64 347 q 58 514 58 418 q 67 681 58 608 q 94 822 74 754 q 154 933 117 889 q 390 1028 233 1028 q 592 1019 508 1028 q 781 983 674 1010 l 781 832 q 758 835 779 832 q 700 842 736 838 q 624 847 665 844 q 436 856 524 856 q 289 781 325 856 q 253 508 253 707 q 286 243 253 310 q 428 175 321 175 q 514 192 469 175 q 579 222 557 207 l 601 239 l 601 421 l 460 421 l 460 544 q 701 578 542 578 q 796 575 746 578 l 796 0 l 657 0 l 604 68 q 500 8 556 22 q 244 17 349 -29 q 147 88 183 43 q 92 203 113 132 q 64 347 71 275 z "},"ĝ":{"ha":778,"x_min":47,"x_max":758,"o":"m 172 828 l 321 1017 l 465 1017 l 600 828 l 471 828 l 389 911 l 303 828 l 172 828 m 281 207 q 225 175 225 207 q 239 144 225 153 q 281 138 254 138 l 507 138 q 667 83 610 138 q 725 -81 725 28 l 725 -161 q 588 -362 725 -322 q 494 -375 547 -375 l 286 -375 q 74 -256 124 -375 q 56 -161 56 -215 l 56 -68 l 121 0 q 58 79 78 24 q 49 149 49 108 q 69 225 49 189 q 135 274 92 260 q 74 357 93 300 q 54 478 54 414 q 310 740 54 740 l 758 740 l 758 625 l 676 600 q 681 589 676 599 q 686 575 685 578 q 689 564 686 574 q 694 549 693 554 q 697 532 696 543 q 701 510 700 521 q 704 450 704 479 q 697 388 704 418 q 675 322 692 354 q 631 264 657 288 q 451 207 568 207 l 281 207 m 251 -137 q 272 -203 251 -187 q 339 -219 294 -219 l 453 -219 q 517 -200 501 -219 q 532 -142 532 -179 l 532 -87 q 515 -37 532 -54 q 460 -19 499 -21 l 310 -19 l 251 -15 l 251 -137 m 249 478 q 338 364 249 364 l 415 364 q 510 472 510 364 q 488 558 510 535 q 414 583 465 583 l 340 583 q 267 556 286 583 q 249 478 249 526 z "},"Ğ":{"ha":853,"x_min":58,"x_max":796,"o":"m 294 1269 l 375 1269 q 397 1214 375 1235 q 456 1192 418 1192 q 513 1213 492 1192 q 533 1269 533 1233 l 614 1269 q 592 1185 614 1221 q 453 1111 547 1111 q 339 1156 385 1111 q 294 1269 294 1199 m 64 347 q 58 514 58 418 q 67 681 58 608 q 94 822 74 754 q 154 933 117 889 q 390 1028 233 1028 q 592 1019 508 1028 q 781 983 674 1010 l 781 832 q 758 835 779 832 q 700 842 736 838 q 624 847 665 844 q 436 856 524 856 q 289 781 325 856 q 253 508 253 707 q 286 243 253 310 q 428 175 321 175 q 514 192 469 175 q 579 222 557 207 l 601 239 l 601 421 l 460 421 l 460 544 q 701 578 542 578 q 796 575 746 578 l 796 0 l 657 0 l 604 68 q 500 8 556 22 q 244 17 349 -29 q 147 88 183 43 q 92 203 113 132 q 64 347 71 275 z "},"ğ":{"ha":778,"x_min":47,"x_max":758,"o":"m 226 986 l 307 986 q 329 931 307 951 q 388 908 351 908 q 444 929 424 908 q 465 986 465 950 l 546 986 q 500 871 546 914 q 386 828 454 828 q 272 872 318 828 q 226 986 226 915 m 281 207 q 225 175 225 207 q 239 144 225 153 q 281 138 254 138 l 507 138 q 667 83 610 138 q 725 -81 725 28 l 725 -161 q 588 -362 725 -322 q 494 -375 547 -375 l 286 -375 q 74 -256 124 -375 q 56 -161 56 -215 l 56 -68 l 121 0 q 58 79 78 24 q 49 149 49 108 q 69 225 49 189 q 135 274 92 260 q 74 357 93 300 q 54 478 54 414 q 310 740 54 740 l 758 740 l 758 625 l 676 600 q 681 589 676 599 q 686 575 685 578 q 689 564 686 574 q 694 549 693 554 q 697 532 696 543 q 701 510 700 521 q 704 450 704 479 q 697 388 704 418 q 675 322 692 354 q 631 264 657 288 q 451 207 568 207 l 281 207 m 251 -137 q 272 -203 251 -187 q 339 -219 294 -219 l 453 -219 q 517 -200 501 -219 q 532 -142 532 -179 l 532 -87 q 515 -37 532 -54 q 460 -19 499 -21 l 310 -19 l 251 -15 l 251 -137 m 249 478 q 338 364 249 364 l 415 364 q 510 472 510 364 q 488 558 510 535 q 414 583 465 583 l 340 583 q 267 556 286 583 q 249 478 249 526 z "},"Ġ":{"ha":853,"x_min":58,"x_max":796,"o":"m 369 1143 l 369 1249 q 403 1283 369 1283 l 503 1283 q 526 1274 518 1283 q 535 1249 535 1264 l 535 1143 q 503 1111 535 1111 l 403 1111 q 379 1119 389 1111 q 369 1143 369 1129 m 64 347 q 58 514 58 418 q 67 681 58 608 q 94 822 74 754 q 154 933 117 889 q 390 1028 233 1028 q 592 1019 508 1028 q 781 983 674 1010 l 781 832 q 758 835 779 832 q 700 842 736 838 q 624 847 665 844 q 436 856 524 856 q 289 781 325 856 q 253 508 253 707 q 286 243 253 310 q 428 175 321 175 q 514 192 469 175 q 579 222 557 207 l 601 239 l 601 421 l 460 421 l 460 544 q 701 578 542 578 q 796 575 746 578 l 796 0 l 657 0 l 604 68 q 500 8 556 22 q 244 17 349 -29 q 147 88 183 43 q 92 203 113 132 q 64 347 71 275 z "},"ġ":{"ha":778,"x_min":47,"x_max":758,"o":"m 307 861 l 307 967 q 340 1001 307 1001 l 440 1001 q 464 992 456 1001 q 472 967 472 982 l 472 861 q 440 829 472 829 l 340 829 q 317 839 326 829 q 307 861 307 847 m 281 207 q 225 175 225 207 q 239 144 225 153 q 281 138 254 138 l 507 138 q 667 83 610 138 q 725 -81 725 28 l 725 -161 q 588 -362 725 -322 q 494 -375 547 -375 l 286 -375 q 74 -256 124 -375 q 56 -161 56 -215 l 56 -68 l 121 0 q 58 79 78 24 q 49 149 49 108 q 69 225 49 189 q 135 274 92 260 q 74 357 93 300 q 54 478 54 414 q 310 740 54 740 l 758 740 l 758 625 l 676 600 q 681 589 676 599 q 686 575 685 578 q 689 564 686 574 q 694 549 693 554 q 697 532 696 543 q 701 510 700 521 q 704 450 704 479 q 697 388 704 418 q 675 322 692 354 q 631 264 657 288 q 451 207 568 207 l 281 207 m 251 -137 q 272 -203 251 -187 q 339 -219 294 -219 l 453 -219 q 517 -200 501 -219 q 532 -142 532 -179 l 532 -87 q 515 -37 532 -54 q 460 -19 499 -21 l 310 -19 l 251 -15 l 251 -137 m 249 478 q 338 364 249 364 l 415 364 q 510 472 510 364 q 488 558 510 535 q 414 583 465 583 l 340 583 q 267 556 286 583 q 249 478 249 526 z "},"Ģ":{"ha":853,"x_min":58,"x_max":796,"o":"m 351 -249 l 351 -140 q 383 -107 351 -107 l 488 -107 q 518 -140 518 -107 l 518 -294 q 501 -358 518 -333 q 461 -389 485 -382 q 408 -397 432 -397 q 375 -394 386 -397 l 358 -390 l 358 -329 q 385 -325 375 -331 q 397 -297 397 -317 l 397 -281 l 383 -281 q 351 -249 351 -281 m 64 347 q 58 514 58 418 q 67 681 58 608 q 94 822 74 754 q 154 933 117 889 q 390 1028 233 1028 q 592 1019 508 1028 q 781 983 674 1010 l 781 832 q 758 835 779 832 q 700 842 736 838 q 624 847 665 844 q 436 856 524 856 q 289 781 325 856 q 253 508 253 707 q 286 243 253 310 q 428 175 321 175 q 514 192 469 175 q 579 222 557 207 l 601 239 l 601 421 l 460 421 l 460 544 q 701 578 542 578 q 796 575 746 578 l 796 0 l 657 0 l 604 68 q 500 8 556 22 q 244 17 349 -29 q 147 88 183 43 q 92 203 113 132 q 64 347 71 275 z "},"ģ":{"ha":778,"x_min":49,"x_max":758,"o":"m 300 857 l 300 1011 q 317 1075 300 1050 q 356 1106 333 1099 q 408 1114 385 1114 q 443 1111 431 1114 l 460 1107 l 460 1047 q 433 1042 443 1047 q 421 1015 421 1033 l 421 997 l 435 997 q 465 967 465 997 l 465 857 q 435 824 465 824 l 329 824 q 300 857 300 824 m 49 142 q 69 228 49 192 q 135 274 92 264 q 74 357 93 300 q 54 478 54 414 q 310 740 54 740 l 758 740 l 758 625 l 676 600 q 681 589 676 599 q 686 575 685 578 q 689 564 686 574 q 694 549 693 554 q 697 532 696 543 q 701 510 700 521 q 704 450 704 479 q 697 388 704 418 q 675 322 692 354 q 631 264 657 288 q 451 207 568 207 l 281 207 q 225 174 225 207 q 233 150 225 158 q 251 140 243 142 q 281 136 260 139 l 503 110 q 669 50 613 99 q 725 -115 725 0 l 725 -161 q 588 -362 725 -322 q 494 -375 547 -375 l 286 -375 q 74 -256 124 -375 q 56 -161 56 -215 l 56 -60 l 128 7 q 49 142 49 50 m 251 -137 q 272 -203 251 -187 q 338 -218 294 -218 l 453 -218 q 517 -199 501 -218 q 532 -142 532 -179 l 532 -114 q 447 -46 532 -56 l 251 -22 l 251 -137 m 340 592 q 249 474 249 592 q 338 356 249 356 l 415 356 q 510 472 510 356 q 488 565 510 539 q 414 592 465 592 l 340 592 z "},"Ĥ":{"ha":883,"x_min":85,"x_max":822,"o":"m 239 1107 l 389 1294 l 533 1294 l 667 1107 l 539 1107 l 457 1190 l 369 1107 l 239 1107 m 85 0 l 85 1017 l 279 1017 l 279 581 l 628 581 l 628 1017 l 822 1017 l 822 0 l 628 0 l 628 403 l 279 403 l 279 0 l 85 0 z "},"ĥ":{"ha":764,"x_min":-108,"x_max":653,"o":"m -108 1171 l 40 1358 l 185 1358 l 319 1171 l 190 1171 l 108 1254 l 22 1171 l -108 1171 m 4 0 l 4 1088 l 199 1088 l 199 658 q 360 743 297 731 q 433 750 393 750 q 653 492 653 750 l 653 0 l 458 0 l 458 494 q 378 594 458 594 q 283 581 321 594 q 199 531 244 565 l 199 0 l 4 0 z "},"Ħ":{"ha":953,"x_min":21,"x_max":932,"o":"m 21 717 l 21 807 l 108 807 l 108 1017 l 303 1017 l 303 807 l 651 807 l 651 1017 l 846 1017 l 846 807 l 932 807 l 932 717 l 846 717 l 846 0 l 651 0 l 651 403 l 303 403 l 303 0 l 108 0 l 108 717 l 21 717 m 303 581 l 651 581 l 651 717 l 303 717 l 303 581 z "},"ħ":{"ha":783,"x_min":-11,"x_max":733,"o":"m 522 750 q 732 492 732 750 l 732 0 l 536 0 l 536 493 q 515 569 535 546 q 451 594 496 594 q 279 531 361 592 l 279 0 l 83 0 l 83 839 l -11 839 l -11 931 l 83 931 l 83 1088 l 279 1088 l 279 931 l 435 931 l 435 839 l 279 839 l 279 658 q 308 678 288 664 q 342 697 331 692 q 371 714 351 703 q 404 728 390 724 q 438 739 418 733 q 496 750 472 750 l 522 750 z "},"Ĩ":{"ha":340,"x_min":-57,"x_max":419,"o":"m 264 1232 q 386 1285 317 1232 l 419 1201 q 265 1107 333 1107 q 181 1131 229 1107 q 114 1156 133 1156 q 81 1153 94 1156 q 58 1150 68 1151 q 38 1142 50 1147 l 19 1132 q -3 1119 14 1129 q -24 1107 -18 1110 l -57 1183 q 111 1281 32 1281 q 190 1256 144 1279 q 249 1232 236 1232 l 264 1232 m 85 0 l 85 1017 l 279 1017 l 279 0 l 85 0 z "},"ĩ":{"ha":319,"x_min":-78,"x_max":399,"o":"m 243 953 q 365 1006 296 953 l 399 922 q 243 828 313 828 q 160 853 208 828 q 92 876 111 876 q 60 875 74 876 q 38 869 46 872 q 17 861 29 868 l -1 853 q -22 840 -7 850 q -44 828 -39 831 l -78 904 q 90 1001 11 1001 q 169 976 124 1000 q 228 953 215 953 l 243 953 m 64 0 l 64 738 l 258 738 l 258 0 l 64 0 z "},"Ī":{"ha":340,"x_min":-21,"x_max":385,"o":"m -21 1107 l -21 1217 l 385 1217 l 385 1107 l -21 1107 m 85 0 l 85 1017 l 279 1017 l 279 0 l 85 0 z "},"ī":{"ha":319,"x_min":-42,"x_max":364,"o":"m -42 828 l -42 939 l 364 939 l 364 828 l -42 828 m 64 0 l 64 738 l 258 738 l 258 0 l 64 0 z "},"Į":{"ha":340,"x_min":53,"x_max":279,"o":"m 242 -258 q 201 -262 222 -262 q 147 -253 181 -262 q 89 -211 114 -242 q 53 -132 53 -168 q 153 0 53 -50 l 229 0 q 172 -124 138 -68 q 242 -153 192 -154 l 242 -258 m 85 0 l 85 1017 l 279 1017 l 279 0 l 85 0 z "},"į":{"ha":315,"x_min":26,"x_max":264,"o":"m 214 -258 q 175 -262 196 -262 q 119 -253 153 -262 q 63 -211 88 -242 q 26 -132 26 -168 q 125 0 26 -50 l 201 0 q 144 -124 110 -68 q 214 -153 164 -154 l 214 -258 m 53 847 l 53 969 q 86 1006 53 1006 l 232 1006 q 263 969 263 1006 l 263 847 q 232 815 263 815 l 86 815 q 61 824 71 815 q 53 847 53 832 m 60 0 l 60 738 l 254 738 l 254 0 l 60 0 z "},"İ":{"ha":340,"x_min":85,"x_max":279,"o":"m 99 1139 l 99 1244 q 132 1279 99 1279 l 232 1279 q 256 1269 247 1279 q 264 1244 264 1260 l 264 1139 q 232 1107 264 1107 l 132 1107 q 108 1117 118 1107 q 99 1139 99 1125 m 85 0 l 85 1017 l 279 1017 l 279 0 l 85 0 z "},"ı":{"ha":319,"x_min":64,"x_max":258,"o":"m 64 0 l 64 738 l 258 738 l 258 0 l 64 0 z "},"Ĵ":{"ha":494,"x_min":38,"x_max":550,"o":"m 121 1107 l 271 1294 l 415 1294 l 550 1107 l 421 1107 l 339 1190 l 251 1107 l 121 1107 m 360 25 q 203 -7 307 -7 q 38 32 97 -7 l 40 183 q 111 179 88 179 q 147 181 136 179 q 239 314 238 183 l 239 1017 l 433 1017 l 433 229 q 431 156 433 186 q 408 86 426 125 q 360 25 392 46 z "},"ĵ":{"ha":336,"x_min":-42,"x_max":386,"o":"m -42 828 l 108 1035 l 251 1035 l 386 828 l 264 828 l 174 924 l 82 828 l -42 828 m 75 -375 l 75 738 l 272 738 l 272 -6 l 272 -28 q 221 -375 272 -250 l 75 -375 z "},"Ķ":{"ha":872,"x_min":85,"x_max":838,"o":"m 351 -242 l 351 -133 q 382 -100 351 -100 l 488 -100 q 517 -133 517 -100 l 517 -287 q 500 -350 517 -326 q 461 -382 485 -375 q 408 -390 432 -390 q 374 -387 386 -390 l 357 -383 l 357 -322 q 383 -318 374 -324 q 396 -292 396 -310 l 396 -274 l 382 -274 q 351 -242 351 -274 m 85 0 l 85 1017 l 271 1017 l 271 592 l 353 592 l 611 1017 l 838 1017 l 526 507 l 838 0 l 611 0 l 353 419 l 272 419 l 272 0 l 85 0 z "},"ķ":{"ha":774,"x_min":64,"x_max":754,"o":"m 299 -242 l 299 -133 q 331 -100 299 -100 l 436 -100 q 465 -133 465 -100 l 465 -287 q 449 -350 465 -326 q 408 -382 432 -375 q 358 -390 381 -390 q 322 -387 335 -390 l 306 -383 l 306 -322 q 332 -318 322 -324 q 344 -292 344 -310 l 344 -274 l 331 -274 q 299 -242 299 -274 m 64 0 l 64 1086 l 258 1086 l 258 490 l 299 490 l 507 738 l 754 738 l 478 417 l 754 0 l 522 0 l 299 342 l 258 342 l 258 0 l 64 0 z "},"ĸ":{"ha":790,"x_min":64,"x_max":769,"o":"m 64 0 l 64 738 l 258 738 l 258 439 l 329 439 l 536 738 l 769 738 l 504 367 l 743 0 l 515 0 l 325 292 l 260 292 l 258 0 l 64 0 z "},"Ĺ":{"ha":749,"x_min":85,"x_max":714,"o":"m 118 1107 l 244 1300 l 414 1300 l 244 1107 l 118 1107 m 85 197 l 85 1017 l 279 1017 l 279 251 q 308 188 279 199 q 365 179 329 179 l 714 179 l 714 0 l 296 0 q 85 197 85 0 z "},"ĺ":{"ha":435,"x_min":64,"x_max":415,"o":"m 117 1171 l 243 1364 l 413 1364 l 243 1171 l 117 1171 m 64 263 l 64 1088 l 258 1088 l 258 293 q 274 190 258 219 q 322 149 289 161 q 415 119 406 119 l 415 0 l 254 0 q 111 61 160 0 q 64 263 64 121 z "},"Ļ":{"ha":749,"x_min":85,"x_max":714,"o":"m 325 -239 l 325 -129 q 357 -96 325 -96 l 461 -96 q 492 -129 492 -96 l 492 -283 q 475 -347 492 -322 q 435 -378 458 -371 q 383 -386 406 -386 q 347 -383 360 -386 l 332 -379 l 332 -319 q 358 -314 349 -319 q 369 -287 369 -306 l 369 -269 l 357 -269 q 325 -239 325 -269 m 85 197 l 85 1017 l 279 1017 l 279 251 q 308 188 279 199 q 365 179 329 179 l 714 179 l 714 0 l 296 0 q 85 197 85 0 z "},"ļ":{"ha":435,"x_min":64,"x_max":415,"o":"m 156 -239 l 156 -131 q 186 -97 156 -97 l 292 -97 q 321 -131 321 -97 l 321 -285 q 306 -347 321 -324 q 265 -378 289 -371 q 214 -386 236 -386 q 178 -383 190 -386 l 161 -381 l 161 -319 q 188 -314 179 -321 q 200 -287 200 -307 l 200 -271 l 186 -271 q 156 -239 156 -271 m 64 263 l 64 1088 l 258 1088 l 258 293 q 274 190 258 219 q 322 149 289 161 q 415 119 406 119 l 415 0 l 254 0 q 111 61 160 0 q 64 263 64 121 z "},"Ľ":{"ha":749,"x_min":85,"x_max":714,"o":"m 85 197 l 85 1017 l 279 1017 l 279 251 q 308 188 279 199 q 365 179 329 179 l 714 179 l 714 0 l 296 0 q 85 197 85 0 m 365 1072 l 499 1072 l 499 979 l 485 793 l 381 793 l 365 979 l 365 1072 z "},"ľ":{"ha":497,"x_min":63,"x_max":482,"o":"m 64 263 l 64 1088 l 258 1088 l 258 293 q 272 190 258 218 q 322 149 286 163 q 415 119 406 119 l 415 0 l 254 0 q 108 58 154 0 q 64 263 64 118 m 349 1086 l 482 1086 l 482 993 l 468 807 l 364 807 l 349 993 l 349 1086 z "},"Ŀ":{"ha":1389,"x_min":0,"x_max":0,"o":""},"ŀ":{"ha":1389,"x_min":0,"x_max":0,"o":""},"Ł":{"ha":792,"x_min":19,"x_max":757,"o":"m 128 1017 l 322 1017 l 322 653 l 479 719 l 478 621 l 322 553 l 322 251 q 351 188 322 199 q 408 179 374 179 l 757 179 l 757 0 l 340 0 q 128 197 128 0 l 128 469 l 19 424 l 19 524 l 128 569 l 128 1017 z "},"ł":{"ha":496,"x_min":15,"x_max":474,"o":"m 119 1088 l 314 1088 l 314 714 l 474 783 l 474 683 l 314 614 l 314 293 q 329 190 314 219 q 378 149 344 161 q 471 119 461 119 l 471 0 l 310 0 q 167 61 215 0 q 119 263 119 121 l 119 532 l 15 486 l 15 586 l 119 631 l 119 1088 z "},"Ń":{"ha":942,"x_min":85,"x_max":879,"o":"m 425 1107 l 550 1300 l 721 1300 l 551 1107 l 425 1107 m 85 0 l 85 1017 l 282 1017 l 685 360 l 685 1017 l 879 1017 l 879 0 l 685 0 l 281 650 l 281 0 l 85 0 z "},"ń":{"ha":764,"x_min":64,"x_max":713,"o":"m 322 833 l 449 1025 l 618 1025 l 449 833 l 322 833 m 64 0 l 64 738 l 219 738 l 258 658 q 419 743 360 732 q 492 750 451 750 q 713 492 713 750 l 713 0 l 518 0 l 518 494 q 436 594 518 594 q 342 581 381 594 q 258 531 303 565 l 258 0 l 64 0 z "},"Ņ":{"ha":942,"x_min":85,"x_max":879,"o":"m 393 -242 l 393 -133 q 425 -100 393 -100 l 531 -100 q 560 -133 560 -100 l 560 -287 q 543 -350 560 -326 q 503 -382 526 -375 q 453 -390 475 -390 q 417 -387 429 -390 l 400 -383 l 400 -322 q 426 -318 417 -324 q 439 -292 439 -310 l 439 -274 l 425 -274 q 393 -242 393 -274 m 85 0 l 85 1017 l 282 1017 l 685 360 l 685 1017 l 879 1017 l 879 0 l 685 0 l 281 650 l 281 0 l 85 0 z "},"ņ":{"ha":764,"x_min":64,"x_max":713,"o":"m 300 -242 l 300 -133 q 332 -100 300 -100 l 436 -100 q 467 -133 467 -100 l 467 -287 q 450 -350 467 -326 q 410 -382 433 -375 q 358 -390 381 -390 q 324 -387 335 -390 l 307 -383 l 307 -322 q 333 -318 324 -324 q 346 -292 346 -310 l 346 -274 l 332 -274 q 300 -242 300 -274 m 64 0 l 64 738 l 219 738 l 258 658 q 419 743 360 732 q 492 750 451 750 q 713 492 713 750 l 713 0 l 518 0 l 518 494 q 436 594 518 594 q 342 581 381 594 q 258 531 303 565 l 258 0 l 64 0 z "},"Ň":{"ha":942,"x_min":85,"x_max":879,"o":"m 274 1294 l 404 1294 l 492 1211 l 572 1294 l 703 1294 l 561 1107 l 417 1107 l 274 1294 m 85 0 l 85 1017 l 282 1017 l 685 360 l 685 1017 l 879 1017 l 879 0 l 685 0 l 281 650 l 281 0 l 85 0 z "},"ň":{"ha":764,"x_min":64,"x_max":713,"o":"m 181 1022 l 310 1022 l 397 939 l 479 1022 l 608 1022 l 468 833 l 324 833 l 181 1022 m 64 0 l 64 738 l 219 738 l 258 658 q 419 743 360 732 q 492 750 451 750 q 713 492 713 750 l 713 0 l 518 0 l 518 494 q 436 594 518 594 q 342 581 381 594 q 258 531 303 565 l 258 0 l 64 0 z "},"Ŋ":{"ha":940,"x_min":85,"x_max":878,"o":"m 85 0 l 85 1017 l 282 1017 l 683 365 l 683 1017 l 878 1017 l 878 -101 q 803 -300 878 -242 q 628 -357 726 -357 l 586 -357 l 528 -357 l 528 -217 q 556 -212 533 -215 q 584 -209 576 -210 q 610 -203 592 -208 q 635 -194 628 -199 q 653 -179 642 -189 q 671 -158 665 -169 q 683 -89 683 -126 l 683 0 l 281 650 l 279 0 l 85 0 z "},"ŋ":{"ha":774,"x_min":64,"x_max":713,"o":"m 492 750 q 713 492 713 750 l 713 0 l 711 -94 q 658 -262 708 -201 q 549 -344 607 -322 q 439 -372 490 -365 l 389 -267 q 492 -201 469 -235 q 518 -100 517 -162 l 518 494 q 436 594 518 594 q 342 581 381 594 q 258 531 303 565 l 258 0 l 64 0 l 64 738 l 219 738 l 258 658 q 299 685 271 667 q 342 711 326 703 q 381 731 356 719 q 492 750 426 750 z "},"Ō":{"ha":932,"x_min":68,"x_max":888,"o":"m 275 1107 l 275 1217 l 681 1217 l 681 1107 l 275 1107 m 75 363 q 69 514 69 425 q 81 681 69 601 q 108 814 90 758 q 157 907 126 868 q 219 968 189 946 q 296 1003 250 990 q 447 1024 368 1024 q 564 1021 528 1024 q 642 1008 601 1018 q 713 983 683 1000 q 772 942 743 965 q 821 875 801 915 q 856 785 840 836 q 886 544 886 682 q 875 333 886 407 q 849 206 865 258 q 803 114 832 151 q 744 53 775 75 q 668 17 713 29 q 397 -3 565 -14 q 272 18 311 1 q 206 53 233 35 q 157 100 176 72 q 119 164 138 126 q 92 251 101 203 q 75 363 81 300 m 268 622 q 264 493 264 571 q 269 361 264 415 q 289 267 275 306 q 328 208 301 228 q 478 174 375 174 q 624 210 575 174 q 692 501 692 261 q 675 717 692 664 q 642 792 657 769 q 601 826 628 814 q 500 844 558 844 q 419 842 442 844 q 369 833 396 840 q 331 811 344 826 q 300 772 315 797 q 279 711 286 747 q 268 622 272 674 z "},"ō":{"ha":778,"x_min":51,"x_max":725,"o":"m 186 828 l 186 939 l 592 939 l 592 828 l 186 828 m 53 354 q 64 514 53 450 q 99 625 75 579 q 164 696 122 669 q 389 744 240 744 q 653 661 579 744 q 725 364 725 578 q 653 72 725 151 q 389 -7 582 -7 q 125 78 200 -7 q 53 354 53 160 m 253 481 q 247 363 247 438 q 254 246 247 288 q 281 183 261 204 q 322 156 299 161 q 386 150 346 150 q 447 153 426 150 q 486 167 467 156 q 513 201 504 178 q 531 331 531 251 q 528 447 531 411 q 519 510 526 483 q 503 550 513 536 q 478 575 494 565 q 396 589 450 589 q 317 582 342 589 q 275 550 293 575 q 253 481 258 525 z "},"Ő":{"ha":932,"x_min":68,"x_max":888,"o":"m 307 1107 l 432 1300 l 603 1300 l 433 1107 l 307 1107 m 522 1107 l 649 1300 l 819 1300 l 650 1107 l 522 1107 m 75 363 q 69 514 69 425 q 81 681 69 601 q 108 814 90 758 q 157 907 126 868 q 219 968 189 946 q 296 1003 250 990 q 447 1024 368 1024 q 564 1021 528 1024 q 642 1008 601 1018 q 713 983 683 1000 q 772 942 743 965 q 821 875 801 915 q 856 785 840 836 q 886 544 886 682 q 875 333 886 407 q 849 206 865 258 q 803 114 832 151 q 744 53 775 75 q 668 17 713 29 q 397 -3 565 -14 q 272 18 311 1 q 206 53 233 35 q 157 100 176 72 q 119 164 138 126 q 92 251 101 203 q 75 363 81 300 m 268 622 q 264 493 264 571 q 269 361 264 415 q 289 267 275 306 q 328 208 301 228 q 478 174 375 174 q 624 210 575 174 q 692 501 692 261 q 675 717 692 664 q 642 792 657 769 q 601 826 628 814 q 500 844 558 844 q 419 842 442 844 q 369 833 396 840 q 331 811 344 826 q 300 772 315 797 q 279 711 286 747 q 268 622 272 674 z "},"ő":{"ha":778,"x_min":51,"x_max":731,"o":"m 218 828 l 343 1019 l 514 1019 l 344 828 l 218 828 m 435 828 l 560 1019 l 731 1019 l 561 828 l 435 828 m 53 354 q 64 514 53 450 q 99 625 75 579 q 164 696 122 669 q 389 744 240 744 q 653 661 579 744 q 725 364 725 578 q 653 72 725 151 q 389 -7 582 -7 q 125 78 200 -7 q 53 354 53 160 m 253 481 q 247 363 247 438 q 254 246 247 288 q 281 183 261 204 q 322 156 299 161 q 386 150 346 150 q 447 153 426 150 q 486 167 467 156 q 513 201 504 178 q 531 331 531 251 q 528 447 531 411 q 519 510 526 483 q 503 550 513 536 q 478 575 494 565 q 396 589 450 589 q 317 582 342 589 q 275 550 293 575 q 253 481 258 525 z "},"Œ":{"ha":1400,"x_min":68,"x_max":1344,"o":"m 268 622 q 264 493 264 571 q 269 361 264 415 q 289 267 275 306 q 328 208 301 228 q 469 174 375 174 q 606 199 563 174 q 669 294 650 224 q 690 472 690 364 q 686 636 690 581 q 669 731 681 693 q 642 792 657 769 q 600 826 628 814 q 500 844 558 844 q 417 842 440 844 q 369 833 394 840 q 331 811 344 826 q 300 772 315 797 q 279 711 286 747 q 268 622 272 674 m 75 363 q 69 514 69 425 q 81 681 69 601 q 108 814 90 758 q 156 907 126 868 q 218 968 188 946 q 294 1003 250 990 q 453 1024 367 1024 q 582 1019 539 1024 q 747 954 686 1008 q 894 1017 796 1017 q 1078 1011 903 1017 q 1344 994 1254 1007 l 1344 833 l 957 833 q 893 808 906 833 q 885 756 885 789 l 885 597 l 1281 583 l 1281 422 l 885 410 l 885 251 q 914 188 885 199 q 971 179 936 179 l 1344 179 l 1344 19 q 1013 0 1272 10 l 925 -4 l 901 -4 q 742 58 790 -4 q 631 8 694 22 q 500 -6 568 -6 q 397 -3 432 -6 q 325 6 363 -1 q 260 22 288 11 q 204 53 231 35 q 157 100 176 72 q 119 164 138 126 q 92 251 101 203 q 75 363 81 300 z "},"œ":{"ha":1206,"x_min":53,"x_max":1164,"o":"m 69 189 q 53 364 53 257 q 69 546 53 472 q 128 664 86 619 q 231 726 169 708 q 389 744 293 744 q 621 682 550 744 q 710 731 656 717 q 838 743 764 743 q 950 740 911 743 q 1028 728 989 738 q 1089 700 1067 718 q 1131 653 1111 682 q 1164 474 1164 599 q 1072 308 1164 347 q 958 289 1026 289 l 725 289 l 725 263 q 733 214 725 240 q 763 172 740 186 q 881 149 797 149 q 1151 163 1051 149 l 1151 32 q 990 0 1076 4 q 772 -7 878 -7 q 615 50 665 -7 q 389 -7 546 -7 q 125 78 200 -7 q 69 189 86 122 m 253 481 q 247 363 247 438 q 254 246 247 288 q 281 183 261 204 q 322 156 299 161 q 385 149 346 149 q 444 153 424 149 q 483 167 467 156 q 508 190 500 176 q 522 232 517 204 q 531 358 531 274 q 525 483 531 443 q 503 547 519 522 q 461 581 488 572 q 389 588 436 588 q 317 581 342 588 q 275 550 293 575 q 253 481 258 525 m 969 485 q 951 575 969 554 q 876 594 933 594 q 797 590 819 594 q 754 569 774 586 q 731 524 735 553 q 725 469 725 494 l 725 429 l 908 429 q 969 485 969 429 z "},"Ŕ":{"ha":843,"x_min":71,"x_max":824,"o":"m 360 1104 l 485 1296 l 656 1296 l 486 1104 l 360 1104 m 71 0 l 71 1017 l 515 1017 q 772 851 718 1017 q 793 717 793 788 q 786 606 793 647 q 771 533 779 563 q 747 482 763 506 q 719 447 731 458 q 688 424 707 435 q 631 400 664 411 l 824 0 l 604 0 l 436 385 l 265 404 l 265 0 l 71 0 m 267 557 l 497 557 q 575 585 551 557 q 597 697 597 613 q 572 814 597 782 q 497 844 547 844 l 267 844 l 267 557 z "},"ŕ":{"ha":579,"x_min":64,"x_max":553,"o":"m 257 829 l 382 1021 l 553 1021 l 383 829 l 257 829 m 64 0 l 64 738 l 228 738 l 258 644 q 469 744 363 744 q 551 736 529 744 l 551 549 q 446 553 513 553 q 336 536 379 553 q 258 471 292 518 l 258 0 l 64 0 z "},"Ŗ":{"ha":843,"x_min":71,"x_max":824,"o":"m 332 -237 l 332 -128 q 363 -94 332 -94 l 468 -94 q 499 -128 499 -94 l 499 -282 q 482 -344 499 -321 q 442 -376 465 -369 q 389 -385 413 -385 q 354 -382 367 -385 l 338 -378 l 338 -318 q 365 -312 356 -318 q 376 -286 376 -304 l 376 -268 l 363 -268 q 332 -237 332 -268 m 71 0 l 71 1017 l 515 1017 q 772 851 718 1017 q 793 717 793 788 q 786 606 793 647 q 771 533 779 563 q 747 482 763 506 q 719 447 731 458 q 688 424 707 435 q 631 400 664 411 l 824 0 l 604 0 l 436 385 l 265 404 l 265 0 l 71 0 m 267 557 l 497 557 q 575 585 551 557 q 597 697 597 613 q 572 814 597 782 q 497 844 547 844 l 267 844 l 267 557 z "},"ŗ":{"ha":579,"x_min":57,"x_max":546,"o":"m 67 -242 l 67 -133 q 97 -100 67 -100 l 203 -100 q 233 -133 233 -100 l 233 -287 q 217 -350 233 -326 q 176 -382 200 -375 q 125 -390 147 -390 q 89 -387 101 -390 l 72 -383 l 72 -322 q 100 -318 90 -324 q 111 -292 111 -310 l 111 -274 l 97 -274 q 67 -242 67 -274 m 57 0 l 57 738 l 221 738 l 251 644 q 464 744 356 744 q 546 736 522 744 l 546 549 q 439 553 506 553 q 329 536 372 553 q 251 471 286 518 l 251 0 l 57 0 z "},"Ř":{"ha":843,"x_min":71,"x_max":824,"o":"m 210 1294 l 339 1294 l 426 1211 l 508 1294 l 638 1294 l 497 1107 l 353 1107 l 210 1294 m 71 0 l 71 1017 l 515 1017 q 772 851 718 1017 q 793 717 793 788 q 786 606 793 647 q 771 533 779 563 q 747 482 763 506 q 719 447 731 458 q 688 424 707 435 q 631 400 664 411 l 824 0 l 604 0 l 436 385 l 265 404 l 265 0 l 71 0 m 267 557 l 497 557 q 575 585 551 557 q 597 697 597 613 q 572 814 597 782 q 497 844 547 844 l 267 844 l 267 557 z "},"ř":{"ha":579,"x_min":64,"x_max":551,"o":"m 93 1017 l 224 1017 l 311 933 l 392 1017 l 522 1017 l 381 828 l 236 828 l 93 1017 m 64 0 l 64 738 l 228 738 l 258 644 q 469 744 363 744 q 551 736 529 744 l 551 549 q 446 553 513 553 q 336 536 379 553 q 258 471 292 518 l 258 0 l 64 0 z "},"Ś":{"ha":819,"x_min":69,"x_max":774,"o":"m 363 1108 l 489 1301 l 658 1301 l 489 1108 l 363 1108 m 69 675 l 69 763 q 149 969 69 908 q 344 1025 221 1024 l 414 1025 q 572 1014 468 1025 q 738 985 675 1003 l 738 832 q 486 846 579 846 l 385 846 q 293 829 322 846 q 264 747 264 813 l 264 697 q 288 619 264 639 q 372 600 311 600 l 533 600 q 746 474 692 600 q 774 331 774 410 l 774 263 q 650 19 774 76 q 493 -11 586 -11 q 100 31 242 -11 l 100 183 q 364 168 253 168 q 490 169 474 168 q 522 176 507 171 q 553 192 540 182 q 579 256 579 213 l 579 310 q 560 382 579 358 q 488 406 540 406 l 332 406 q 69 675 69 406 z "},"ś":{"ha":706,"x_min":42,"x_max":664,"o":"m 293 831 l 418 1024 l 589 1024 l 419 831 l 293 831 m 42 482 l 42 546 q 233 744 42 744 q 628 707 563 744 l 628 585 l 293 585 q 247 574 258 585 q 236 533 236 563 l 236 500 q 244 467 236 478 q 264 456 253 457 q 293 453 274 453 l 468 453 q 617 400 568 453 q 664 261 664 349 l 664 186 q 613 38 664 82 q 483 -7 561 -7 q 72 33 133 -7 l 72 154 l 421 154 q 469 201 469 154 l 469 236 q 456 275 469 268 q 421 283 440 283 l 249 283 q 42 482 42 283 z "},"Ŝ":{"ha":819,"x_min":69,"x_max":774,"o":"m 215 1108 l 365 1297 l 510 1297 l 644 1108 l 515 1108 l 433 1192 l 346 1108 l 215 1108 m 69 675 l 69 763 q 149 969 69 908 q 344 1025 221 1024 l 414 1025 q 572 1014 468 1025 q 738 985 675 1003 l 738 832 q 486 846 579 846 l 385 846 q 293 829 322 846 q 264 747 264 813 l 264 697 q 288 619 264 639 q 372 600 311 600 l 533 600 q 746 474 692 600 q 774 331 774 410 l 774 263 q 650 19 774 76 q 493 -11 586 -11 q 100 31 242 -11 l 100 183 q 364 168 253 168 q 490 169 474 168 q 522 176 507 171 q 553 192 540 182 q 579 256 579 213 l 579 310 q 560 382 579 358 q 488 406 540 406 l 332 406 q 69 675 69 406 z "},"ŝ":{"ha":706,"x_min":42,"x_max":664,"o":"m 140 828 l 290 1017 l 435 1017 l 568 828 l 439 828 l 358 911 l 271 828 l 140 828 m 42 482 l 42 546 q 233 744 42 744 q 628 707 563 744 l 628 585 l 293 585 q 247 574 258 585 q 236 533 236 563 l 236 500 q 244 467 236 478 q 264 456 253 457 q 293 453 274 453 l 468 453 q 617 400 568 453 q 664 261 664 349 l 664 186 q 613 38 664 82 q 483 -7 561 -7 q 72 33 133 -7 l 72 154 l 421 154 q 469 201 469 154 l 469 236 q 456 275 469 268 q 421 283 440 283 l 249 283 q 42 482 42 283 z "},"Ş":{"ha":819,"x_min":69,"x_max":774,"o":"m 375 -61 l 506 -61 q 472 -214 506 -169 q 350 -257 439 -257 l 272 -257 l 272 -174 l 333 -153 q 368 -122 361 -142 q 375 -61 375 -104 m 69 675 l 69 763 q 149 969 69 908 q 344 1025 221 1024 l 414 1025 q 572 1014 468 1025 q 738 985 675 1003 l 738 832 q 486 846 579 846 l 385 846 q 293 829 322 846 q 264 747 264 813 l 264 697 q 288 619 264 639 q 372 600 311 600 l 533 600 q 746 474 692 600 q 774 331 774 410 l 774 263 q 650 19 774 76 q 493 -11 586 -11 q 100 31 242 -11 l 100 183 q 364 168 253 168 q 490 169 474 168 q 522 176 507 171 q 553 192 540 182 q 579 256 579 213 l 579 310 q 560 382 579 358 q 488 406 540 406 l 332 406 q 69 675 69 406 z "},"ş":{"ha":706,"x_min":42,"x_max":664,"o":"m 217 -53 l 349 -53 q 315 -206 349 -161 q 193 -249 282 -249 l 114 -249 l 114 -165 l 176 -144 q 210 -114 203 -133 q 217 -53 217 -96 m 42 482 l 42 546 q 233 744 42 744 q 628 707 563 744 l 628 585 l 293 585 q 247 574 258 585 q 236 533 236 563 l 236 500 q 244 467 236 478 q 264 456 253 457 q 293 453 274 453 l 468 453 q 617 400 568 453 q 664 261 664 349 l 664 186 q 613 38 664 82 q 483 -7 561 -7 q 72 33 133 -7 l 72 154 l 421 154 q 469 201 469 154 l 469 236 q 456 275 469 268 q 421 283 440 283 l 249 283 q 42 482 42 283 z "},"Š":{"ha":819,"x_min":69,"x_max":774,"o":"m 215 1297 l 346 1297 l 433 1214 l 514 1297 l 644 1297 l 503 1108 l 358 1108 l 215 1297 m 69 675 l 69 763 q 149 969 69 908 q 344 1025 221 1024 l 414 1025 q 572 1014 468 1025 q 738 985 675 1003 l 738 832 q 486 846 579 846 l 385 846 q 293 829 322 846 q 264 747 264 813 l 264 697 q 288 619 264 639 q 372 600 311 600 l 533 600 q 746 474 692 600 q 774 331 774 410 l 774 263 q 650 19 774 76 q 493 -11 586 -11 q 100 31 242 -11 l 100 183 q 364 168 253 168 q 490 169 474 168 q 522 176 507 171 q 553 192 540 182 q 579 256 579 213 l 579 310 q 560 382 579 358 q 488 406 540 406 l 332 406 q 69 675 69 406 z "},"š":{"ha":706,"x_min":42,"x_max":664,"o":"m 147 1019 l 276 1019 l 364 936 l 446 1019 l 575 1019 l 433 831 l 289 831 l 147 1019 m 42 482 l 42 546 q 233 744 42 744 q 628 707 563 744 l 628 585 l 293 585 q 247 574 258 585 q 236 533 236 563 l 236 500 q 244 467 236 478 q 264 456 253 457 q 293 453 274 453 l 468 453 q 617 400 568 453 q 664 261 664 349 l 664 186 q 613 38 664 82 q 483 -7 561 -7 q 72 33 133 -7 l 72 154 l 421 154 q 469 201 469 154 l 469 236 q 456 275 469 268 q 421 283 440 283 l 249 283 q 42 482 42 283 z "},"Ţ":{"ha":824,"x_min":43,"x_max":794,"o":"m 235 -58 l 365 -58 q 332 -211 365 -167 q 210 -256 299 -256 l 132 -256 l 132 -172 l 193 -151 q 228 -121 219 -139 q 235 -58 235 -103 m 43 838 l 43 1017 l 794 1017 l 794 838 l 513 838 l 513 0 l 318 0 l 318 838 l 43 838 z "},"ţ":{"ha":529,"x_min":21,"x_max":500,"o":"m 182 -60 l 313 -60 q 279 -212 313 -168 q 157 -257 246 -257 l 79 -257 l 79 -174 l 140 -153 q 175 -122 168 -140 q 182 -60 182 -104 m 21 590 l 21 699 l 140 739 l 172 944 l 335 944 l 335 739 l 500 739 l 500 590 l 335 590 l 335 294 q 350 190 335 219 q 397 149 365 161 q 490 119 481 119 l 490 0 l 321 0 q 140 264 140 0 l 140 590 l 21 590 z "},"Ť":{"ha":824,"x_min":43,"x_max":794,"o":"m 199 1294 l 328 1294 l 415 1211 l 497 1294 l 628 1294 l 486 1107 l 342 1107 l 199 1294 m 43 838 l 43 1017 l 794 1017 l 794 838 l 513 838 l 513 0 l 318 0 l 318 838 l 43 838 z "},"ť":{"ha":574,"x_min":21,"x_max":543,"o":"m 21 590 l 21 699 l 140 739 l 172 944 l 335 944 l 335 739 l 500 739 l 500 590 l 335 590 l 335 294 q 350 190 335 219 q 397 149 365 161 q 490 119 481 119 l 490 0 l 321 0 q 140 264 140 0 l 140 590 l 21 590 m 543 1113 l 543 1019 l 528 833 l 425 833 l 410 1019 l 408 1113 l 543 1113 z "},"Ŧ":{"ha":811,"x_min":31,"x_max":782,"o":"m 31 838 l 31 1017 l 782 1017 l 782 838 l 499 838 l 499 601 l 635 601 l 635 511 l 499 511 l 499 0 l 304 0 l 304 511 l 168 511 l 168 601 l 304 601 l 304 838 l 31 838 z "},"ŧ":{"ha":519,"x_min":21,"x_max":500,"o":"m 21 590 l 21 699 l 140 739 l 172 944 l 335 944 l 335 739 l 500 739 l 500 590 l 335 590 l 335 447 l 449 447 l 449 357 l 335 357 l 335 294 q 361 168 335 192 q 426 139 374 157 q 485 121 479 121 l 485 0 l 322 0 q 185 61 229 0 q 140 264 140 121 l 140 357 l 42 357 l 42 447 l 140 447 l 140 590 l 21 590 z "},"Ũ":{"ha":922,"x_min":85,"x_max":861,"o":"m 554 1228 q 678 1282 608 1228 l 711 1199 q 556 1104 624 1104 q 472 1128 519 1104 q 404 1153 424 1153 q 372 1150 385 1153 q 350 1147 358 1149 q 328 1139 342 1144 q 310 1129 315 1132 q 289 1117 304 1126 q 268 1104 272 1107 l 233 1181 q 401 1278 322 1278 q 482 1253 436 1276 q 539 1228 528 1229 q 554 1228 551 1228 m 476 -7 l 457 -7 q 235 28 290 -7 q 176 78 210 44 q 126 157 143 110 q 85 444 85 274 l 85 1017 l 279 1017 l 279 444 q 306 249 279 311 q 399 178 329 193 q 486 172 429 172 q 583 193 544 172 q 665 444 665 238 l 665 1017 l 861 1017 l 861 444 q 797 128 861 226 q 756 72 776 93 q 706 33 736 50 q 651 11 674 18 q 592 -1 629 3 q 476 -7 544 -7 z "},"ũ":{"ha":764,"x_min":53,"x_max":701,"o":"m 458 953 q 582 1006 513 953 l 615 922 q 460 828 529 828 q 376 853 425 828 q 308 876 328 876 q 275 875 289 876 q 254 870 263 872 q 233 861 246 868 q 214 853 219 856 q 194 840 210 850 q 172 828 178 831 l 139 904 q 306 1001 226 1001 q 386 976 340 1000 q 444 953 432 953 l 458 953 m 53 247 l 53 738 l 247 738 l 247 243 q 329 144 247 144 q 422 158 385 144 q 507 208 461 172 l 507 738 l 701 738 l 701 0 l 544 0 l 507 78 q 472 57 494 71 q 438 36 450 43 q 406 17 425 28 q 367 1 385 7 q 272 -12 324 -12 q 53 247 53 -12 z "},"Ū":{"ha":922,"x_min":85,"x_max":861,"o":"m 269 1107 l 269 1217 l 675 1217 l 675 1107 l 269 1107 m 476 -7 l 457 -7 q 235 28 290 -7 q 176 78 210 44 q 126 157 143 110 q 85 444 85 274 l 85 1017 l 279 1017 l 279 444 q 306 249 279 311 q 399 178 329 193 q 486 172 429 172 q 583 193 544 172 q 665 444 665 238 l 665 1017 l 861 1017 l 861 444 q 797 128 861 226 q 756 72 776 93 q 706 33 736 50 q 651 11 674 18 q 592 -1 629 3 q 476 -7 544 -7 z "},"ū":{"ha":764,"x_min":53,"x_max":701,"o":"m 174 828 l 174 939 l 579 939 l 579 828 l 174 828 m 53 247 l 53 738 l 247 738 l 247 243 q 329 144 247 144 q 422 158 385 144 q 507 208 461 172 l 507 738 l 701 738 l 701 0 l 544 0 l 507 78 q 472 57 494 71 q 438 36 450 43 q 406 17 425 28 q 367 1 385 7 q 272 -12 324 -12 q 53 247 53 -12 z "},"Ŭ":{"ha":922,"x_min":85,"x_max":861,"o":"m 313 1265 l 393 1265 q 415 1208 393 1231 q 474 1188 438 1188 q 531 1208 510 1188 q 551 1265 551 1229 l 632 1265 q 586 1150 632 1193 q 472 1107 540 1107 q 358 1150 404 1107 q 313 1265 313 1194 m 476 -7 l 457 -7 q 235 28 290 -7 q 176 78 210 44 q 126 157 143 110 q 85 444 85 274 l 85 1017 l 279 1017 l 279 444 q 306 249 279 311 q 399 178 329 193 q 486 172 429 172 q 583 193 544 172 q 665 444 665 238 l 665 1017 l 861 1017 l 861 444 q 797 128 861 226 q 756 72 776 93 q 706 33 736 50 q 651 11 674 18 q 592 -1 629 3 q 476 -7 544 -7 z "},"ŭ":{"ha":764,"x_min":53,"x_max":701,"o":"m 222 986 l 303 986 q 325 931 303 951 q 383 908 346 908 q 440 929 419 908 q 461 986 461 950 l 542 986 q 496 871 542 914 q 382 828 450 828 q 268 872 314 828 q 222 986 222 915 m 53 247 l 53 738 l 247 738 l 247 243 q 329 144 247 144 q 422 158 385 144 q 507 208 461 172 l 507 738 l 701 738 l 701 0 l 544 0 l 507 78 q 472 57 494 71 q 438 36 450 43 q 406 17 425 28 q 367 1 385 7 q 272 -12 324 -12 q 53 247 53 -12 z "},"Ů":{"ha":922,"x_min":85,"x_max":861,"o":"m 332 1249 q 350 1319 332 1288 q 403 1372 369 1353 q 483 1392 435 1392 q 572 1350 532 1392 q 614 1249 614 1308 q 572 1147 614 1189 q 483 1107 532 1107 q 403 1125 435 1107 q 350 1178 369 1144 q 332 1249 332 1210 m 431 1292 q 413 1256 413 1274 q 417 1225 413 1236 q 431 1207 422 1214 q 474 1190 449 1190 q 515 1207 499 1190 q 532 1249 532 1224 q 515 1292 532 1274 q 474 1308 499 1308 q 431 1292 449 1308 m 476 -7 l 457 -7 q 235 28 290 -7 q 176 78 210 44 q 126 157 143 110 q 85 444 85 274 l 85 1017 l 279 1017 l 279 444 q 306 249 279 311 q 399 178 329 193 q 486 172 429 172 q 583 193 544 172 q 665 444 665 238 l 665 1017 l 861 1017 l 861 444 q 797 128 861 226 q 756 72 776 93 q 706 33 736 50 q 651 11 674 18 q 592 -1 629 3 q 476 -7 544 -7 z "},"ů":{"ha":764,"x_min":53,"x_max":701,"o":"m 236 969 q 256 1042 236 1008 q 306 1093 274 1074 q 378 1113 339 1113 q 447 1093 415 1113 q 500 1042 481 1074 q 518 969 518 1008 q 500 897 518 931 q 447 847 481 865 q 378 828 415 828 q 306 847 339 828 q 256 897 274 865 q 236 969 236 931 m 317 969 q 335 928 317 944 q 378 911 353 911 q 419 928 403 911 q 436 965 436 944 q 429 1000 436 986 q 383 1029 413 1029 q 335 1011 353 1029 q 317 969 317 994 m 53 247 l 53 738 l 247 738 l 247 243 q 329 144 247 144 q 422 158 385 144 q 507 208 461 172 l 507 738 l 701 738 l 701 0 l 544 0 l 507 78 q 472 57 494 71 q 438 36 450 43 q 406 17 425 28 q 367 1 385 7 q 272 -12 324 -12 q 53 247 53 -12 z "},"Ű":{"ha":922,"x_min":85,"x_max":861,"o":"m 301 1107 l 426 1300 l 597 1300 l 428 1107 l 301 1107 m 518 1107 l 643 1300 l 814 1300 l 644 1107 l 518 1107 m 476 -7 l 457 -7 q 235 28 290 -7 q 176 78 210 44 q 126 157 143 110 q 85 444 85 274 l 85 1017 l 279 1017 l 279 444 q 306 249 279 311 q 399 178 329 193 q 486 172 429 172 q 583 193 544 172 q 665 444 665 238 l 665 1017 l 861 1017 l 861 444 q 797 128 861 226 q 756 72 776 93 q 706 33 736 50 q 651 11 674 18 q 592 -1 629 3 q 476 -7 544 -7 z "},"ű":{"ha":764,"x_min":53,"x_max":718,"o":"m 206 828 l 331 1019 l 501 1019 l 332 828 l 206 828 m 422 828 l 547 1019 l 718 1019 l 549 828 l 422 828 m 53 247 l 53 738 l 247 738 l 247 243 q 329 144 247 144 q 422 158 385 144 q 507 208 461 172 l 507 738 l 701 738 l 701 0 l 544 0 l 507 78 q 472 57 494 71 q 438 36 450 43 q 406 17 425 28 q 367 1 385 7 q 272 -12 324 -12 q 53 247 53 -12 z "},"Ų":{"ha":922,"x_min":85,"x_max":861,"o":"m 525 -261 q 486 -267 507 -267 q 431 -256 464 -267 q 374 -214 397 -244 q 338 -135 338 -171 q 436 -3 338 -53 l 513 -3 q 456 -126 421 -71 q 525 -156 475 -157 l 525 -261 m 476 -7 l 457 -7 q 235 28 290 -7 q 176 78 210 44 q 126 157 143 110 q 85 444 85 274 l 85 1017 l 279 1017 l 279 444 q 306 249 279 311 q 399 178 329 193 q 486 172 429 172 q 583 193 544 172 q 665 444 665 238 l 665 1017 l 861 1017 l 861 444 q 797 128 861 226 q 756 72 776 93 q 706 33 736 50 q 651 11 674 18 q 592 -1 629 3 q 476 -7 544 -7 z "},"ų":{"ha":764,"x_min":53,"x_max":701,"o":"m 676 -261 q 636 -265 658 -265 q 582 -256 615 -265 q 525 -214 549 -244 q 489 -135 489 -169 q 588 -1 489 -51 l 664 -1 q 607 -126 572 -71 q 676 -154 626 -157 l 676 -261 m 53 247 l 53 738 l 247 738 l 247 243 q 329 144 247 144 q 422 158 385 144 q 507 208 461 172 l 507 738 l 701 738 l 701 0 l 544 0 l 507 78 q 472 57 494 71 q 438 36 450 43 q 406 17 425 28 q 367 1 385 7 q 272 -12 324 -12 q 53 247 53 -12 z "},"Ŵ":{"ha":1378,"x_min":47,"x_max":1353,"o":"m 499 1104 l 647 1292 l 792 1292 l 926 1104 l 797 1104 l 715 1188 l 629 1104 l 499 1104 m 47 1017 l 254 1017 l 479 263 l 663 1017 l 871 1017 l 800 754 l 961 258 l 1147 1017 l 1353 1017 l 1074 0 l 849 0 l 711 417 l 592 0 l 367 0 l 47 1017 z "},"ŵ":{"ha":1147,"x_min":21,"x_max":1128,"o":"m 371 825 l 521 1013 l 665 1013 l 800 825 l 671 825 l 589 908 l 501 825 l 371 825 m 21 738 l 229 738 l 376 228 l 508 738 l 703 738 l 651 539 l 774 228 l 919 738 l 1128 738 l 889 0 l 672 0 l 561 267 l 478 0 l 257 0 l 21 738 z "},"Ŷ":{"ha":911,"x_min":47,"x_max":886,"o":"m 246 1104 l 396 1292 l 540 1292 l 675 1104 l 546 1104 l 464 1188 l 376 1104 l 246 1104 m 551 0 l 357 0 l 357 315 l 47 1017 l 258 1017 l 457 529 l 675 1017 l 886 1017 l 551 315 l 551 0 z "},"ŷ":{"ha":803,"x_min":22,"x_max":778,"o":"m 186 828 l 336 1017 l 481 1017 l 615 828 l 486 828 l 404 911 l 317 828 l 186 828 m 22 738 l 226 738 l 354 221 q 371 188 361 196 q 386 175 381 179 q 400 169 393 172 q 411 168 407 168 q 422 167 417 168 l 428 167 l 575 738 l 778 738 l 522 -233 l 421 -375 l 282 -375 l 386 0 q 167 188 217 0 l 22 738 z "},"Ÿ":{"ha":911,"x_min":47,"x_max":886,"o":"m 233 1131 q 208 1183 208 1156 q 219 1231 208 1211 q 283 1269 243 1269 q 347 1247 324 1269 q 371 1189 371 1224 q 347 1131 371 1156 q 290 1107 324 1107 q 233 1131 257 1107 m 563 1189 q 586 1246 563 1222 q 644 1269 611 1269 q 701 1247 678 1269 q 725 1189 725 1224 q 701 1131 725 1156 q 644 1107 678 1107 q 586 1131 611 1107 q 563 1189 563 1156 m 551 0 l 357 0 l 357 315 l 47 1017 l 258 1017 l 457 529 l 675 1017 l 886 1017 l 551 315 l 551 0 z "},"Ź":{"ha":772,"x_min":38,"x_max":738,"o":"m 324 1107 l 450 1300 l 619 1300 l 450 1107 l 324 1107 m 38 0 l 38 179 l 503 838 l 38 838 l 38 1017 l 738 1017 l 738 838 l 294 179 l 738 179 l 738 0 l 38 0 z "},"ź":{"ha":658,"x_min":32,"x_max":628,"o":"m 267 828 l 392 1019 l 563 1019 l 393 828 l 267 828 m 32 574 l 32 738 l 628 738 l 628 574 l 311 165 l 628 165 l 628 1 l 53 1 l 53 164 l 383 574 l 32 574 z "},"Ż":{"ha":772,"x_min":38,"x_max":738,"o":"m 304 1139 l 304 1244 q 338 1279 304 1279 l 438 1279 q 461 1269 453 1279 q 469 1244 469 1260 l 469 1139 q 438 1107 469 1107 l 338 1107 q 314 1117 324 1107 q 304 1139 304 1125 m 38 0 l 38 179 l 503 838 l 38 838 l 38 1017 l 738 1017 l 738 838 l 294 179 l 738 179 l 738 0 l 38 0 z "},"ż":{"ha":658,"x_min":32,"x_max":628,"o":"m 247 860 l 247 965 q 281 1000 247 1000 l 381 1000 q 404 990 396 1000 q 413 965 413 981 l 413 860 q 381 828 413 828 l 281 828 q 256 836 265 828 q 247 860 247 846 m 32 574 l 32 738 l 628 738 l 628 574 l 311 165 l 628 165 l 628 1 l 53 1 l 53 164 l 383 574 l 32 574 z "},"Ž":{"ha":772,"x_min":38,"x_max":738,"o":"m 172 1294 l 303 1294 l 390 1211 l 471 1294 l 601 1294 l 460 1107 l 315 1107 l 172 1294 m 38 0 l 38 179 l 503 838 l 38 838 l 38 1017 l 738 1017 l 738 838 l 294 179 l 738 179 l 738 0 l 38 0 z "},"ž":{"ha":658,"x_min":32,"x_max":628,"o":"m 115 1017 l 246 1017 l 333 933 l 414 1017 l 544 1017 l 403 828 l 258 828 l 115 1017 m 32 574 l 32 738 l 628 738 l 628 574 l 311 165 l 628 165 l 628 1 l 53 1 l 53 164 l 383 574 l 32 574 z "},"ƒ":{"ha":824,"x_min":21,"x_max":803,"o":"m 126 -128 q 256 51 221 -128 q 268 122 261 81 l 331 521 l 210 521 l 235 669 l 354 669 l 360 703 q 640 1111 425 1111 q 790 1082 728 1111 q 803 1076 801 1076 l 785 956 l 701 956 q 589 846 624 956 q 556 703 571 793 l 551 669 l 711 669 l 688 521 l 526 521 l 464 122 q 297 -256 417 -183 q 200 -283 250 -283 q 113 -278 149 -283 q 21 -249 44 -267 l 40 -128 l 126 -128 z "},"ˆ":{"ha":533,"x_min":53,"x_max":481,"o":"m 53 925 l 182 925 l 269 842 l 351 925 l 481 925 l 340 738 l 196 738 l 53 925 z "},"ˇ":{"ha":422,"x_min":53,"x_max":372,"o":"m 53 894 l 133 894 q 156 839 133 860 q 214 817 176 817 q 271 838 250 817 q 292 894 292 858 l 372 894 q 325 779 372 822 q 211 736 279 736 q 99 781 144 736 q 53 894 53 824 z "},"˘":{"ha":269,"x_min":53,"x_max":218,"o":"m 53 757 l 53 863 q 86 897 53 897 l 186 897 q 210 888 201 897 q 218 863 218 878 l 218 757 q 186 725 218 725 l 86 725 q 61 733 71 725 q 53 757 53 743 z "},"˙":{"ha":386,"x_min":29,"x_max":353,"o":"m 31 882 q 51 963 31 926 q 111 1022 74 1000 q 192 1044 147 1044 q 272 1022 235 1044 q 331 963 310 1000 q 353 882 353 926 q 331 800 353 838 q 272 742 310 764 q 192 721 235 721 q 111 742 147 721 q 51 800 74 764 q 31 882 31 838 m 151 919 q 133 882 133 903 q 142 847 133 861 q 189 819 160 819 q 236 836 219 819 q 253 878 253 853 q 236 919 253 903 q 194 938 219 938 q 151 919 169 938 z "},"˚":{"ha":290,"x_min":50,"x_max":239,"o":"m 239 -258 q 199 -264 219 -264 q 144 -253 178 -264 q 86 -211 111 -242 q 51 -133 51 -168 q 150 0 51 -50 l 226 0 q 169 -124 135 -69 q 239 -153 189 -156 l 239 -258 z "},"˛":{"ha":582,"x_min":53,"x_max":529,"o":"m 374 863 q 496 915 426 863 l 529 832 q 374 738 443 738 q 290 761 339 738 q 224 786 242 786 q 194 785 206 786 q 174 781 183 783 q 157 775 164 778 q 139 768 150 774 q 124 758 129 763 q 106 749 118 756 q 86 738 93 742 l 53 814 q 221 911 142 911 q 300 886 254 910 q 358 863 346 863 l 374 863 z "},"˜":{"ha":557,"x_min":21,"x_max":533,"o":"m 21 738 l 147 931 l 317 931 l 147 738 l 21 738 m 238 738 l 363 931 l 533 931 l 364 738 l 238 738 z "},"˝":{"ha":533,"x_min":53,"x_max":481,"o":"m 53 738 l 203 925 l 347 925 l 481 738 l 351 738 l 269 821 l 183 738 l 53 738 z "},"̸":{"ha":875,"x_min":74,"x_max":803,"o":"m 74 247 l 74 761 q 142 950 74 885 q 329 1017 211 1017 l 557 1017 q 790 864 746 1017 q 803 769 803 821 l 803 247 q 739 64 803 126 q 556 0 674 0 l 328 0 q 142 63 208 0 q 74 247 74 125 m 268 371 q 274 308 268 319 l 546 832 q 514 838 532 838 l 368 838 q 289 808 311 838 q 268 739 268 778 l 268 371 m 372 179 l 507 179 q 583 201 558 179 q 608 278 608 224 l 608 660 q 597 726 608 713 l 319 190 q 372 179 340 179 z "},"Ω":{"ha":1060,"x_min":67,"x_max":993,"o":"m 126 807 q 211 919 160 872 q 344 997 261 967 q 514 1026 426 1026 q 664 1013 603 1026 q 772 975 726 999 q 854 914 818 950 q 914 838 890 879 q 956 747 939 796 q 986 533 986 654 q 956 329 986 413 q 846 176 925 246 l 993 163 l 993 0 l 646 0 l 646 178 q 764 326 736 247 q 792 535 792 406 q 614 838 792 789 q 522 847 576 847 q 417 828 467 847 q 339 778 368 808 q 293 703 311 747 q 263 553 263 629 q 264 444 263 476 q 275 375 267 413 q 300 308 283 338 q 413 178 338 242 l 413 0 l 76 0 l 76 164 l 231 178 q 100 328 133 240 q 68 553 68 414 q 126 807 68 693 z "},"π":{"ha":896,"x_min":21,"x_max":875,"o":"m 21 558 l 21 738 l 808 738 l 808 558 l 682 558 l 682 261 q 706 172 682 194 q 778 150 726 151 l 875 150 l 875 36 q 701 -7 811 -7 q 488 253 488 -7 l 488 558 l 319 558 l 319 0 l 125 0 l 125 558 l 21 558 z "},"Ḃ":{"ha":839,"x_min":85,"x_max":808,"o":"m 347 1136 l 347 1242 q 381 1276 347 1276 l 481 1276 q 504 1267 496 1276 q 513 1242 513 1257 l 513 1136 q 481 1104 513 1104 l 381 1104 q 357 1114 367 1104 q 347 1136 347 1122 m 85 0 l 85 1017 l 504 1017 q 721 942 651 1017 q 790 744 790 865 q 756 603 790 667 q 651 528 721 540 q 785 411 743 511 q 807 299 807 361 q 736 76 807 153 q 507 0 664 0 l 85 0 m 279 172 l 500 172 q 613 307 613 172 q 585 410 613 369 q 500 450 557 450 l 279 450 l 279 172 m 279 614 l 492 614 q 572 644 544 614 q 599 733 599 674 q 568 819 599 793 q 492 844 538 844 l 279 844 l 279 614 z "},"ḃ":{"ha":772,"x_min":56,"x_max":715,"o":"m 71 1211 l 71 1317 q 104 1351 71 1351 l 204 1351 q 228 1342 219 1351 q 236 1317 236 1332 l 236 1211 q 204 1179 236 1179 l 104 1179 q 81 1189 89 1179 q 71 1211 71 1197 m 56 0 l 56 1090 l 249 1090 l 249 700 q 361 736 297 722 q 478 749 424 749 q 576 731 533 749 q 646 681 619 711 q 688 599 672 649 q 714 350 714 513 q 658 89 714 186 q 474 -8 603 -8 q 351 17 411 -8 q 250 75 290 42 l 215 0 l 56 0 m 422 158 q 496 206 472 158 q 519 358 519 254 q 508 514 519 464 q 475 581 496 564 q 422 596 456 596 q 250 568 322 596 l 250 203 q 422 158 321 158 z "},"Ḋ":{"ha":919,"x_min":85,"x_max":869,"o":"m 356 1142 l 356 1247 q 389 1282 356 1282 l 489 1282 q 513 1272 504 1282 q 521 1247 521 1263 l 521 1142 q 489 1110 521 1110 l 389 1110 q 364 1119 374 1110 q 356 1142 356 1128 m 85 0 l 85 1017 l 517 1017 q 869 504 869 1017 q 718 65 869 188 q 517 0 638 0 l 85 0 m 279 174 l 501 174 q 675 506 675 174 q 594 818 675 758 q 501 844 558 844 l 279 844 l 279 174 z "},"ḋ":{"ha":772,"x_min":51,"x_max":711,"o":"m 531 1206 l 531 1311 q 564 1346 531 1346 l 664 1346 q 688 1336 679 1346 q 696 1311 696 1326 l 696 1206 q 664 1174 696 1174 l 564 1174 q 539 1183 549 1174 q 531 1206 531 1192 m 74 583 q 121 682 94 651 q 293 749 178 749 q 406 736 343 749 q 517 700 468 722 l 517 1090 l 711 1090 l 711 0 l 550 0 l 517 75 q 415 17 476 42 q 293 -8 354 -8 q 108 86 164 -8 q 53 349 53 182 q 74 583 53 515 m 247 349 q 344 158 247 158 q 517 203 446 158 l 517 568 q 344 596 444 596 q 272 556 296 596 q 247 349 247 510 z "},"Ḟ":{"ha":788,"x_min":81,"x_max":749,"o":"m 354 1136 l 354 1242 q 388 1276 354 1276 l 488 1276 q 511 1267 503 1276 q 519 1242 519 1257 l 519 1136 q 488 1104 519 1104 l 388 1104 q 364 1114 372 1104 q 354 1136 354 1122 m 81 0 l 81 803 q 221 1007 81 968 q 276 1017 256 1017 q 478 1011 297 1017 q 749 994 660 1007 l 749 833 l 347 833 q 283 808 296 833 q 275 756 275 789 l 275 597 l 686 583 l 686 422 l 275 410 l 275 0 l 81 0 z "},"ḟ":{"ha":560,"x_min":21,"x_max":540,"o":"m 258 1219 l 258 1325 q 292 1360 258 1360 l 392 1360 q 415 1350 407 1360 q 424 1325 424 1340 l 424 1219 q 392 1188 424 1188 l 292 1188 q 267 1197 276 1188 q 258 1219 258 1206 m 21 589 l 21 714 l 136 738 l 136 875 q 186 1035 136 978 q 347 1092 236 1092 q 540 1058 458 1092 l 540 943 l 407 944 q 335 903 343 946 q 331 829 331 879 l 331 738 l 499 738 l 499 589 l 331 589 l 331 0 l 136 0 l 136 589 l 21 589 z "},"Ṁ":{"ha":1176,"x_min":58,"x_max":1119,"o":"m 504 1139 l 504 1244 q 538 1279 504 1279 l 638 1279 q 661 1269 651 1279 q 669 1244 669 1260 l 669 1139 q 638 1107 669 1107 l 538 1107 q 514 1117 522 1107 q 504 1139 504 1125 m 58 0 l 147 1017 l 418 1017 l 588 322 l 756 1017 l 1025 1017 l 1119 0 l 928 0 l 861 679 l 697 0 l 481 0 l 310 679 l 250 0 l 58 0 z "},"ṁ":{"ha":1215,"x_min":64,"x_max":1164,"o":"m 554 864 l 554 969 q 588 1004 554 1004 l 688 1004 q 711 994 703 1004 q 719 969 719 985 l 719 864 q 688 832 719 832 l 588 832 q 564 840 574 832 q 554 864 554 849 m 707 533 l 708 490 l 708 0 l 514 0 l 514 492 q 492 567 514 542 q 422 592 469 592 q 340 578 376 592 q 258 529 304 564 l 258 0 l 64 0 l 64 738 l 219 738 l 258 658 q 286 678 263 661 q 332 708 310 694 q 397 736 354 722 q 488 749 439 749 q 679 653 631 749 q 944 749 810 749 q 1164 489 1164 749 l 1164 0 l 969 0 l 969 492 q 947 567 969 542 q 888 592 926 592 q 707 533 776 592 z "},"Ṗ":{"ha":836,"x_min":71,"x_max":790,"o":"m 310 1143 l 310 1249 q 343 1283 310 1283 l 443 1283 q 467 1274 458 1283 q 475 1249 475 1264 l 475 1143 q 443 1111 475 1111 l 343 1111 q 319 1119 328 1111 q 310 1143 310 1129 m 71 0 l 71 1017 l 508 1017 q 757 885 694 1017 q 790 726 790 814 q 781 588 790 639 q 756 501 771 536 q 715 442 739 467 q 668 404 692 418 q 536 375 615 375 q 379 388 488 375 q 265 403 271 400 l 265 0 l 71 0 m 265 547 l 493 547 q 569 581 543 547 q 594 701 594 614 q 493 844 593 844 l 265 844 l 265 547 z "},"ṗ":{"ha":772,"x_min":64,"x_max":722,"o":"m 321 868 l 321 974 q 354 1008 321 1008 l 454 1008 q 478 999 469 1008 q 486 974 486 989 l 486 868 q 454 836 486 836 l 354 836 q 331 844 339 836 q 321 868 321 854 m 64 -375 l 64 738 l 224 738 l 257 664 q 358 721 297 696 q 483 746 421 746 q 594 719 547 746 q 669 642 642 693 q 721 372 721 544 q 654 61 721 147 q 481 -11 596 -11 q 368 3 431 -11 q 257 36 306 15 l 257 -375 l 64 -375 m 431 142 q 501 182 478 142 q 526 336 526 228 q 515 494 526 446 q 483 561 504 542 q 431 579 463 579 q 257 535 328 579 l 257 169 q 431 142 329 142 z "},"Ṡ":{"ha":819,"x_min":69,"x_max":774,"o":"m 328 1147 l 328 1253 q 361 1288 328 1288 l 461 1288 q 483 1278 475 1288 q 492 1253 492 1268 l 492 1147 q 461 1115 492 1115 l 361 1115 q 336 1125 346 1115 q 328 1147 328 1133 m 69 675 l 69 763 q 149 969 69 908 q 344 1025 221 1024 l 414 1025 q 572 1014 468 1025 q 738 985 675 1003 l 738 832 q 486 846 579 846 l 385 846 q 293 829 322 846 q 264 747 264 813 l 264 697 q 288 619 264 639 q 372 600 311 600 l 533 600 q 746 474 692 600 q 774 331 774 410 l 774 263 q 650 19 774 76 q 493 -11 586 -11 q 100 31 242 -11 l 100 183 q 364 168 253 168 q 490 169 474 168 q 522 176 507 171 q 553 192 540 182 q 579 256 579 213 l 579 310 q 560 382 579 358 q 488 406 540 406 l 332 406 q 69 675 69 406 z "},"ṡ":{"ha":706,"x_min":42,"x_max":664,"o":"m 285 867 l 285 972 q 318 1007 285 1007 l 418 1007 q 442 997 432 1007 q 450 972 450 988 l 450 867 q 418 835 450 835 l 318 835 q 294 844 303 835 q 285 867 285 853 m 42 482 l 42 546 q 233 744 42 744 q 628 707 563 744 l 628 585 l 293 585 q 247 574 258 585 q 236 533 236 563 l 236 500 q 244 467 236 478 q 264 456 253 457 q 293 453 274 453 l 468 453 q 617 400 568 453 q 664 261 664 349 l 664 186 q 613 38 664 82 q 483 -7 561 -7 q 72 33 133 -7 l 72 154 l 421 154 q 469 201 469 154 l 469 236 q 456 275 469 268 q 421 283 440 283 l 249 283 q 42 482 42 283 z "},"Ṫ":{"ha":824,"x_min":43,"x_max":794,"o":"m 331 1139 l 331 1244 q 364 1279 331 1279 l 464 1279 q 488 1269 479 1279 q 496 1244 496 1260 l 496 1139 q 464 1107 496 1107 l 364 1107 q 339 1117 349 1107 q 331 1139 331 1125 m 43 838 l 43 1017 l 794 1017 l 794 838 l 513 838 l 513 0 l 318 0 l 318 838 l 43 838 z "},"ṫ":{"ha":529,"x_min":21,"x_max":500,"o":"m 160 1060 l 160 1165 q 193 1200 160 1200 l 293 1200 q 317 1190 308 1200 q 325 1165 325 1181 l 325 1060 q 293 1028 325 1028 l 193 1028 q 169 1036 179 1028 q 160 1060 160 1046 m 21 590 l 21 699 l 140 739 l 172 944 l 335 944 l 335 739 l 500 739 l 500 590 l 335 590 l 335 294 q 350 190 335 219 q 397 149 365 161 q 490 119 481 119 l 490 0 l 321 0 q 140 264 140 0 l 140 590 l 21 590 z "},"Ẁ":{"ha":1378,"x_min":47,"x_max":1353,"o":"m 474 1296 l 643 1296 l 769 1104 l 643 1104 l 474 1296 m 47 1017 l 254 1017 l 479 263 l 663 1017 l 871 1017 l 800 754 l 961 258 l 1147 1017 l 1353 1017 l 1074 0 l 849 0 l 711 417 l 592 0 l 367 0 l 47 1017 z "},"ẁ":{"ha":1147,"x_min":21,"x_max":1128,"o":"m 346 1017 l 517 1017 l 642 825 l 515 825 l 346 1017 m 21 738 l 229 738 l 376 228 l 508 738 l 703 738 l 651 539 l 774 228 l 919 738 l 1128 738 l 889 0 l 672 0 l 561 267 l 478 0 l 257 0 l 21 738 z "},"Ẃ":{"ha":1378,"x_min":47,"x_max":1353,"o":"m 643 1104 l 769 1296 l 939 1296 l 769 1104 l 643 1104 m 47 1017 l 254 1017 l 479 263 l 663 1017 l 871 1017 l 800 754 l 961 258 l 1147 1017 l 1353 1017 l 1074 0 l 849 0 l 711 417 l 592 0 l 367 0 l 47 1017 z "},"ẃ":{"ha":1147,"x_min":21,"x_max":1128,"o":"m 515 825 l 642 1017 l 811 1017 l 642 825 l 515 825 m 21 738 l 229 738 l 376 228 l 508 738 l 703 738 l 651 539 l 774 228 l 919 738 l 1128 738 l 889 0 l 672 0 l 561 267 l 478 0 l 257 0 l 21 738 z "},"Ẅ":{"ha":1378,"x_min":47,"x_max":1353,"o":"m 467 1128 q 443 1181 443 1153 q 454 1226 443 1208 q 518 1267 478 1267 q 582 1243 558 1267 q 606 1186 606 1219 q 582 1128 606 1153 q 525 1104 558 1104 q 467 1128 492 1104 m 797 1186 q 821 1243 797 1219 q 878 1267 844 1267 q 936 1243 913 1267 q 960 1186 960 1219 q 936 1128 960 1153 q 879 1104 913 1104 q 822 1128 846 1104 q 797 1186 797 1153 m 47 1017 l 254 1017 l 479 263 l 663 1017 l 871 1017 l 800 754 l 961 258 l 1147 1017 l 1353 1017 l 1074 0 l 849 0 l 711 417 l 592 0 l 367 0 l 47 1017 z "},"ẅ":{"ha":1147,"x_min":21,"x_max":1128,"o":"m 321 907 q 332 947 321 929 q 397 988 357 988 q 461 964 438 988 q 485 907 485 940 q 461 850 485 874 q 410 825 438 825 q 363 836 382 825 q 332 867 343 847 q 321 907 321 885 m 717 976 q 764 988 736 988 q 815 964 792 988 q 839 907 839 940 q 815 850 839 874 q 758 825 792 825 q 700 850 724 825 q 675 914 675 874 q 717 976 675 953 m 21 738 l 229 738 l 376 228 l 508 738 l 703 738 l 651 539 l 774 228 l 919 738 l 1128 738 l 889 0 l 672 0 l 561 267 l 478 0 l 257 0 l 21 738 z "},"Ỳ":{"ha":911,"x_min":47,"x_max":886,"o":"m 233 1300 l 404 1300 l 531 1107 l 403 1107 l 233 1300 m 551 0 l 357 0 l 357 315 l 47 1017 l 258 1017 l 457 529 l 675 1017 l 886 1017 l 551 315 l 551 0 z "},"ỳ":{"ha":803,"x_min":22,"x_max":778,"o":"m 174 1019 l 344 1019 l 469 828 l 343 828 l 174 1019 m 22 738 l 226 738 l 354 221 q 371 188 361 196 q 386 175 381 179 q 400 169 393 172 q 411 168 407 168 q 422 167 417 168 l 428 167 l 575 738 l 778 738 l 522 -233 l 421 -375 l 282 -375 l 386 0 q 167 188 217 0 l 22 738 z "},"„":{"ha":590,"x_min":76,"x_max":517,"o":"m 124 -156 q 83 -151 106 -156 l 83 -75 l 85 -75 q 129 -29 129 -75 l 129 0 l 113 0 q 86 8 97 0 q 76 36 76 18 l 76 160 q 113 200 76 200 l 233 200 q 268 160 268 200 l 268 -24 q 124 -156 268 -156 m 515 -24 q 371 -156 515 -156 q 350 -154 360 -156 l 332 -151 l 332 -75 l 333 -75 q 376 -29 376 -75 l 376 0 l 361 0 q 333 8 344 0 q 324 36 324 18 l 324 160 q 361 199 324 199 l 481 199 q 515 160 515 199 l 515 -24 z "},"†":{"ha":611,"x_min":21,"x_max":590,"o":"m 21 629 l 21 781 l 206 797 l 221 1069 l 392 1069 l 407 797 l 590 781 l 590 629 l 407 611 l 390 -100 l 219 -100 l 206 611 l 21 629 z "},"‡":{"ha":632,"x_min":21,"x_max":590,"o":"m 21 203 l 21 354 l 208 375 l 206 611 l 21 629 l 21 781 l 206 797 l 221 1069 l 392 1069 l 407 797 l 590 781 l 590 629 l 407 611 l 403 374 l 590 354 l 590 203 l 397 185 l 390 -100 l 219 -100 l 214 183 l 21 203 z "},"•":{"ha":429,"x_min":90,"x_max":340,"o":"m 90 447 l 90 611 q 136 660 90 660 l 292 660 q 340 611 340 660 l 340 447 q 292 403 340 403 l 136 403 q 103 414 115 403 q 90 447 90 426 z "},"‰":{"ha":1915,"x_min":44,"x_max":1874,"o":"m 44 667 l 44 836 q 86 972 44 928 q 232 1017 129 1017 l 372 1017 q 514 972 471 1017 q 556 836 556 928 l 556 667 q 514 529 556 574 q 369 485 471 485 l 229 485 q 86 529 129 485 q 44 667 44 574 m 181 689 q 194 636 181 651 q 247 621 208 621 l 350 621 q 415 650 406 621 q 419 689 419 664 l 419 813 q 406 867 419 853 q 353 881 390 881 l 250 881 q 194 867 210 881 q 181 813 181 853 l 181 689 m 289 0 l 910 1017 l 1049 1017 l 433 0 l 289 0 m 782 185 l 782 354 q 799 454 782 415 q 968 536 833 536 l 1108 536 q 1250 492 1207 536 q 1293 354 1293 446 l 1293 185 q 1250 49 1293 93 q 1106 4 1207 4 l 965 4 q 824 49 865 4 q 782 185 782 93 m 918 208 q 931 156 918 171 q 985 140 944 140 l 1086 140 q 1143 156 1129 140 q 1157 208 1157 171 l 1157 332 q 1128 394 1157 383 q 1089 400 1114 400 l 988 400 q 933 386 947 400 q 918 332 918 371 l 918 208 m 1361 185 l 1361 354 q 1403 492 1361 446 q 1547 536 1446 536 l 1688 536 q 1854 454 1818 536 q 1872 354 1872 415 l 1872 185 q 1831 49 1872 93 q 1685 4 1788 4 l 1544 4 q 1403 49 1446 4 q 1361 185 1361 93 m 1497 208 q 1511 156 1499 171 q 1564 140 1526 140 l 1667 140 q 1722 156 1710 140 q 1736 208 1736 172 l 1736 332 q 1722 386 1736 372 q 1669 400 1707 400 l 1567 400 q 1504 374 1515 400 q 1497 332 1497 358 l 1497 208 z "},"‹":{"ha":494,"x_min":53,"x_max":449,"o":"m 53 492 l 339 774 l 446 668 l 264 492 l 449 310 l 346 203 l 53 492 z "},"›":{"ha":494,"x_min":53,"x_max":449,"o":"m 53 310 l 238 492 l 57 668 l 163 774 l 449 492 l 156 203 l 53 310 z "},"⁄":{"ha":447,"x_min":-96,"x_max":543,"o":"m -96 0 l 401 1046 l 543 1046 l 46 0 l -96 0 z "},"⁰":{"ha":644,"x_min":64,"x_max":582,"o":"m 244 1193 l 408 1193 q 582 1026 582 1193 l 582 690 q 408 525 582 525 l 243 525 q 76 613 110 525 q 64 690 64 646 l 64 1022 q 244 1193 64 1193 m 214 722 q 231 675 214 688 q 279 663 246 663 l 369 663 q 419 675 406 663 q 432 722 432 688 l 432 996 q 419 1042 432 1028 q 374 1054 406 1054 l 276 1054 q 222 1035 232 1054 q 214 996 214 1019 l 214 722 z "},"⁴":{"ha":597,"x_min":17,"x_max":583,"o":"m 365 804 l 365 946 l 399 1015 l 515 1015 l 515 804 l 583 804 l 583 686 l 515 675 l 515 526 l 365 526 l 365 661 l 49 661 l 17 725 l 254 1193 l 408 1193 l 213 804 l 365 804 z "},"⁵":{"ha":578,"x_min":58,"x_max":536,"o":"m 325 661 q 375 675 363 661 q 386 717 386 690 l 386 763 q 383 792 386 781 q 367 811 379 801 q 329 822 354 822 l 236 822 q 186 774 186 822 l 58 774 l 79 1193 l 510 1193 l 510 1054 l 211 1054 l 204 932 q 325 957 238 957 q 376 954 349 957 q 497 904 457 951 q 536 778 536 857 l 536 689 q 486 561 536 603 q 347 519 436 519 q 201 522 258 519 q 58 542 144 526 l 58 661 l 325 661 z "},"⁶":{"ha":608,"x_min":56,"x_max":568,"o":"m 165 1181 q 231 1199 193 1194 q 338 1203 267 1203 q 543 1181 408 1203 l 543 1064 l 297 1064 q 208 958 215 1064 q 207 918 208 942 q 389 939 285 939 q 531 896 493 939 q 567 776 567 853 l 567 683 q 394 525 567 525 l 250 525 q 172 539 204 525 q 71 699 94 574 q 57 868 57 768 q 72 1033 57 968 q 111 1132 86 1099 q 165 1181 138 1165 m 207 806 q 290 664 207 664 l 364 664 q 406 675 393 664 q 417 713 417 685 l 417 758 q 406 796 417 786 q 368 806 396 806 l 207 806 z "},"⁷":{"ha":551,"x_min":15,"x_max":536,"o":"m 15 1056 l 15 1194 l 497 1194 l 536 1131 l 282 525 l 117 525 l 340 1056 l 15 1056 z "},"⁸":{"ha":643,"x_min":68,"x_max":578,"o":"m 69 979 l 69 1038 q 118 1164 69 1128 q 251 1200 167 1200 l 407 1200 q 533 1163 492 1200 q 575 1039 575 1125 l 575 992 q 536 900 578 929 q 503 888 522 890 q 549 857 531 882 q 575 760 575 819 l 575 685 q 490 535 575 561 q 408 524 454 524 l 247 524 q 96 578 131 524 q 69 679 69 621 l 69 743 q 90 811 69 783 q 147 846 111 839 q 96 883 114 860 q 74 928 78 906 q 69 979 69 949 m 425 751 q 374 801 425 801 l 274 801 q 232 789 244 801 q 219 751 219 778 l 219 704 q 231 667 219 678 q 275 657 243 657 l 372 657 q 414 668 401 657 q 425 704 425 679 l 425 751 m 219 981 q 233 939 219 950 q 274 929 247 929 l 371 929 q 415 942 406 929 q 425 981 425 956 l 425 1011 q 411 1056 425 1046 q 367 1067 397 1067 l 279 1067 q 233 1056 246 1067 q 219 1011 219 1044 l 219 981 z "},"⁹":{"ha":608,"x_min":46,"x_max":558,"o":"m 47 949 l 47 1042 q 93 1164 47 1125 q 219 1203 139 1203 l 363 1203 q 442 1189 408 1203 q 543 1026 519 1154 q 557 903 557 956 q 556 814 557 849 q 550 731 556 781 q 531 647 543 681 q 504 589 519 613 q 469 550 489 564 q 386 519 432 525 q 267 514 340 514 q 71 538 192 514 l 71 654 l 315 654 q 404 764 399 654 q 406 806 406 779 q 225 785 328 785 q 83 828 121 785 q 47 949 47 871 m 197 968 q 208 928 197 938 q 247 918 218 918 l 406 918 q 369 1051 406 1024 q 325 1064 351 1064 l 249 1064 q 208 1053 221 1064 q 197 1014 197 1042 l 197 968 z "},"₀":{"ha":644,"x_min":64,"x_max":582,"o":"m 244 392 l 408 392 q 582 225 582 392 l 582 -111 q 408 -278 582 -278 l 243 -278 q 111 -239 157 -278 q 64 -111 64 -200 l 64 219 q 244 392 64 392 m 214 -79 q 231 -128 214 -115 q 279 -139 246 -139 l 369 -139 q 419 -128 406 -139 q 432 -81 432 -115 l 432 194 q 419 239 432 226 q 374 253 406 253 l 276 253 q 222 232 232 253 q 214 194 214 217 l 214 -79 z "},"₁":{"ha":375,"x_min":17,"x_max":307,"o":"m 307 392 l 307 -278 l 157 -278 l 157 256 l 17 224 l 17 317 l 158 392 l 307 392 z "},"₂":{"ha":560,"x_min":31,"x_max":518,"o":"m 33 263 q 32 294 32 263 l 32 347 l 33 375 q 275 401 183 401 q 406 386 365 401 q 469 344 444 372 q 517 200 517 290 q 274 -139 517 54 l 517 -139 l 517 -278 l 38 -278 l 38 -144 q 276 42 204 -29 q 336 114 308 74 q 364 186 364 156 q 354 232 364 215 q 257 263 333 263 l 33 263 z "},"₃":{"ha":572,"x_min":32,"x_max":511,"o":"m 32 367 q 268 394 110 394 l 332 394 q 463 349 415 394 q 510 226 510 303 l 510 185 q 431 56 510 83 q 510 -82 510 25 l 510 -114 q 325 -283 510 -283 l 271 -283 q 38 -256 114 -283 l 39 -146 l 263 -144 q 339 -133 319 -144 q 360 -90 360 -122 l 360 -72 q 336 -25 360 -39 q 268 -11 314 -12 l 94 -4 l 94 115 l 268 126 q 339 140 318 128 q 361 183 361 153 l 361 200 q 338 244 361 232 q 268 257 314 257 l 32 257 l 32 367 z "},"₄":{"ha":603,"x_min":17,"x_max":588,"o":"m 369 1 l 369 144 l 403 213 l 519 213 l 519 1 l 588 1 l 588 -117 l 519 -128 l 519 -275 l 369 -275 l 369 -142 l 49 -142 l 17 -76 l 254 392 l 413 392 l 219 1 l 369 1 z "},"₅":{"ha":581,"x_min":58,"x_max":539,"o":"m 513 392 l 513 253 l 213 253 l 206 129 q 326 154 238 154 q 378 153 351 154 q 500 101 460 149 q 539 -24 539 54 l 539 -112 q 489 -240 539 -199 q 349 -282 438 -282 q 203 -278 260 -282 q 58 -260 146 -275 l 58 -140 l 326 -140 q 378 -126 365 -140 q 389 -86 389 -112 l 389 -39 q 386 -11 389 -22 q 369 10 383 0 q 333 19 357 19 l 238 19 q 188 -19 188 19 l 58 -19 l 79 392 l 513 392 z "},"₆":{"ha":608,"x_min":56,"x_max":568,"o":"m 165 378 q 233 397 193 393 q 347 401 272 401 q 543 378 421 401 l 543 263 l 297 263 q 208 156 215 263 q 207 115 208 139 q 389 136 285 136 q 531 93 493 136 q 567 -25 567 50 l 567 -118 q 394 -278 567 -278 l 250 -278 q 172 -262 204 -278 q 71 -104 94 -229 q 57 65 57 -35 q 72 231 57 165 q 111 329 86 296 q 165 378 138 363 m 207 4 q 290 -139 207 -139 l 365 -139 q 406 -128 393 -139 q 417 -90 417 -117 l 417 -44 q 406 -6 417 -15 q 368 4 396 4 l 207 4 z "},"₇":{"ha":551,"x_min":15,"x_max":536,"o":"m 15 254 l 15 393 l 497 393 l 536 328 l 282 -278 l 117 -278 l 340 254 l 15 254 z "},"₈":{"ha":643,"x_min":68,"x_max":578,"o":"m 69 -60 q 89 10 69 -18 q 147 44 110 38 q 85 97 100 64 q 69 178 69 129 l 69 236 q 118 361 69 325 q 251 397 167 397 l 407 397 q 533 360 492 397 q 575 238 575 322 l 575 190 q 567 140 576 165 q 503 85 549 93 q 549 56 531 81 q 575 -43 575 17 l 575 -118 q 490 -267 575 -240 q 408 -278 454 -278 l 247 -278 q 96 -224 131 -278 q 69 -122 69 -182 l 69 -60 m 425 -51 q 374 0 425 0 l 274 0 q 232 -11 244 0 q 219 -51 219 -24 l 219 -99 q 231 -135 219 -125 q 275 -144 243 -144 l 372 -144 q 414 -133 401 -144 q 425 -99 425 -124 l 425 -51 m 219 178 q 233 138 219 149 q 274 126 247 126 l 371 126 q 415 139 406 126 q 425 178 425 153 l 425 210 q 411 254 425 243 q 367 265 397 265 l 279 265 q 233 254 246 265 q 219 210 219 243 l 219 178 z "},"₉":{"ha":608,"x_min":46,"x_max":558,"o":"m 219 401 l 363 401 q 442 386 410 401 q 543 225 519 353 q 557 54 557 156 q 543 -114 557 -47 q 503 -214 529 -179 q 450 -261 476 -247 q 300 -286 404 -286 q 71 -265 196 -286 l 71 -149 l 315 -149 q 404 -39 399 -149 q 406 3 406 -22 q 225 -18 328 -18 q 83 25 121 -18 q 47 146 47 69 l 47 240 q 93 361 47 322 q 219 401 139 401 m 197 165 q 208 125 197 136 q 247 115 218 115 l 406 115 q 369 249 406 221 q 325 263 351 263 l 249 263 q 208 250 221 263 q 197 211 197 239 l 197 165 z "},"€":{"ha":857,"x_min":21,"x_max":838,"o":"m 343 1011 q 467 1028 399 1028 q 644 1014 533 1028 q 832 978 757 1000 l 832 836 q 551 856 628 856 q 444 851 475 856 q 394 839 415 847 q 361 817 375 832 q 339 789 347 803 q 328 753 332 776 q 322 661 322 718 l 647 650 l 647 556 l 322 547 l 322 453 l 647 442 l 647 347 q 368 339 456 343 l 322 336 q 418 168 322 199 q 515 156 460 156 q 785 179 626 156 l 838 186 l 838 47 q 468 -8 706 -8 q 228 69 318 -8 q 128 336 128 156 l 21 347 l 21 442 l 128 453 l 128 547 l 21 558 l 21 647 l 128 661 q 156 847 128 781 q 192 914 167 878 q 253 972 217 950 q 343 1011 288 996 z "},"ℓ":{"ha":640,"x_min":32,"x_max":576,"o":"m 360 1026 q 514 965 451 1026 q 576 792 576 904 q 451 513 576 656 q 306 378 386 438 l 306 310 q 322 200 306 229 q 363 161 338 172 q 408 144 388 149 q 454 136 431 142 q 531 121 525 119 l 531 1 q 478 0 532 0 l 371 0 l 317 1 q 161 58 213 1 q 111 253 111 117 l 111 289 q 65 261 96 278 l 32 353 q 111 431 67 383 l 111 817 q 175 972 111 918 q 360 1026 240 1026 m 404 797 q 403 822 404 811 q 393 849 401 836 q 347 869 376 869 q 317 856 326 869 q 306 818 306 840 l 306 581 q 404 797 404 706 z "},"№":{"ha":1536,"x_min":75,"x_max":1493,"o":"m 75 0 l 75 842 q 104 942 75 899 q 283 1026 160 1026 q 446 964 383 1026 q 490 878 481 928 l 690 190 q 710 175 696 172 q 724 194 724 179 l 724 786 q 788 964 724 908 q 957 1019 851 1019 l 1303 1019 q 1450 961 1408 1018 q 1493 768 1493 906 q 1475 633 1493 685 q 1288 529 1438 533 l 1226 529 q 1128 542 1165 531 q 1067 586 1092 554 q 1031 675 1040 618 q 1019 824 1019 731 l 1167 824 q 1196 676 1167 693 q 1235 669 1208 669 l 1279 669 q 1332 686 1318 669 q 1346 771 1346 703 q 1332 857 1346 839 q 1268 875 1318 875 q 1092 878 1157 878 q 1003 872 1028 878 q 956 856 976 868 q 918 763 918 832 l 918 175 q 890 82 918 124 q 706 -7 831 -7 q 554 54 611 -7 q 508 147 518 92 l 306 842 q 294 856 303 853 q 278 850 286 856 q 271 832 271 843 l 271 0 l 75 0 z "},"™":{"ha":979,"x_min":21,"x_max":964,"o":"m 21 906 l 21 1017 l 411 1017 l 411 906 l 281 906 l 281 532 l 153 532 l 153 906 l 21 906 m 435 532 l 488 1017 l 619 1017 l 703 732 l 769 1017 l 906 1017 l 964 532 l 838 532 l 811 788 l 760 532 l 647 532 l 583 788 l 563 532 l 435 532 z "},"℮":{"ha":961,"x_min":64,"x_max":900,"o":"m 482 0 q 178 106 290 0 q 64 368 64 210 q 181 636 64 526 q 311 714 240 689 q 478 740 383 740 q 640 718 572 740 q 771 649 708 696 q 900 358 890 556 l 235 358 l 231 358 l 224 358 q 218 343 218 357 l 218 158 q 265 97 218 132 q 482 29 356 29 q 629 61 558 29 q 747 146 700 94 l 825 146 q 667 31 744 61 q 482 0 588 0 m 726 382 l 738 382 q 743 383 742 382 q 744 392 744 383 l 744 576 q 656 667 742 622 q 481 714 568 714 q 376 699 428 714 q 292 661 325 683 q 239 619 258 640 q 218 585 218 597 l 218 394 q 221 383 218 386 q 231 382 224 382 l 726 382 z "}}}
